<?xml version="1.0" standalone="no"?>
<!DOCTYPE svg PUBLIC "-//W3C//DTD SVG 1.1//EN" "http://www.w3.org/Graphics/SVG/1.1/DTD/svg11.dtd" >
<svg>
<metadata>
Created by FontForge 20110222 at Mon Nov 17 15:20:21 2014
 By deploy user
(c) 2010 Klim Type Foundry. All rights reserved.
</metadata>
<defs>
<font id="TiemposText-Regular" horiz-adv-x="600" >
  <font-face 
    font-family="Tiempos Text Regular"
    font-weight="400"
    font-stretch="normal"
    units-per-em="1000"
    panose-1="2 2 5 3 6 3 3 6 4 3"
    ascent="761"
    descent="-239"
    x-height="530"
    cap-height="702"
    bbox="-113 -230 1274 1026"
    underline-thickness="30"
    underline-position="-80"
    unicode-range="U+0020-FB04"
  />
<missing-glyph horiz-adv-x="960" 
 />
    <glyph glyph-name="ff" unicode="ff" horiz-adv-x="689" 
d="M330 754q100 0 157 -57q51 69 148 69q52 0 83 -20.5t31 -57.5q0 -34 -32 -52h-50v26q0 64 -55 64q-75 0 -75 -146v-52h131v-51h-131v-381q0 -35 18.5 -44.5t78.5 -16.5v-35h-266v35q28 4 41 7.5t24.5 15.5t11.5 34v385h-236v-385q0 -17 5 -27.5t17.5 -16t23 -8t31.5 -5.5
v-35h-246v35q28 4 41 7.5t24.5 15.5t11.5 34v385h-74v33l74 26v12q0 91 61.5 148.5t151.5 57.5zM445 554q0 40 8 69q-18 39 -52 64.5t-75 25.5q-54 0 -85.5 -36.5t-31.5 -102.5v-46h236v26z" />
    <glyph glyph-name="fi" unicode="fi" horiz-adv-x="649" 
d="M286 0h-246v35q28 4 41 7.5t24.5 15.5t11.5 34v385h-74v33l74 26v14q0 96 59 156t157 60q64 0 103 -20t39 -58q0 -36 -34 -56h-58v25q0 38 -16.5 54t-52.5 16q-45 0 -75 -39.5t-30 -113.5v-46h278l28 12h22v-448q0 -17 5 -27.5t17.5 -16t23 -8t31.5 -5.5v-35h-246v35
q28 4 41 7.5t24.5 15.5t11.5 34v385h-236v-385q0 -17 5 -27.5t17.5 -16t23 -8t31.5 -5.5v-35z" />
    <glyph glyph-name="fl" unicode="fl" horiz-adv-x="648" 
d="M117 92v385h-74v33l74 26v18q0 92 57.5 152t145.5 60q72 0 121 -37l71 32h25v-669q0 -22 11.5 -34t24.5 -15.5t41 -7.5v-35h-247v35q28 4 41.5 7.5t25 15.5t11.5 34v547q-43 88 -129 88q-52 0 -79.5 -39t-27.5 -108v-50h132v-53h-132v-385q0 -17 5 -27.5t17.5 -16t23 -8
t31.5 -5.5v-35h-246v35q28 4 41 7.5t24.5 15.5t11.5 34z" />
    <glyph glyph-name="ffi" unicode="ffi" horiz-adv-x="977" 
d="M330 754q106 0 162 -62q60 74 169 74q64 0 103 -20t39 -58q0 -36 -34 -56h-58v25q0 38 -16.5 54t-52.5 16q-45 0 -75 -39.5t-30 -113.5v-46h278l28 12h22v-448q0 -17 5 -27.5t17.5 -16t23 -8t31.5 -5.5v-35h-246v35q28 4 41 7.5t24.5 15.5t11.5 34v385h-236v-385
q0 -17 5 -27.5t17.5 -16t23 -8t31.5 -5.5v-35h-246v35q28 4 41 7.5t24.5 15.5t11.5 34v385h-236v-385q0 -17 5 -27.5t17.5 -16t23 -8t31.5 -5.5v-35h-246v35q28 4 41 7.5t24.5 15.5t11.5 34v385h-74v33l74 26v12q0 91 61.5 148.5t151.5 57.5zM209 574v-46h236v22q0 36 9 69
q-17 40 -51.5 67t-76.5 27q-54 0 -85.5 -36.5t-31.5 -102.5z" />
    <glyph glyph-name="ffl" unicode="ffl" horiz-adv-x="976" 
d="M117 536v12q0 91 61.5 148.5t151.5 57.5q106 0 161 -61q57 73 157 73q72 0 121 -37l71 32h25v-669q0 -22 11.5 -34t24.5 -15.5t41 -7.5v-35h-247v35q28 4 41.5 7.5t25 15.5t11.5 34v547q-43 88 -129 88q-52 0 -79.5 -39t-27.5 -108v-50h132v-53h-132v-385q0 -17 5 -27.5
t17.5 -16t23 -8t31.5 -5.5v-35h-246v35q28 4 41 7.5t24.5 15.5t11.5 34v385h-236v-385q0 -17 5 -27.5t17.5 -16t23 -8t31.5 -5.5v-35h-246v35q28 4 41 7.5t24.5 15.5t11.5 34v385h-74v33zM445 554q0 34 9 66q-17 40 -51.5 66.5t-76.5 26.5q-54 0 -85.5 -36.5t-31.5 -102.5
v-46h236v26z" />
    <glyph glyph-name="f_b" unicode="fb" horiz-adv-x="955" 
d="M445 57v582q-43 88 -129 88q-52 0 -79.5 -39t-27.5 -108v-50h132v-53h-132v-385q0 -17 5 -27.5t17.5 -16t23 -8t31.5 -5.5v-35h-246v35q28 4 41 7.5t24.5 15.5t11.5 34v385h-74v33l74 26v18q0 92 57.5 152t145.5 60q72 0 121 -37l71 32h25v-308q67 87 170 87
q99 0 153.5 -71t54.5 -179q0 -135 -73.5 -217.5t-182.5 -82.5q-136 0 -214 67zM666 36q70 0 113.5 58t43.5 154q0 94 -39 159.5t-117 65.5q-84 0 -130 -49v-249q0 -139 129 -139z" />
    <glyph glyph-name="f_f_b" unicode="ffb" horiz-adv-x="1283" 
d="M773 57v582q-43 88 -129 88q-52 0 -79.5 -39t-27.5 -108v-50h132v-53h-132v-385q0 -17 5 -27.5t17.5 -16t23 -8t31.5 -5.5v-35h-246v35q28 4 41 7.5t24.5 15.5t11.5 34v385h-236v-385q0 -17 5 -27.5t17.5 -16t23 -8t31.5 -5.5v-35h-246v35q28 4 41 7.5t24.5 15.5t11.5 34
v385h-74v33l74 26v12q0 91 61.5 148.5t151.5 57.5q106 0 161 -61q57 73 157 73q72 0 121 -37l71 32h25v-308q67 87 170 87q99 0 153.5 -71t54.5 -179q0 -135 -73.5 -217.5t-182.5 -82.5q-136 0 -214 67zM994 36q70 0 113.5 58t43.5 154q0 94 -39 159.5t-117 65.5
q-84 0 -130 -49v-249q0 -139 129 -139zM445 554q0 34 9 66q-17 40 -51.5 66.5t-76.5 26.5q-54 0 -85.5 -36.5t-31.5 -102.5v-46h236v26z" />
    <glyph glyph-name="f_h" unicode="fh" horiz-adv-x="971" 
d="M445 92v547q-43 88 -129 88q-52 0 -79.5 -39t-27.5 -108v-50h132v-53h-132v-385q0 -17 5 -27.5t17.5 -16t23 -8t31.5 -5.5v-35h-246v35q28 4 41 7.5t24.5 15.5t11.5 34v385h-74v33l74 26v18q0 92 57.5 152t145.5 60q72 0 121 -37l71 32h25v-319q46 46 90.5 72t100.5 26
q140 0 140 -164v-284q0 -22 11.5 -34t25 -15.5t41.5 -7.5v-35h-247v35q28 4 41 7.5t24.5 15.5t11.5 34v277q0 53 -22 75t-71 22q-77 0 -146 -53v-321q0 -22 11.5 -34t24.5 -15.5t41 -7.5v-35h-247v35q28 4 41.5 7.5t25 15.5t11.5 34z" />
    <glyph glyph-name="f_f_h" unicode="ffh" horiz-adv-x="1299" 
d="M773 92v547q-43 88 -129 88q-52 0 -79.5 -39t-27.5 -108v-50h132v-53h-132v-385q0 -17 5 -27.5t17.5 -16t23 -8t31.5 -5.5v-35h-246v35q28 4 41 7.5t24.5 15.5t11.5 34v385h-236v-385q0 -17 5 -27.5t17.5 -16t23 -8t31.5 -5.5v-35h-246v35q28 4 41 7.5t24.5 15.5t11.5 34
v385h-74v33l74 26v12q0 91 61.5 148.5t151.5 57.5q106 0 161 -61q57 73 157 73q72 0 121 -37l71 32h25v-319q46 46 90.5 72t100.5 26q140 0 140 -164v-284q0 -22 11.5 -34t25 -15.5t41.5 -7.5v-35h-247v35q28 4 41 7.5t24.5 15.5t11.5 34v277q0 53 -22 75t-71 22
q-77 0 -146 -53v-321q0 -22 11.5 -34t24.5 -15.5t41 -7.5v-35h-247v35q28 4 41.5 7.5t25 15.5t11.5 34zM445 554q0 34 9 66q-17 40 -51.5 66.5t-76.5 26.5q-54 0 -85.5 -36.5t-31.5 -102.5v-46h236v26z" />
    <glyph glyph-name="f_idieresis" unicode="f&#xef;" horiz-adv-x="649" 
d="M523 677q0 25 18 42.5t43 17.5t43 -17.5t18 -42.5q0 -26 -17.5 -44t-43.5 -18t-43.5 18t-17.5 44zM117 536v18q0 93 55.5 152.5t146.5 59.5q58 0 90 -20.5t32 -57.5q0 -38 -32 -56h-65v26q0 68 -48 68q-39 0 -63 -38.5t-24 -107.5v-52h278l28 12h22v-448q0 -17 5 -27.5
t17.5 -16t23 -8t31.5 -5.5v-35h-246v35q28 4 41 7.5t24.5 15.5t11.5 34v385h-236v-385q0 -17 5 -27.5t17.5 -16t23 -8t31.5 -5.5v-35h-246v35q28 4 41 7.5t24.5 15.5t11.5 34v385h-74v33z" />
    <glyph glyph-name="f_f_idieresis" unicode="ff&#xef;" horiz-adv-x="977" 
d="M330 754q104 0 160 -60q56 72 157 72q58 0 90 -20.5t32 -57.5q0 -38 -32 -56h-65v26q0 68 -48 68q-39 0 -63 -38.5t-24 -107.5v-52h278l28 12h22v-448q0 -17 5 -27.5t17.5 -16t23 -8t31.5 -5.5v-35h-246v35q28 4 41 7.5t24.5 15.5t11.5 34v385h-236v-385q0 -17 5 -27.5
t17.5 -16t23 -8t31.5 -5.5v-35h-246v35q28 4 41 7.5t24.5 15.5t11.5 34v385h-236v-385q0 -17 5 -27.5t17.5 -16t23 -8t31.5 -5.5v-35h-246v35q28 4 41 7.5t24.5 15.5t11.5 34v385h-74v33l74 26v12q0 91 61.5 148.5t151.5 57.5zM445 528v26q0 33 8 67q-17 39 -51.5 65.5
t-75.5 26.5q-54 0 -85.5 -36.5t-31.5 -102.5v-46h236zM851 677q0 25 18 42.5t43 17.5t43 -17.5t18 -42.5q0 -26 -17.5 -44t-43.5 -18t-43.5 18t-17.5 44z" />
    <glyph glyph-name="f_j" unicode="fj" horiz-adv-x="616" 
d="M445 477h-236v-385q0 -17 5 -27.5t17.5 -16t23 -8t31.5 -5.5v-35h-246v35q28 4 41 7.5t24.5 15.5t11.5 34v385h-74v33l74 26v14q0 96 59 156t157 60q64 0 103 -20t39 -58q0 -36 -34 -56h-58v25q0 38 -16.5 54t-52.5 16q-45 0 -75 -39.5t-30 -113.5v-46h278l28 12h22v-454
q0 -61 -4.5 -94.5t-20.5 -66.5q-30 -59 -133 -133l-23 25l32 41q36 46 46.5 89.5t10.5 122.5v407z" />
    <glyph glyph-name="f_f_j" unicode="ffj" horiz-adv-x="944" 
d="M773 477h-236v-385q0 -17 5 -27.5t17.5 -16t23 -8t31.5 -5.5v-35h-246v35q28 4 41 7.5t24.5 15.5t11.5 34v385h-236v-385q0 -17 5 -27.5t17.5 -16t23 -8t31.5 -5.5v-35h-246v35q28 4 41 7.5t24.5 15.5t11.5 34v385h-74v33l74 26v12q0 91 61.5 148.5t151.5 57.5
q106 0 162 -62q60 74 169 74q64 0 103 -20t39 -58q0 -36 -34 -56h-58v25q0 38 -16.5 54t-52.5 16q-45 0 -75 -39.5t-30 -113.5v-46h278l28 12h22v-454q0 -61 -4.5 -94.5t-20.5 -66.5q-30 -59 -133 -133l-23 25l32 41q36 46 46.5 89.5t10.5 122.5v407zM445 550q0 36 9 69
q-17 40 -51.5 67t-76.5 27q-54 0 -85.5 -36.5t-31.5 -102.5v-46h236v22z" />
    <glyph glyph-name="f_k" unicode="fk" horiz-adv-x="903" 
d="M547 283l166 158q16 16 16 27t-14 16t-62 11v35h227v-35q-51 -11 -80 -38l-158 -147l257 -283v-27h-101zM445 92v547q-43 88 -129 88q-52 0 -79.5 -39t-27.5 -108v-50h132v-53h-132v-385q0 -17 5 -27.5t17.5 -16t23 -8t31.5 -5.5v-35h-246v35q28 4 41 7.5t24.5 15.5
t11.5 34v385h-74v33l74 26v18q0 92 57.5 152t145.5 60q72 0 121 -37l71 32h25v-669q0 -22 11.5 -34t24.5 -15.5t41 -7.5v-35h-247v35q28 4 41.5 7.5t25 15.5t11.5 34z" />
    <glyph glyph-name="f_f_k" unicode="ffk" horiz-adv-x="1231" 
d="M773 92v547q-43 88 -129 88q-52 0 -79.5 -39t-27.5 -108v-50h132v-53h-132v-385q0 -17 5 -27.5t17.5 -16t23 -8t31.5 -5.5v-35h-246v35q28 4 41 7.5t24.5 15.5t11.5 34v385h-236v-385q0 -17 5 -27.5t17.5 -16t23 -8t31.5 -5.5v-35h-246v35q28 4 41 7.5t24.5 15.5t11.5 34
v385h-74v33l74 26v12q0 91 61.5 148.5t151.5 57.5q106 0 161 -61q57 73 157 73q72 0 121 -37l71 32h25v-669q0 -22 11.5 -34t24.5 -15.5t41 -7.5v-35h-247v35q28 4 41.5 7.5t25 15.5t11.5 34zM875 283l166 158q16 16 16 27t-14 16t-62 11v35h227v-35q-51 -11 -80 -38
l-158 -147l257 -283v-27h-101zM445 554q0 34 9 66q-17 40 -51.5 66.5t-76.5 26.5q-54 0 -85.5 -36.5t-31.5 -102.5v-46h236v26z" />
    <glyph glyph-name=".notdef" horiz-adv-x="960" 
 />
    <glyph glyph-name=".null" horiz-adv-x="0" 
 />
    <glyph glyph-name="nonmarkingreturn" horiz-adv-x="333" 
 />
    <glyph glyph-name="space" unicode=" " horiz-adv-x="225" 
 />
    <glyph glyph-name="exclam" unicode="!" horiz-adv-x="292" 
d="M73 63q0 31 21 52t52 21t52 -21t21 -52t-21 -52t-52 -21t-52 21t-21 52zM211 702l-43 -499h-45l-43 499h131z" />
    <glyph glyph-name="quotedbl" unicode="&#x22;" horiz-adv-x="390" 
d="M120 472h-22l-28 144q-15 81 -15 85q0 29 14.5 45t39.5 16t39.5 -16t14.5 -45q0 -4 -15 -85zM292 472h-22l-28 144q-15 81 -15 85q0 29 14.5 45t39.5 16t39.5 -16t14.5 -45q0 -4 -15 -85z" />
    <glyph glyph-name="numbersign" unicode="#" horiz-adv-x="584" 
d="M483 210h-116l-70 -220l-51 18l64 202h-127l-70 -220l-51 18l64 202h-96v53h113l57 177h-99v53h116l70 220l51 -18l-65 -202h128l70 220l51 -18l-65 -202h97v-53h-114l-56 -177h99v-53zM256 440l-56 -177h127l57 177h-128z" />
    <glyph glyph-name="dollar" unicode="$" horiz-adv-x="537" 
d="M166 -113l18 108q-89 14 -137 56l-7 168h33q35 -128 121 -164l44 263l-39 17q-75 31 -113.5 71.5t-38.5 116.5q0 82 59 135.5t158 53.5q14 0 40 -2l18 104h45l-19 -111q79 -17 120 -50v-153h-32q-25 108 -98 143l-41 -241l36 -15q84 -34 124 -75t40 -121
q0 -94 -70 -147.5t-177 -53.5q-15 0 -22 1l-17 -104h-45zM292 296l-12 5l-43 -257q7 -1 22 -1q69 0 110 32.5t41 86.5q0 51 -28.5 79.5t-89.5 54.5zM133 552q0 -45 24.5 -73.5t75.5 -49.5l22 -10l40 237q-17 3 -36 3q-60 0 -93 -29.5t-33 -77.5z" />
    <glyph glyph-name="percent" unicode="%" horiz-adv-x="865" 
d="M121 530q0 -61 22.5 -101t70.5 -40t71 40t23 101t-23 101t-71 40t-70.5 -40t-22.5 -101zM178 -19l450 741h59l-450 -741h-59zM40 530q0 82 51.5 132t122.5 50q72 0 123.5 -50t51.5 -132t-51.5 -132t-123.5 -50q-71 0 -122.5 50t-51.5 132zM744 173q0 61 -22.5 101
t-70.5 40t-71 -40t-23 -101t23 -101t71 -40t70.5 40t22.5 101zM825 173q0 -82 -51.5 -132t-122.5 -50q-72 0 -123.5 50t-51.5 132t51.5 132t123.5 50q71 0 122.5 -50t51.5 -132z" />
    <glyph glyph-name="ampersand" unicode="&#x26;" horiz-adv-x="691" 
d="M28 184q0 133 160 200q-66 80 -66 159q0 73 49.5 121t128.5 48q83 0 128.5 -40t45.5 -105q0 -111 -173 -181l188 -215q26 55 26 119q0 38 -11 53t-40 15v39h200v-39q-58 0 -74.5 -13t-24.5 -59q-14 -85 -48 -147l41 -46q49 -55 106 -55v-38h-121q-31 15 -80 67
q-77 -77 -200 -77q-61 0 -112.5 20t-87 65.5t-35.5 108.5zM283 40q90 0 153 58l-222 257q-88 -39 -88 -157q0 -71 45 -114.5t112 -43.5zM198 570q0 -67 73 -150l4 -5q61 25 89.5 60t28.5 92q0 47 -26 75t-72 28q-44 0 -70.5 -26.5t-26.5 -73.5z" />
    <glyph glyph-name="quotesingle" unicode="'" horiz-adv-x="218" 
d="M120 472h-22l-28 144q-15 81 -15 85q0 29 14.5 45t39.5 16t39.5 -16t14.5 -45q0 -4 -15 -85z" />
    <glyph glyph-name="parenleft" unicode="(" horiz-adv-x="338" 
d="M60 314q0 129 51 251t147 205h50q-165 -177 -165 -456q0 -278 165 -455h-50q-96 83 -147 205t-51 250z" />
    <glyph glyph-name="parenright" unicode=")" horiz-adv-x="338" 
d="M278 314q0 -128 -51 -250t-147 -205h-50q164 176 164 455q0 280 -164 456h50q96 -83 147 -205t51 -251z" />
    <glyph glyph-name="asterisk" unicode="*" horiz-adv-x="436" 
d="M368 462l-135 92l13 -162h-56l13 163l-135 -93l-28 49l147 70l-147 70l28 49l135 -93l-13 163h56l-13 -163l135 93l28 -49l-148 -70l148 -70z" />
    <glyph glyph-name="plus" unicode="+" horiz-adv-x="564" 
d="M251 590h61v-188h189v-62h-189v-188h-61v188h-188v62h188v188z" />
    <glyph glyph-name="comma" unicode="," horiz-adv-x="284" 
d="M154 6h-38q-45 10 -45 58q0 28 19 45.5t47 17.5q36 0 55.5 -25.5t19.5 -66.5q0 -66 -39.5 -109t-122.5 -49v40q104 16 104 89z" />
    <glyph glyph-name="hyphen" unicode="-" horiz-adv-x="360" 
d="M310 267h-260v76h260v-76z" />
    <glyph glyph-name="period" unicode="." horiz-adv-x="284" 
d="M69 63q0 31 21 52t52 21t52 -21t21 -52t-21 -52t-52 -21t-52 21t-21 52z" />
    <glyph glyph-name="slash" unicode="/" horiz-adv-x="397" 
d="M359 770l-277 -911h-62l277 911h62z" />
    <glyph glyph-name="zero" unicode="0" horiz-adv-x="635" 
d="M318 712q129 0 200.5 -102t71.5 -259t-71.5 -259t-200.5 -102q-130 0 -201.5 102t-71.5 259t71.5 259t201.5 102zM318 662q-161 0 -161 -311q0 -312 161 -312q160 0 160 312q0 311 -160 311z" />
    <glyph glyph-name="one" unicode="1" horiz-adv-x="419" 
d="M250 711h22v-599q0 -44 22 -55.5t107 -16.5v-40h-365v40q38 2 56.5 4t38 6.5t27 12t12 19t4.5 30.5v464h-138v31l31 4q73 11 110 30.5t73 69.5z" />
    <glyph glyph-name="two" unicode="2" horiz-adv-x="516" 
d="M134 85h163q67 0 98 18t66 85h29l-41 -188h-438v22l175 184q98 103 132 163t34 124q0 66 -34.5 101.5t-99.5 35.5q-51 0 -90.5 -25t-78.5 -69l-23 23q35 66 92 109.5t135 43.5q95 0 148.5 -54.5t53.5 -146.5q0 -42 -15 -81.5t-51.5 -84t-66.5 -76t-91.5 -90.5t-96.5 -94z
" />
    <glyph glyph-name="three" unicode="3" horiz-adv-x="527" 
d="M285 397q94 -10 150 -61.5t56 -127.5q0 -100 -71 -159t-174 -59q-105 0 -164.5 41t-59.5 99q0 48 44 71h54v-34q0 -63 34.5 -97.5t97.5 -34.5q66 0 101.5 38t35.5 104q0 77 -56 117.5t-147 40.5h-35l-7 34q100 25 153.5 61.5t53.5 104.5q0 47 -30.5 73.5t-79.5 26.5
q-98 0 -152 -94l-25 20q28 66 82 108.5t131 42.5q80 0 126 -42.5t46 -110.5q0 -64 -49.5 -105.5t-114.5 -56.5z" />
    <glyph glyph-name="four" unicode="4" horiz-adv-x="605" 
d="M91 232h271v331zM362 112v68h-344v38l391 484h48v-470h121v-52h-121v-68q0 -43 24 -57t80 -16v-39h-303v39q56 2 80 16t24 57z" />
    <glyph glyph-name="five" unicode="5" horiz-adv-x="515" 
d="M441 702v-95h-278l-24 -153q153 -7 244 -65.5t91 -176.5q0 -98 -63.5 -160t-165.5 -62t-160 41t-58 99q0 48 42 71h58v-34q0 -63 31 -97.5t92 -34.5q66 0 101.5 38.5t35.5 103.5q0 96 -85 143.5t-226 48.5l53 333h312z" />
    <glyph glyph-name="six" unicode="6" horiz-adv-x="576" 
d="M472 679q-141 -41 -223.5 -126t-96.5 -191q33 37 80.5 59t98.5 22q92 0 148 -55t56 -152q0 -111 -67 -178.5t-172 -67.5q-117 0 -184 81t-67 206q0 172 108.5 287t298.5 147zM278 377q-72 0 -128 -42q-3 -25 -3 -57q0 -109 43 -175t112 -66q65 0 99.5 44.5t34.5 123.5
q0 82 -41 127t-117 45z" />
    <glyph glyph-name="seven" unicode="7" horiz-adv-x="496" 
d="M410 607h-262q-37 0 -56.5 -13t-39.5 -52h-36l42 160h425v-28l-285 -674h-109z" />
    <glyph glyph-name="eight" unicode="8" horiz-adv-x="552" 
d="M485 544q0 -57 -41 -100t-97 -61l35 -17q130 -65 130 -180q0 -85 -59.5 -140.5t-176.5 -55.5q-105 0 -170.5 52t-65.5 136q0 63 42 108t111 68l-12 6q-114 57 -114 168q0 80 55 132t154 52q95 0 152 -46.5t57 -121.5zM325 291l-106 50q-89 -54 -89 -163q0 -63 40 -102
t106 -39q68 0 108.5 34.5t40.5 93.5q0 79 -100 126zM245 436l76 -39q81 49 81 147q0 56 -34.5 88.5t-91.5 32.5t-90 -30.5t-33 -80.5q0 -42 21.5 -67.5t70.5 -50.5z" />
    <glyph glyph-name="nine" unicode="9" horiz-adv-x="576" 
d="M104 23q141 41 223.5 126t96.5 191q-33 -37 -80.5 -59t-98.5 -22q-92 0 -148 55t-56 152q0 111 67 178.5t172 67.5q117 0 184 -81t67 -206q0 -172 -108.5 -287t-298.5 -147zM298 325q72 0 128 42q3 25 3 57q0 109 -43 175t-112 66q-65 0 -99.5 -44.5t-34.5 -123.5
q0 -82 41 -127t117 -45z" />
    <glyph glyph-name="colon" unicode=":" horiz-adv-x="284" 
d="M69 63q0 31 21 52t52 21t52 -21t21 -52t-21 -52t-52 -21t-52 21t-21 52zM69 383q0 31 21 52t52 21t52 -21t21 -52t-21 -52t-52 -21t-52 21t-21 52z" />
    <glyph glyph-name="semicolon" unicode=";" horiz-adv-x="284" 
d="M69 383q0 31 21 52t52 21t52 -21t21 -52t-21 -52t-52 -21t-52 21t-21 52zM154 6h-38q-45 10 -45 58q0 28 19 45.5t47 17.5q36 0 55.5 -25.5t19.5 -66.5q0 -66 -39.5 -109t-122.5 -49v40q104 16 104 89z" />
    <glyph glyph-name="less" unicode="&#x3c;" horiz-adv-x="413" 
d="M40 364v10l310 189v-76l-199 -117l199 -119v-76z" />
    <glyph glyph-name="equal" unicode="=" horiz-adv-x="574" 
d="M68 271v61h438v-61h-438zM68 409v62h438v-62h-438z" />
    <glyph glyph-name="greater" unicode="&#x3e;" horiz-adv-x="413" 
d="M373 374v-10l-310 -189v76l200 119l-200 117v76z" />
    <glyph glyph-name="question" unicode="?" horiz-adv-x="438" 
d="M318 569q0 44 -27 70t-75 26q-88 0 -88 -94v-37h-80q-21 19 -21 48q0 55 55 92.5t132 37.5q91 0 144 -42.5t53 -124.5q0 -58 -30.5 -101.5t-90.5 -88.5q-42 -30 -59.5 -58.5t-17.5 -71.5v-32h-29q-29 52 -29 90q0 81 79 146q31 25 44.5 39t26.5 41t13 60zM125 63
q0 31 21 52t52 21t52 -21t21 -52t-21 -52t-52 -21t-52 21t-21 52z" />
    <glyph glyph-name="at" unicode="@" horiz-adv-x="892" 
d="M606 75q-48 0 -72.5 28.5t-23.5 70.5t14 89h-6q-35 -83 -83.5 -135t-96.5 -52q-43 0 -68 33t-25 91q0 115 76 208.5t167 93.5q56 0 90 -32l47 38h37l-27 -89l-50 -208q-23 -96 33 -96q63 0 112 68.5t49 174.5q0 132 -78 213t-222 81q-153 0 -257 -118.5t-104 -286.5
q0 -150 97.5 -243.5t251.5 -93.5q139 0 262 73l14 -30q-48 -41 -125 -65.5t-161 -24.5q-181 0 -294 105.5t-113 279.5q0 184 123.5 314t305.5 130q166 0 264.5 -93t98.5 -241q0 -126 -71 -204.5t-165 -78.5zM371 134q44 0 97.5 82.5t87.5 211.5q-18 37 -60 37
q-69 0 -118 -87.5t-49 -175.5q0 -68 42 -68z" />
    <glyph glyph-name="A" unicode="A" horiz-adv-x="723" 
d="M532 122l-47 110h-295l-44 -109q-11 -27 -11 -40q0 -23 21 -32.5t73 -11.5v-39h-224v39q49 7 61 37l237 569l-31 66h111l275 -635q8 -19 21.5 -26.5t38.5 -10.5v-39h-268v39q52 2 72.5 11t20.5 32q0 12 -11 40zM335 589l-127 -313h259z" />
    <glyph glyph-name="B" unicode="B" horiz-adv-x="662" 
d="M34 0v39q55 2 78.5 16t23.5 57v478q0 43 -23.5 57t-78.5 16v39h305q117 0 180 -44.5t63 -131.5q0 -70 -49 -109.5t-126 -53.5q102 -8 156.5 -54t54.5 -121q0 -85 -68.5 -136.5t-189.5 -51.5h-326zM332 336h-100v-224q0 -39 23 -53t78 -14h13q86 0 126 35t40 108
q0 67 -43.5 107.5t-136.5 40.5zM310 656h-78v-275h78q86 0 126.5 35t40.5 110q0 56 -42 93t-125 37z" />
    <glyph glyph-name="C" unicode="C" horiz-adv-x="673" 
d="M394 41q73 0 120 43t77 131h37l-23 -170q-108 -55 -233 -55q-147 0 -238 97t-91 249q0 171 98 273.5t247 102.5q136 0 216 -63v-153h-36q-38 165 -186 165q-115 0 -173.5 -83t-58.5 -214q0 -143 63.5 -233t180.5 -90z" />
    <glyph glyph-name="D" unicode="D" horiz-adv-x="755" 
d="M322 656h-90v-539q0 -42 23 -56.5t79 -14.5h22q117 0 183 78.5t66 224.5q0 61 -15.5 114t-48 97.5t-89 70t-130.5 25.5zM34 663v39h307q94 0 167 -27t116.5 -73.5t65.5 -105t22 -125.5q0 -174 -101 -272.5t-255 -98.5h-322v39q55 2 78.5 16t23.5 57v478q0 43 -23.5 57
t-78.5 16z" />
    <glyph glyph-name="E" unicode="E" horiz-adv-x="670" 
d="M508 246h-34q-8 47 -24 68.5t-48 21.5h-170v-222q0 -39 23 -53.5t78 -14.5h100q27 0 46 5t32.5 11t29.5 26.5t26.5 36t34.5 55.5h28l-30 -180h-566v39q55 2 78.5 16t23.5 57v478q0 43 -23.5 57t-78.5 16v39h561v-167h-27q-28 69 -57.5 95t-87.5 26h-191v-274h170
q32 0 48 21.5t24 68.5h34v-226z" />
    <glyph glyph-name="F" unicode="F" horiz-adv-x="607" 
d="M361 0h-327v39q55 2 78.5 16t23.5 57v478q0 43 -23.5 57t-78.5 16v39h543v-173h-26q-30 71 -59 99t-86 28h-174v-289h152q32 0 48 21.5t25 68.5h33v-226h-33q-9 47 -25 68.5t-48 21.5h-152v-209q0 -42 30 -56t99 -17v-39z" />
    <glyph glyph-name="G" unicode="G" horiz-adv-x="735" 
d="M43 336q0 171 100.5 273.5t249.5 102.5q141 0 221 -63v-153h-36q-20 84 -69.5 124.5t-121.5 40.5q-115 0 -176 -83.5t-61 -213.5q0 -143 63.5 -233t180.5 -90q90 0 138 44v140q0 42 -22.5 56.5t-75.5 16.5v38h281v-38q-51 -2 -70.5 -16t-19.5 -57v-163q-102 -72 -240 -72
q-156 0 -249 96t-93 250z" />
    <glyph glyph-name="H" unicode="H" horiz-adv-x="835" 
d="M603 112v224h-371v-224q0 -43 24 -57t78 -16v-39h-300v39q55 2 78.5 16t23.5 57v478q0 43 -23.5 57t-78.5 16v39h300v-39q-54 -2 -78 -16t-24 -57v-208h371v208q0 43 -24 57t-78 16v39h300v-39q-55 -2 -78.5 -16t-23.5 -57v-478q0 -43 23.5 -57t78.5 -16v-39h-300v39
q54 2 78 16t24 57z" />
    <glyph glyph-name="I" unicode="I" horiz-adv-x="368" 
d="M334 0h-300v39q55 2 78.5 16t23.5 57v478q0 43 -23.5 57t-78.5 16v39h300v-39q-55 -2 -78.5 -16t-23.5 -57v-478q0 -43 23.5 -57t78.5 -16v-39z" />
    <glyph glyph-name="J" unicode="J" horiz-adv-x="520" 
d="M405 590v-390q0 -104 -53.5 -156.5t-151.5 -52.5q-86 0 -138 34t-52 90q0 41 27 64h71v-45q0 -49 26.5 -74.5t71.5 -25.5q102 0 102 150v406q0 43 -23.5 57t-77.5 16v39h300v-39q-55 -2 -78.5 -16t-23.5 -57z" />
    <glyph glyph-name="K" unicode="K" horiz-adv-x="714" 
d="M343 384l238 -266q41 -45 67 -60.5t62 -18.5v-39h-135q-43 23 -99 87l-233 270l251 241q22 20 22 37q0 14 -14.5 19t-65.5 9v39h255v-39q-60 -3 -110 -51zM136 112v478q0 43 -23.5 57t-78.5 16v39h300v-39q-54 -2 -77.5 -16t-23.5 -57v-478q0 -43 23.5 -57t77.5 -16v-39
h-300v39q55 2 78.5 16t23.5 57z" />
    <glyph glyph-name="L" unicode="L" horiz-adv-x="614" 
d="M233 590v-476q0 -39 23 -53.5t78 -14.5h58q22 0 38.5 3t32 13.5t24 18t23.5 31t22 35.5t26 48h32l-32 -195h-524v39q55 2 78.5 16t23.5 57v478q0 43 -23.5 57t-78.5 16v39h300v-39q-54 -2 -77.5 -16t-23.5 -57z" />
    <glyph glyph-name="M" unicode="M" horiz-adv-x="931" 
d="M734 127l-54 426l-211 -553h-34l-224 556l-53 -429q-2 -14 -2 -24q0 -36 20 -49t75 -15v-39h-236v39q44 2 62 14t22 46l63 491q0 40 -17.5 56t-67.5 17v39h183q2 -26 15 -56l198 -502l188 502q14 38 16 56h177v-39q-49 -1 -66.5 -17t-17.5 -56l63 -491q4 -34 22 -46
t61 -14v-39h-275v39q54 2 74.5 15t20.5 49q0 10 -2 24z" />
    <glyph glyph-name="N" unicode="N" horiz-adv-x="806" 
d="M136 112v488q-33 39 -50.5 50.5t-51.5 12.5v39h171l416 -527v415q0 43 -23.5 57t-78.5 16v39h262v-39q-55 -2 -78.5 -16t-23.5 -57v-590h-41l-444 555v-443q0 -43 23.5 -57t78.5 -16v-39h-262v39q55 2 78.5 16t23.5 57z" />
    <glyph glyph-name="O" unicode="O" horiz-adv-x="748" 
d="M385 45q103 0 158 84.5t55 218.5q0 81 -23 148.5t-78 114t-134 46.5q-103 0 -158 -84.5t-55 -218.5q0 -81 23 -148.5t78 -114t134 -46.5zM377 712q150 0 239 -100.5t89 -246.5q0 -168 -97 -271.5t-237 -103.5q-150 0 -239 100.5t-89 246.5q0 168 97 271.5t237 103.5z" />
    <glyph glyph-name="P" unicode="P" horiz-adv-x="613" 
d="M349 287h-116v-175q0 -42 29.5 -56t98.5 -17v-39h-327v39q55 2 78.5 16t23.5 57v478q0 43 -23.5 57t-78.5 16v39h298q134 0 198 -59t64 -146q0 -93 -61.5 -151.5t-183.5 -58.5zM233 656v-323h79q92 0 133.5 38.5t41.5 121.5q0 75 -43 119t-132 44h-79z" />
    <glyph glyph-name="Q" unicode="Q" horiz-adv-x="748" 
d="M377 712q150 0 239 -100.5t89 -246.5q0 -141 -70.5 -238.5t-181.5 -126.5l26 -28q59 -63 95 -91.5t74 -33.5v-19q-33 -11 -67 -11q-104 0 -163 81l-66 93q-142 7 -225.5 106t-83.5 240q0 168 97 271.5t237 103.5zM385 45q103 0 158 84.5t55 218.5q0 81 -23 148.5t-78 114
t-134 46.5q-103 0 -158 -84.5t-55 -218.5q0 -81 23 -148.5t78 -114t134 -46.5z" />
    <glyph glyph-name="R" unicode="R" horiz-adv-x="704" 
d="M298 656h-66v-306h70q176 0 176 155q0 68 -44.5 109.5t-135.5 41.5zM34 702h294q129 0 192.5 -53t63.5 -144q0 -80 -57.5 -129.5t-135.5 -56.5l168 -209q53 -67 129 -71v-39h-143q-45 28 -91 88l-169 218h-53v-194q0 -43 23.5 -57t77.5 -16v-39h-299v39q55 2 78.5 16
t23.5 57v478q0 43 -23.5 57t-78.5 16v39z" />
    <glyph glyph-name="S" unicode="S" horiz-adv-x="556" 
d="M265 -10q-67 0 -125 19.5t-93 49.5l-7 164h35q24 -84 72 -133.5t121 -49.5q71 0 111 33.5t40 94.5q0 50 -36 80.5t-130 65.5q-108 40 -156.5 85t-48.5 125q0 82 58.5 135t160.5 53q113 0 208 -63v-153h-33q-18 76 -64 121t-116 45q-61 0 -94 -31t-33 -81
q0 -51 32.5 -80.5t125.5 -64.5q116 -43 166.5 -90t50.5 -127q0 -92 -70.5 -145t-174.5 -53z" />
    <glyph glyph-name="T" unicode="T" horiz-adv-x="663" 
d="M30 702h602l16 -209h-32q-47 110 -71.5 137t-89.5 27h-76v-545q0 -43 25 -57t81 -16v-39h-308v39q56 2 80.5 16t24.5 57v545h-74q-65 0 -89.5 -27t-72.5 -137h-31z" />
    <glyph glyph-name="U" unicode="U" horiz-adv-x="766" 
d="M207 590v-344q0 -93 48.5 -143t134.5 -50q104 0 156.5 48t52.5 153v336q0 43 -23.5 57t-78.5 16v39h261v-39q-54 -2 -77.5 -16t-23.5 -57v-355q0 -118 -77 -181t-192 -63q-130 0 -204 61.5t-74 184.5v353q0 43 -23.5 57t-78.5 16v39h300v-39q-54 -2 -77.5 -16t-23.5 -57z
" />
    <glyph glyph-name="V" unicode="V" horiz-adv-x="714" 
d="M388 133l177 446q11 27 11 40q0 23 -20.5 32.5t-73.5 11.5v39h227v-39q-25 -3 -39 -10.5t-22 -26.5l-265 -635h-30l-287 635q-13 30 -61 37v39h267v-39q-52 -2 -72.5 -11t-20.5 -32q0 -15 11 -40z" />
    <glyph glyph-name="W" unicode="W" horiz-adv-x="961" 
d="M669 148l152 431q11 33 11 40q0 23 -20.5 32.5t-73.5 11.5v39h218v-39q-17 -3 -26 -5t-19 -10t-15 -22l-230 -635h-29l-153 431l-152 -431h-29l-237 635q-12 30 -61 37v39h266v-39q-52 -2 -72.5 -11t-20.5 -32q0 -10 10 -40l153 -432l118 346l-45 132q-5 14 -15.5 22
t-19 10t-26.5 5v39h256v-39q-53 -2 -73.5 -11t-20.5 -32q0 -10 10 -40z" />
    <glyph glyph-name="X" unicode="X" horiz-adv-x="711" 
d="M599 613l-192 -244l206 -280q36 -50 93 -50v-39h-292v39q57 0 72.5 6.5t15.5 24.5q0 15 -27 52l-136 188l-147 -185q-27 -34 -27 -54q0 -18 16 -25t74 -7v-39h-250v39q31 0 50 10t42 40l210 265l-191 259q-36 50 -92 50v39h295v-39q-56 0 -73 -6.5t-17 -23.5
q0 -19 28 -56l117 -164l130 164q27 36 27 56q0 17 -17 23.5t-73 6.5v39h250v-39q-31 0 -50 -10t-42 -40z" />
    <glyph glyph-name="Y" unicode="Y" horiz-adv-x="663" 
d="M350 334l157 246q17 29 17 46q0 20 -19 27.5t-72 9.5v39h225v-39q-42 -6 -61 -37l-221 -343v-171q0 -43 23.5 -57t77.5 -16v-39h-298v39q55 2 78.5 16t23.5 57v170l-215 344q-19 31 -61 37v39h265v-39q-52 -2 -71.5 -9.5t-19.5 -27.5q0 -18 18 -46z" />
    <glyph glyph-name="Z" unicode="Z" horiz-adv-x="620" 
d="M155 47h242q26 0 46.5 7t33.5 15t30 32.5t25.5 40t30.5 56.5h33l-33 -198h-538v25l427 629h-223q-57 0 -80.5 -25t-61.5 -112h-29v185h521v-26z" />
    <glyph glyph-name="bracketleft" unicode="[" horiz-adv-x="312" 
d="M154 678v-727q0 -36 22.5 -46t90.5 -14v-32h-182v911h182v-32q-68 -4 -90.5 -14t-22.5 -46z" />
    <glyph glyph-name="backslash" unicode="\" horiz-adv-x="397" 
d="M316 -141l-278 911h62l278 -911h-62z" />
    <glyph glyph-name="bracketright" unicode="]" horiz-adv-x="312" 
d="M158 -49v727q0 36 -22.5 46t-90.5 14v32h182v-911h-182v32q68 4 90.5 14t22.5 46z" />
    <glyph glyph-name="asciicircum" unicode="^" horiz-adv-x="462" 
d="M195 770h72l155 -290h-67l-124 235l-124 -235h-67z" />
    <glyph glyph-name="underscore" unicode="_" horiz-adv-x="440" 
d="M420 -120h-400v54h400v-54z" />
    <glyph glyph-name="grave" unicode="`" horiz-adv-x="500" 
d="M155 761h116l74 -169h-39z" />
    <glyph glyph-name="a" unicode="a" horiz-adv-x="535" 
d="M219 60q62 0 123 45v179l-142 -54q-61 -23 -61 -81q0 -43 21 -66t59 -23zM435 372q0 -15 -1.5 -120.5t-1.5 -127.5q0 -68 46 -68q24 0 47 6l5 -24q-48 -48 -100 -48q-70 0 -85 91q-80 -91 -167 -91q-65 0 -99 38.5t-34 96.5q0 33 11.5 58.5t34.5 42.5t43 26.5t50 20.5
l158 57v49q0 113 -99 113q-82 0 -82 -74q0 -24 7 -52l-75 -10q-21 21 -21 54q0 60 53 95t137 35q173 0 173 -168z" />
    <glyph glyph-name="b" unicode="b" horiz-adv-x="593" 
d="M83 655l-73 35v21l140 50h25v-308q67 87 170 87q99 0 153.5 -71t54.5 -179q0 -135 -73.5 -217.5t-182.5 -82.5q-136 0 -214 67v598zM304 36q70 0 113.5 58t43.5 154q0 94 -39 159.5t-117 65.5q-84 0 -130 -49v-249q0 -139 129 -139z" />
    <glyph glyph-name="c" unicode="c" horiz-adv-x="506" 
d="M124 286q0 -100 47 -160t130 -60q92 0 152 85l18 -10q-21 -75 -73.5 -113t-129.5 -38q-102 0 -165 72.5t-63 185.5q0 122 71.5 207t184.5 85q79 0 124 -33t45 -90q0 -42 -40 -60h-51v34q0 44 -23 71.5t-68 27.5q-70 0 -114.5 -58t-44.5 -146z" />
    <glyph glyph-name="d" unicode="d" horiz-adv-x="619" 
d="M418 -10v89q-69 -89 -165 -89q-99 0 -156 71.5t-57 178.5q0 136 72 218t180 82q87 0 126 -55v170l-73 35v21l141 50h24v-653q0 -25 11 -33.5t46 -12.5l26 -3v-34l-160 -35h-15zM289 494q-70 0 -113.5 -60t-43.5 -157q0 -92 40 -155t116 -63q82 0 130 51v245
q0 69 -34.5 104t-94.5 35z" />
    <glyph glyph-name="e" unicode="e" horiz-adv-x="522" 
d="M280 540q97 0 149 -61t52 -162v-31h-358q0 -99 49.5 -159.5t133.5 -60.5q94 0 159 86l17 -9q-19 -69 -73.5 -111t-136.5 -42q-106 0 -169 73.5t-63 184.5q0 130 67.5 211t172.5 81zM265 491q-57 0 -94.5 -45.5t-43.5 -111.5h262q0 73 -32 115t-92 42z" />
    <glyph glyph-name="f" unicode="f" horiz-adv-x="361" 
d="M209 477v-381q0 -35 18.5 -44.5t78.5 -16.5v-35h-266v35q28 4 41 7.5t24.5 15.5t11.5 34v385h-74v33l74 26v18q0 95 50.5 153.5t139.5 58.5q52 0 83 -20.5t31 -57.5q0 -34 -32 -52h-50v26q0 64 -55 64q-75 0 -75 -146v-50h132v-53h-132z" />
    <glyph glyph-name="g" unicode="g" horiz-adv-x="544" 
d="M255 189q-49 0 -91 15q-42 -43 -42 -74q0 -32 37 -32h226q144 0 144 -117q0 -84 -82 -136t-210 -52q-107 0 -164.5 31.5t-57.5 92.5q0 27 15 48t32 31.5t46 24.5q-57 20 -57 73q0 63 92 120q-88 45 -88 145q0 83 56.5 132t145.5 49q46 0 89 -18l181 13v-68h-37l-103 23
v-5q69 -44 69 -121q0 -79 -55 -127t-146 -48zM367 12h-244q-26 -27 -26 -64q0 -107 159 -107q88 0 141.5 29t53.5 83q0 35 -20.5 47t-63.5 12zM265 228q50 0 76 35t26 93q0 61 -32 101.5t-87 40.5q-49 0 -75 -35t-26 -93q0 -60 31.5 -101t86.5 -41z" />
    <glyph glyph-name="h" unicode="h" horiz-adv-x="636" 
d="M202 761v-319q46 46 90.5 72t100.5 26q140 0 140 -164v-284q0 -22 11.5 -34t25 -15.5t41.5 -7.5v-35h-247v35q28 4 41 7.5t24.5 15.5t11.5 34v277q0 53 -22 75t-71 22q-77 0 -146 -53v-321q0 -22 11.5 -34t24.5 -15.5t41 -7.5v-35h-247v35q28 4 41.5 7.5t25 15.5t11.5 34
v563l-73 35v21l140 50h25z" />
    <glyph glyph-name="i" unicode="i" horiz-adv-x="321" 
d="M209 540v-448q0 -17 5 -27.5t17.5 -16t23 -8t31.5 -5.5v-35h-246v35q28 4 41 7.5t24.5 15.5t11.5 34v342l-72 35v21l139 50h25zM159 611q-27 0 -46 19.5t-19 47.5t19 47.5t46 19.5t46 -19.5t19 -47.5t-19 -47.5t-46 -19.5z" />
    <glyph glyph-name="j" unicode="j" horiz-adv-x="270" 
d="M191 540v-454q0 -61 -4.5 -94.5t-20.5 -66.5q-30 -59 -133 -133l-23 25l32 41q36 46 46.5 89.5t10.5 122.5v364l-73 35v21l141 50h24zM141 611q-27 0 -46 19.5t-19 47.5t19 47.5t46 19.5t46 -19.5t19 -47.5t-19 -47.5t-46 -19.5z" />
    <glyph glyph-name="k" unicode="k" horiz-adv-x="568" 
d="M212 283l166 158q16 16 16 27t-14 16t-62 11v35h227v-35q-51 -11 -80 -38l-158 -147l257 -283v-27h-101zM202 761v-669q0 -22 11.5 -34t24.5 -15.5t41 -7.5v-35h-247v35q28 4 41.5 7.5t25 15.5t11.5 34v563l-73 35v21l140 50h25z" />
    <glyph glyph-name="l" unicode="l" horiz-adv-x="313" 
d="M202 761v-669q0 -22 11.5 -34t24.5 -15.5t41 -7.5v-35h-247v35q28 4 41.5 7.5t25 15.5t11.5 34v563l-73 35v21l140 50h25z" />
    <glyph glyph-name="m" unicode="m" horiz-adv-x="948" 
d="M923 0h-247v35q28 4 41.5 7.5t25 15.5t11.5 34v277q0 54 -19.5 75.5t-66.5 21.5q-73 0 -140 -53v-321q0 -22 11.5 -34t24.5 -15.5t41 -7.5v-35h-247v35q28 4 41.5 7.5t25 15.5t11.5 34v277q0 54 -19.5 75.5t-66.5 21.5q-74 0 -141 -53v-321q0 -17 5 -27.5t17.5 -16t23 -8
t31.5 -5.5v-35h-246v35q28 4 41 7.5t24.5 15.5t11.5 34v342l-72 35v21l139 50h25v-98q47 46 89.5 72t96.5 26q105 0 127 -101q103 101 191 101q133 0 133 -164v-284q0 -22 11.5 -34t24.5 -15.5t41 -7.5v-35z" />
    <glyph glyph-name="n" unicode="n" horiz-adv-x="644" 
d="M449 92v277q0 53 -22 75t-71 22q-80 0 -147 -53v-321q0 -17 5 -27.5t17.5 -16t23 -8t31.5 -5.5v-35h-246v35q28 4 41 7.5t24.5 15.5t11.5 34v342l-72 35v21l139 50h25v-98q46 45 91 71.5t101 26.5q140 0 140 -164v-284q0 -22 11.5 -34t25 -15.5t41.5 -7.5v-35h-247v35
q28 4 41 7.5t24.5 15.5t11.5 34z" />
    <glyph glyph-name="o" unicode="o" horiz-adv-x="572" 
d="M295 42q69 0 105 58t36 157q0 98 -43 164.5t-116 66.5q-69 0 -105 -58t-36 -157q0 -98 43 -164.5t116 -66.5zM283 -10q-110 0 -176.5 74t-66.5 191q0 126 72 205.5t177 79.5q110 0 176.5 -74t66.5 -191q0 -126 -72 -205.5t-177 -79.5z" />
    <glyph glyph-name="p" unicode="p" horiz-adv-x="612" 
d="M194 45v-150q0 -22 11.5 -34t25 -15.5t41.5 -7.5v-35h-248v35q28 4 41.5 7.5t25 15.5t11.5 34v539l-73 35v21l141 50h24v-87q69 87 171 87q98 0 152.5 -71t54.5 -179q0 -135 -72 -217.5t-175 -82.5q-93 0 -131 55zM323 36q70 0 113.5 58t43.5 154q0 94 -39 159.5
t-117 65.5q-84 0 -130 -49v-249q0 -68 34.5 -103.5t94.5 -35.5z" />
    <glyph glyph-name="q" unicode="q" horiz-adv-x="591" 
d="M296 540q97 0 145 -56l52 64h25l-8 -112v-541q0 -22 11.5 -34t25 -15.5t41.5 -7.5v-35h-247v35q28 4 41 7.5t24.5 15.5t11.5 34v184q-69 -89 -165 -89q-99 0 -156 71.5t-57 178.5q0 136 72.5 218t183.5 82zM289 494q-70 0 -113.5 -60t-43.5 -157q0 -92 40 -155t116 -63
q82 0 130 51v245q0 139 -129 139z" />
    <glyph glyph-name="r" unicode="r" horiz-adv-x="412" 
d="M209 540v-158q54 97 81 127.5t70 30.5q25 0 37 -14v-89h-21q-52 0 -86.5 -16t-80.5 -71v-254q0 -35 18.5 -44.5t78.5 -16.5v-35h-266v35q28 4 41 7.5t24.5 15.5t11.5 34v342l-72 35v21l138 50h26z" />
    <glyph glyph-name="s" unicode="s" horiz-adv-x="451" 
d="M227 -10q-116 0 -181 49l-6 133h37q32 -137 151 -137q48 0 75 21.5t27 60.5q0 46 -30.5 69t-105.5 46q-74 23 -111 58t-37 99q0 67 47 109t125 42q91 0 165 -42v-124h-38q-21 120 -130 120q-40 0 -63.5 -22.5t-23.5 -56.5q0 -40 28.5 -64.5t89.5 -43.5q87 -27 127 -59.5
t40 -102.5q0 -67 -50.5 -111t-135.5 -44z" />
    <glyph glyph-name="t" unicode="t" horiz-adv-x="370" 
d="M180 644v-114h153v-53h-153v-350q0 -41 18.5 -57.5t60.5 -16.5q47 0 91 22l10 -22q-58 -63 -152 -63q-119 0 -119 118v369h-74v30q79 49 139 137h26z" />
    <glyph glyph-name="u" unicode="u" horiz-adv-x="629" 
d="M425 -10v98q-33 -31 -53.5 -48t-57.5 -33.5t-75 -16.5q-141 0 -141 164v275q0 27 -12 37t-48 15l-16 2v34l153 23h15v-372q0 -54 22.5 -79t70.5 -25q73 0 142 53v312q0 27 -12 37t-48 15l-16 2v34l152 23h16v-432q0 -25 11 -33.5t45 -12.5l26 -3v-34l-160 -35h-14z" />
    <glyph glyph-name="v" unicode="v" horiz-adv-x="553" 
d="M548 530v-35q-35 -13 -43.5 -18.5t-15.5 -21.5l-198 -465h-22l-205 465q-7 16 -16 21.5t-43 18.5v35h234v-35q-42 -6 -57 -12.5t-15 -23.5q0 -10 7 -27l122 -305l125 305q7 18 7 27q0 17 -15 23.5t-57 12.5v35h192z" />
    <glyph glyph-name="w" unicode="w" horiz-adv-x="793" 
d="M558 137l106 295q6 18 6 27q0 17 -14.5 23.5t-55.5 12.5v35h188v-35q-35 -12 -43.5 -18t-14.5 -22l-174 -465h-25l-132 353l-134 -353h-24l-179 465q-6 16 -15 22.5t-42 17.5v35h226v-35q-41 -6 -55.5 -12.5t-14.5 -23.5q0 -11 7 -30l106 -290l99 268l-17 48
q-6 16 -15.5 22.5t-43.5 17.5v35h223v-35q-42 -6 -56.5 -12.5t-14.5 -23.5q0 -11 7 -30z" />
    <glyph glyph-name="x" unicode="x" horiz-adv-x="542" 
d="M75 75l149 192l-138 188q-14 19 -27.5 27.5t-39.5 12.5v35h232v-35q-39 -4 -50 -9t-11 -18q0 -9 17 -32l86 -118l83 118q14 17 14 29q0 13 -9.5 17.5t-47.5 12.5v35h187v-35q-47 -12 -70 -40l-131 -173l151 -207q15 -19 28.5 -27.5t38.5 -12.5v-35h-231v35q39 4 50 9
t11 18q0 9 -17 32l-100 137l-98 -137q-13 -20 -13 -29q0 -13 9.5 -17.5t47.5 -12.5v-35h-191v35q46 12 70 40z" />
    <glyph glyph-name="y" unicode="y" horiz-adv-x="561" 
d="M262 -3l-198 458q-7 16 -16 21.5t-43 18.5v35h234v-35q-42 -6 -57 -12.5t-15 -23.5q0 -12 7 -27l132 -326l123 326q7 18 7 27q0 17 -15 23.5t-57 12.5v35h192v-35q-35 -13 -44 -18.5t-15 -21.5l-221 -557q-20 -52 -47 -78.5t-70 -26.5q-50 0 -77 36v46h52q48 0 70.5 14
t37.5 55z" />
    <glyph glyph-name="z" unicode="z" horiz-adv-x="500" 
d="M37 0v22l310 463h-162q-36 0 -54 -24t-38 -94h-41v163h406v-26l-305 -459h155q42 0 72 29.5t48 99.5h41l-18 -174h-414z" />
    <glyph glyph-name="braceleft" unicode="{" horiz-adv-x="341" 
d="M50 307v16q83 17 83 100v219q0 58 45.5 93t117.5 35v-27q-91 -12 -91 -98v-218q0 -50 -20 -73.5t-71 -38.5q51 -15 71 -38.5t20 -73.5v-218q0 -86 91 -98v-27q-72 0 -117.5 35t-45.5 93v219q0 83 -83 100z" />
    <glyph glyph-name="bar" unicode="|" horiz-adv-x="257" 
d="M157 770v-911h-57v911h57z" />
    <glyph glyph-name="braceright" unicode="}" horiz-adv-x="341" 
d="M291 323v-16q-83 -17 -83 -100v-219q0 -58 -45.5 -93t-117.5 -35v27q91 12 91 98v218q0 50 20 73.5t71 38.5q-51 15 -71 38.5t-20 73.5v218q0 86 -91 98v27q72 0 117.5 -35t45.5 -93v-219q0 -83 83 -100z" />
    <glyph glyph-name="asciitilde" unicode="~" horiz-adv-x="511" 
d="M422 404l39 -6q-21 -63 -52.5 -93t-77.5 -30q-33 0 -90 29.5t-83 29.5q-24 0 -38 -10.5t-31 -42.5l-39 6q21 63 52.5 93t77.5 30q32 0 89 -29.5t84 -29.5q24 0 38 10.5t31 42.5z" />
    <glyph glyph-name="uni00A0" unicode="&#xa0;" horiz-adv-x="225" 
 />
    <glyph glyph-name="exclamdown" unicode="&#xa1;" horiz-adv-x="292" 
d="M73 467q0 31 21 52t52 21t52 -21t21 -52t-21 -52t-52 -21t-52 21t-21 52zM168 327l43 -499h-131l43 499h45z" />
    <glyph glyph-name="cent" unicode="&#xa2;" horiz-adv-x="517" 
d="M166 -108l24 112q-72 26 -113.5 91.5t-41.5 153.5q0 125 72 208t195 83h1l29 132h44l-29 -135q62 -9 98 -40.5t36 -79.5q0 -46 -43 -64h-48v34q0 73 -55 94l-86 -407q30 -8 62 -8q97 0 160 85l19 -10q-23 -75 -78 -113t-136 -38q-26 0 -45 4l-21 -102h-44zM121 286
q0 -140 87 -194l85 398h-11q-71 0 -116 -56t-45 -148z" />
    <glyph glyph-name="sterling" unicode="&#xa3;" horiz-adv-x="656" 
d="M104 341v43h113l13 82q20 126 80.5 186t153.5 60q66 0 104.5 -26t38.5 -73q0 -48 -35 -64h-60v36q0 39 -14 59.5t-51 20.5q-47 0 -72 -47.5t-41 -146.5l-15 -87h165v-43h-172l-20 -124q-6 -36 -16 -70q109 -63 195 -63q54 0 82 23.5t28 84.5h24q21 -29 21 -73
q0 -129 -141 -129q-63 0 -125 30.5t-108 72.5q-52 -103 -136 -103q-50 0 -75.5 26.5t-25.5 69.5q0 46 31 75t80 29q32 0 60 -9l24 160h-106zM109 39q51 0 68 91q-29 13 -54 13q-29 0 -43.5 -16t-14.5 -41q0 -22 12 -34.5t32 -12.5z" />
    <glyph glyph-name="currency" unicode="&#xa4;" horiz-adv-x="582" 
d="M60 152l72 73q-38 51 -38 120q0 70 39 121l-73 72l39 38l72 -72q52 38 120 38t120 -38l72 71l38 -38l-72 -72q39 -52 39 -120q0 -67 -39 -121l73 -71l-39 -38l-72 71q-52 -38 -120 -38q-67 0 -121 38l-72 -72zM148 345q0 -65 41 -108t102 -43t102 43t41 108t-41 108
t-102 43t-102 -43t-41 -108z" />
    <glyph glyph-name="yen" unicode="&#xa5;" horiz-adv-x="663" 
d="M91 317v43h145l-156 266q-17 31 -62 37v39h273v-39q-52 -1 -71 -9.5t-19 -29.5q0 -17 15 -44l135 -241l137 241q15 26 15 44q0 21 -18.5 29.5t-71.5 9.5v39h232v-39q-44 -6 -62 -37l-161 -266h148v-43h-174l-20 -34v-37h194v-44h-194v-90q0 -43 24 -57t79 -16v-39h-301
v39q56 2 80 16t24 57v90h-191v44h191v36l-21 35h-170z" />
    <glyph glyph-name="brokenbar" unicode="&#xa6;" horiz-adv-x="257" 
d="M157 770v-376h-57v376h57zM157 235v-376h-57v376h57z" />
    <glyph glyph-name="section" unicode="&#xa7;" horiz-adv-x="519" 
d="M223 -202q-67 0 -107.5 25.5t-40.5 65.5q0 35 38 51h60v-16q0 -35 22.5 -58.5t61.5 -23.5q38 0 59.5 18.5t21.5 49.5q0 25 -16.5 58t-36.5 59t-55 69.5t-53 68.5q-121 165 -121 308q0 108 67 173.5t173 65.5q67 0 107.5 -25.5t40.5 -65.5q0 -35 -38 -51h-60v16
q0 35 -22.5 58.5t-61.5 23.5q-38 0 -59.5 -18.5t-21.5 -49.5q0 -25 16.5 -58t36.5 -59t55 -69.5t53 -68.5q121 -165 121 -308q0 -108 -67 -173.5t-173 -65.5zM385 -96q30 47 30 133q0 128 -119 286q-6 8 -41 54t-47 63.5t-34.5 53t-31 62t-8.5 50.5q-30 -47 -30 -133
q0 -128 119 -286q6 -8 41 -54t47 -63.5t34.5 -53t31 -62t8.5 -50.5z" />
    <glyph glyph-name="dieresis" unicode="&#xa8;" horiz-adv-x="500" 
d="M94 677q0 25 18 42.5t43 17.5t43 -17.5t18 -42.5q0 -26 -17.5 -44t-43.5 -18t-43.5 18t-17.5 44zM284 677q0 25 18 42.5t43 17.5t43 -17.5t18 -42.5q0 -26 -17.5 -44t-43.5 -18t-43.5 18t-17.5 44z" />
    <glyph glyph-name="copyright" unicode="&#xa9;" horiz-adv-x="796" 
d="M82 351q0 -135 89.5 -228.5t226.5 -93.5t226.5 93.5t89.5 228.5t-89.5 228.5t-226.5 93.5t-226.5 -93.5t-89.5 -228.5zM40 351q0 151 101.5 256t256.5 105t256.5 -105t101.5 -256t-101.5 -256t-256.5 -105t-256.5 105t-101.5 256zM416 180q41 0 62.5 25.5t40.5 79.5h31
l-9 -108q-70 -35 -136 -35q-87 0 -142.5 57t-55.5 145q0 100 59.5 160t147.5 60q75 0 126 -40v-95h-30q-21 97 -95 97q-62 0 -94 -46t-32 -118q0 -80 33.5 -131t93.5 -51z" />
    <glyph glyph-name="ordfeminine" unicode="&#xaa;" horiz-adv-x="436" 
d="M183 369q39 0 83 32v132l-88 -37q-50 -21 -50 -66q0 -28 14.5 -44.5t40.5 -16.5zM346 598q0 -17 -1.5 -91.5t-1.5 -90.5q0 -49 34 -49q20 0 36 4l3 -21q-35 -35 -85 -35q-51 0 -63 66q-64 -66 -125 -66q-47 0 -72.5 28t-25.5 71q0 25 8.5 43.5t25.5 31.5t32 20t37 15
l118 42v37q0 83 -64 83q-58 0 -58 -54q0 -15 5 -38l-68 -8q-17 17 -17 40q0 44 40 70t102 26q68 0 104 -31.5t36 -92.5z" />
    <glyph glyph-name="guillemotleft" unicode="&#xab;" horiz-adv-x="477" 
d="M45 269v10l161 190h47l-115 -195l115 -195h-47zM224 269v10l161 190h47l-115 -195l115 -195h-47z" />
    <glyph glyph-name="registered" unicode="&#xae;" horiz-adv-x="555" 
d="M274 584h-26v-94h26q26 0 40 13t14 36q0 45 -54 45zM174 606h108q44 0 68 -18.5t24 -48.5q0 -25 -18 -42.5t-42 -22.5l40 -55q21 -29 42 -29v-19h-51q-17 12 -38 43l-37 55h-22v-55q0 -14 6.5 -19t22.5 -5v-19h-103v19q17 0 23.5 4.5t6.5 19.5v148q0 15 -6 19t-24 6v19z
M87 484q0 -79 54.5 -136t135.5 -57q82 0 136.5 57t54.5 136q0 80 -54.5 137t-136.5 57q-81 0 -135.5 -57.5t-54.5 -136.5zM50 484q0 96 64.5 162t162.5 66q99 0 163.5 -66t64.5 -162q0 -95 -65 -161t-163 -66t-162.5 66t-64.5 161z" />
    <glyph glyph-name="macron" unicode="&#xaf;" horiz-adv-x="500" 
d="M119 623v58h262v-58h-262z" />
    <glyph glyph-name="degree" unicode="&#xb0;" horiz-adv-x="367" 
d="M85 561q0 -45 27 -74t71 -29q45 0 72 29t27 74q0 46 -27 75t-72 29q-44 0 -71 -29t-27 -75zM30 561q0 64 44 107.5t109 43.5t109.5 -43.5t44.5 -107.5t-44.5 -107t-109.5 -43t-109 43t-44 107z" />
    <glyph glyph-name="plusminus" unicode="&#xb1;" horiz-adv-x="564" 
d="M251 602h61v-143h189v-61h-189v-142h-61v142h-188v61h188v143zM63 144v61h438v-61h-438z" />
    <glyph glyph-name="twosuperior" unicode="&#xb2;" horiz-adv-x="407" 
d="M125 362h113q40 0 58 11.5t42 55.5h24l-16 -142h-321v24l118 117q61 60 85 97.5t24 74.5q0 39 -23.5 60.5t-63.5 21.5q-23 0 -45.5 -10t-34 -19t-30.5 -27l-16 17q24 46 65 75.5t94 29.5q66 0 102.5 -34t36.5 -94q0 -27 -9 -51t-34.5 -53t-41.5 -44.5t-62.5 -54.5
t-64.5 -55z" />
    <glyph glyph-name="threesuperior" unicode="&#xb3;" horiz-adv-x="406" 
d="M221 537q61 -7 98 -41t37 -86q0 -62 -49.5 -97t-119.5 -35q-71 0 -111.5 28.5t-40.5 68.5q0 32 28 47h50v-23q0 -87 81 -87q37 0 58.5 23.5t21.5 67.5q0 93 -115 93h-24l-3 24q63 23 93 45t30 56q0 29 -19.5 46.5t-56.5 17.5q-62 0 -99 -67l-26 17q21 48 61.5 78.5
t96.5 30.5q57 0 90 -27.5t33 -70.5q0 -72 -114 -109z" />
    <glyph glyph-name="acute" unicode="&#xb4;" horiz-adv-x="500" 
d="M229 761h116l-151 -169h-39z" />
    <glyph glyph-name="mu" unicode="&#xb5;" horiz-adv-x="629" 
d="M178 25l12 -186v-26l-92 -10v626q0 27 -12 37t-48 15l-16 2v34l153 23h15v-372q0 -54 22.5 -79t70.5 -25q73 0 142 53v312q0 27 -12 37t-48 15l-16 2v34l152 23h16v-432q0 -25 11 -33.5t45 -12.5l26 -3v-34l-160 -35h-14v98q-32 -31 -53 -48t-55 -33.5t-68 -16.5
q-24 0 -44 10.5t-27 24.5z" />
    <glyph glyph-name="paragraph" unicode="&#xb6;" horiz-adv-x="620" 
d="M323 -197v421q-128 0 -195.5 68t-67.5 176q0 106 67 170t196 64h273v-39q-54 -2 -78 -16t-24 -57v-787h-52v861h-67v-861h-52zM323 262v402q-80 0 -117 -56.5t-37 -139.5q0 -85 37.5 -145.5t116.5 -60.5z" />
    <glyph glyph-name="periodcentered" unicode="&#xb7;" horiz-adv-x="256" 
d="M55 301q0 31 21 52t52 21t52 -21t21 -52t-21 -52t-52 -21t-52 21t-21 52z" />
    <glyph glyph-name="cedilla" unicode="&#xb8;" horiz-adv-x="500" 
d="M163 -221l-6 33q117 0 117 46q0 42 -93 45l43 105h32l-22 -56q109 -2 109 -74q0 -49 -50.5 -74t-129.5 -25z" />
    <glyph glyph-name="onesuperior" unicode="&#xb9;" horiz-adv-x="376" 
d="M213 748h21v-381q0 -28 19.5 -36t77.5 -11v-33h-276v33q59 3 78 11t19 36v268h-97v28l29 5q44 7 71.5 25t57.5 55z" />
    <glyph glyph-name="ordmasculine" unicode="&#xba;" horiz-adv-x="444" 
d="M232 355q44 0 66.5 43t22.5 115q0 71 -28.5 120t-78.5 49q-44 0 -67.5 -43t-23.5 -115q0 -71 29 -120t80 -49zM220 315q-85 0 -135 54.5t-50 142.5q0 94 53 152t136 58q85 0 135 -54.5t50 -142.5q0 -95 -52.5 -152.5t-136.5 -57.5z" />
    <glyph glyph-name="guillemotright" unicode="&#xbb;" horiz-adv-x="477" 
d="M253 279v-10l-161 -190h-47l115 195l-115 195h47zM432 279v-10l-161 -190h-47l115 195l-115 195h47z" />
    <glyph glyph-name="onequarter" unicode="&#xbc;" horiz-adv-x="890" 
d="M513 92h164v198zM761 -71h-84v119h-226v34l255 305h55v-295h79v-44h-79v-119zM213 748h21v-381q0 -28 19.5 -36t77.5 -11v-33h-276v33q59 3 78 11t19 36v268h-97v28l29 5q44 7 71.5 25t57.5 55zM212 0l449 741h60l-450 -741h-59z" />
    <glyph glyph-name="onehalf" unicode="&#xbd;" horiz-adv-x="892" 
d="M213 748h21v-381q0 -28 19.5 -36t77.5 -11v-33h-276v33q59 3 78 11t19 36v268h-97v28l29 5q44 7 71.5 25t57.5 55zM212 0l449 741h60l-450 -741h-59zM611 3h112q41 0 58.5 11t41.5 56h24l-16 -142h-320v23l117 118q62 63 86 99.5t24 72.5q0 39 -23.5 60.5t-64.5 21.5
q-23 0 -45.5 -10t-34 -19t-30.5 -27l-16 17q24 45 65 75t94 30q66 0 102.5 -34t36.5 -94q0 -23 -8.5 -45.5t-19.5 -40t-35 -41.5t-41.5 -39t-52 -44.5t-54.5 -47.5z" />
    <glyph glyph-name="threequarters" unicode="&#xbe;" horiz-adv-x="902" 
d="M221 537q61 -7 98 -41t37 -86q0 -62 -49.5 -97t-119.5 -35q-71 0 -111.5 28.5t-40.5 68.5q0 32 28 47h50v-23q0 -87 81 -87q37 0 58.5 23.5t21.5 67.5q0 93 -115 93h-24l-3 24q63 23 93 45t30 56q0 29 -19.5 46.5t-56.5 17.5q-62 0 -99 -67l-26 17q21 48 61.5 78.5
t96.5 30.5q57 0 90 -27.5t33 -70.5q0 -72 -114 -109zM525 92h164v198zM773 -71h-84v119h-226v34l255 305h55v-295h79v-44h-79v-119zM224 0l449 741h60l-450 -741h-59z" />
    <glyph glyph-name="questiondown" unicode="&#xbf;" horiz-adv-x="438" 
d="M134 -40q0 -44 27 -70t75 -26q88 0 88 94v37h80q21 -19 21 -48q0 -55 -55 -92.5t-132 -37.5q-91 0 -144 42.5t-53 124.5q0 58 30.5 101.5t90.5 88.5q42 30 59.5 58.5t17.5 71.5v32h29q29 -52 29 -90q0 -81 -79 -146q-31 -25 -44.5 -39t-26.5 -41t-13 -60zM327 466
q0 -31 -21 -52t-52 -21t-52 21t-21 52t21 52t52 21t52 -21t21 -52z" />
    <glyph glyph-name="Agrave" unicode="&#xc0;" horiz-adv-x="723" 
d="M532 122l-47 110h-295l-44 -109q-11 -27 -11 -40q0 -23 21 -32.5t73 -11.5v-39h-224v39q49 7 61 37l237 569l-31 66h111l275 -635q8 -19 21.5 -26.5t38.5 -10.5v-39h-268v39q52 2 72.5 11t20.5 32q0 12 -11 40zM335 589l-127 -313h259zM180 910h120l74 -149h-39z" />
    <glyph glyph-name="Aacute" unicode="&#xc1;" horiz-adv-x="723" 
d="M532 122l-47 110h-295l-44 -109q-11 -27 -11 -40q0 -23 21 -32.5t73 -11.5v-39h-224v39q49 7 61 37l237 569l-31 66h111l275 -635q8 -19 21.5 -26.5t38.5 -10.5v-39h-268v39q52 2 72.5 11t20.5 32q0 12 -11 40zM335 589l-127 -313h259zM386 910h120l-155 -149h-39z" />
    <glyph glyph-name="Acircumflex" unicode="&#xc2;" horiz-adv-x="723" 
d="M532 122l-47 110h-295l-44 -109q-11 -27 -11 -40q0 -23 21 -32.5t73 -11.5v-39h-224v39q49 7 61 37l237 569l-31 66h111l275 -635q8 -19 21.5 -26.5t38.5 -10.5v-39h-268v39q52 2 72.5 11t20.5 32q0 12 -11 40zM335 589l-127 -313h259zM379 920l150 -159h-46l-138 90
l-138 -90h-46l150 159h68z" />
    <glyph glyph-name="Atilde" unicode="&#xc3;" horiz-adv-x="723" 
d="M532 122l-47 110h-295l-44 -109q-11 -27 -11 -40q0 -23 21 -32.5t73 -11.5v-39h-224v39q49 7 61 37l237 569l-31 66h111l275 -635q8 -19 21.5 -26.5t38.5 -10.5v-39h-268v39q52 2 72.5 11t20.5 32q0 12 -11 40zM335 589l-127 -313h259zM497 890l37 -10q-33 -72 -57.5 -96
t-60.5 -24q-32 0 -80 36t-67 36q-21 0 -33.5 -13t-31.5 -49l-37 10q33 72 57.5 96t60.5 24q32 0 80 -36t67 -36q21 0 33.5 13t31.5 49z" />
    <glyph glyph-name="Adieresis" unicode="&#xc4;" horiz-adv-x="723" 
d="M532 122l-47 110h-295l-44 -109q-11 -27 -11 -40q0 -23 21 -32.5t73 -11.5v-39h-224v39q49 7 61 37l237 569l-31 66h111l275 -635q8 -19 21.5 -26.5t38.5 -10.5v-39h-268v39q52 2 72.5 11t20.5 32q0 12 -11 40zM335 589l-127 -313h259zM184 832q0 25 18 42.5t43 17.5
t43 -17.5t18 -42.5q0 -26 -17.5 -44t-43.5 -18t-43.5 18t-17.5 44zM384 832q0 25 18 42.5t43 17.5t43 -17.5t18 -42.5q0 -26 -17.5 -44t-43.5 -18t-43.5 18t-17.5 44z" />
    <glyph glyph-name="Aring" unicode="&#xc5;" horiz-adv-x="723" 
d="M532 122l-47 110h-295l-44 -109q-11 -27 -11 -40q0 -23 21 -32.5t73 -11.5v-39h-224v39q49 7 61 37l237 569l-31 66h111l275 -635q8 -19 21.5 -26.5t38.5 -10.5v-39h-268v39q52 2 72.5 11t20.5 32q0 12 -11 40zM335 589l-127 -313h259zM252 845q0 39 26 65t67 26t67 -26
t26 -65t-26 -65t-67 -26t-67 26t-26 65zM396 845q0 24 -13 39t-38 15t-38 -15t-13 -39t13 -39t38 -15t38 15t13 39z" />
    <glyph glyph-name="AE" unicode="&#xc6;" horiz-adv-x="1055" 
d="M70 76l390 551q-7 20 -28 27t-70 9v39h618v-167h-27q-28 69 -57.5 95t-87.5 26h-191v-274h170q32 0 48 21.5t24 68.5h34v-226h-34q-8 47 -24 68.5t-48 21.5h-170v-222q0 -39 23 -53.5t78 -14.5h100q27 0 46 5t32.5 11t29.5 26.5t26.5 36t34.5 55.5h28l-30 -180h-566v39
q55 2 78.5 16t23.5 57v140h-264l-91 -130q-17 -24 -17 -48q0 -22 18.5 -27.5t78.5 -7.5v-39h-241v39q42 6 65 37zM521 630l-234 -334h234v334z" />
    <glyph glyph-name="Ccedilla" unicode="&#xc7;" horiz-adv-x="673" 
d="M292 -221l-6 33q117 0 117 46q0 42 -93 45l36 88q-137 9 -220 104.5t-83 240.5q0 171 98 273.5t247 102.5q136 0 216 -63v-153h-36q-38 165 -186 165q-115 0 -173.5 -83t-58.5 -214q0 -143 63.5 -233t180.5 -90q73 0 120 43t77 131h37l-23 -170q-104 -54 -227 -55
l-15 -38q109 -2 109 -74q0 -49 -50 -74t-130 -25z" />
    <glyph glyph-name="Egrave" unicode="&#xc8;" horiz-adv-x="670" 
d="M508 246h-34q-8 47 -24 68.5t-48 21.5h-170v-222q0 -39 23 -53.5t78 -14.5h100q27 0 46 5t32.5 11t29.5 26.5t26.5 36t34.5 55.5h28l-30 -180h-566v39q55 2 78.5 16t23.5 57v478q0 43 -23.5 57t-78.5 16v39h561v-167h-27q-28 69 -57.5 95t-87.5 26h-191v-274h170
q32 0 48 21.5t24 68.5h34v-226zM181 910h120l74 -149h-39z" />
    <glyph glyph-name="Eacute" unicode="&#xc9;" horiz-adv-x="670" 
d="M508 246h-34q-8 47 -24 68.5t-48 21.5h-170v-222q0 -39 23 -53.5t78 -14.5h100q27 0 46 5t32.5 11t29.5 26.5t26.5 36t34.5 55.5h28l-30 -180h-566v39q55 2 78.5 16t23.5 57v478q0 43 -23.5 57t-78.5 16v39h561v-167h-27q-28 69 -57.5 95t-87.5 26h-191v-274h170
q32 0 48 21.5t24 68.5h34v-226zM387 910h120l-155 -149h-39z" />
    <glyph glyph-name="Ecircumflex" unicode="&#xca;" horiz-adv-x="670" 
d="M508 246h-34q-8 47 -24 68.5t-48 21.5h-170v-222q0 -39 23 -53.5t78 -14.5h100q27 0 46 5t32.5 11t29.5 26.5t26.5 36t34.5 55.5h28l-30 -180h-566v39q55 2 78.5 16t23.5 57v478q0 43 -23.5 57t-78.5 16v39h561v-167h-27q-28 69 -57.5 95t-87.5 26h-191v-274h170
q32 0 48 21.5t24 68.5h34v-226zM380 920l150 -159h-46l-138 90l-138 -90h-46l150 159h68z" />
    <glyph glyph-name="Edieresis" unicode="&#xcb;" horiz-adv-x="670" 
d="M508 246h-34q-8 47 -24 68.5t-48 21.5h-170v-222q0 -39 23 -53.5t78 -14.5h100q27 0 46 5t32.5 11t29.5 26.5t26.5 36t34.5 55.5h28l-30 -180h-566v39q55 2 78.5 16t23.5 57v478q0 43 -23.5 57t-78.5 16v39h561v-167h-27q-28 69 -57.5 95t-87.5 26h-191v-274h170
q32 0 48 21.5t24 68.5h34v-226zM185 832q0 25 18 42.5t43 17.5t43 -17.5t18 -42.5q0 -26 -17.5 -44t-43.5 -18t-43.5 18t-17.5 44zM385 832q0 25 18 42.5t43 17.5t43 -17.5t18 -42.5q0 -26 -17.5 -44t-43.5 -18t-43.5 18t-17.5 44z" />
    <glyph glyph-name="Igrave" unicode="&#xcc;" horiz-adv-x="368" 
d="M334 0h-300v39q55 2 78.5 16t23.5 57v478q0 43 -23.5 57t-78.5 16v39h300v-39q-55 -2 -78.5 -16t-23.5 -57v-478q0 -43 23.5 -57t78.5 -16v-39zM19 910h120l74 -149h-39z" />
    <glyph glyph-name="Iacute" unicode="&#xcd;" horiz-adv-x="368" 
d="M334 0h-300v39q55 2 78.5 16t23.5 57v478q0 43 -23.5 57t-78.5 16v39h300v-39q-55 -2 -78.5 -16t-23.5 -57v-478q0 -43 23.5 -57t78.5 -16v-39zM225 910h120l-155 -149h-39z" />
    <glyph glyph-name="Icircumflex" unicode="&#xce;" horiz-adv-x="368" 
d="M334 0h-300v39q55 2 78.5 16t23.5 57v478q0 43 -23.5 57t-78.5 16v39h300v-39q-55 -2 -78.5 -16t-23.5 -57v-478q0 -43 23.5 -57t78.5 -16v-39zM218 920l150 -159h-46l-138 90l-138 -90h-46l150 159h68z" />
    <glyph glyph-name="Idieresis" unicode="&#xcf;" horiz-adv-x="368" 
d="M334 0h-300v39q55 2 78.5 16t23.5 57v478q0 43 -23.5 57t-78.5 16v39h300v-39q-55 -2 -78.5 -16t-23.5 -57v-478q0 -43 23.5 -57t78.5 -16v-39zM23 832q0 25 18 42.5t43 17.5t43 -17.5t18 -42.5q0 -26 -17.5 -44t-43.5 -18t-43.5 18t-17.5 44zM223 832q0 25 18 42.5
t43 17.5t43 -17.5t18 -42.5q0 -26 -17.5 -44t-43.5 -18t-43.5 18t-17.5 44z" />
    <glyph glyph-name="Eth" unicode="&#xd0;" horiz-adv-x="766" 
d="M45 338v43h102v209q0 43 -23.5 57t-78.5 16v39h307q94 0 167 -27t116.5 -73.5t65.5 -105t22 -125.5q0 -174 -101 -272.5t-255 -98.5h-322v39q55 2 78.5 16t23.5 57v226h-102zM333 656h-90v-275h174v-43h-174v-221q0 -42 23 -56.5t79 -14.5h22q117 0 183 78.5t66 224.5
q0 61 -15.5 114t-48 97.5t-89 70t-130.5 25.5z" />
    <glyph glyph-name="Ntilde" unicode="&#xd1;" horiz-adv-x="806" 
d="M136 112v488q-33 39 -50.5 50.5t-51.5 12.5v39h171l416 -527v415q0 43 -23.5 57t-78.5 16v39h262v-39q-55 -2 -78.5 -16t-23.5 -57v-590h-41l-444 555v-443q0 -43 23.5 -57t78.5 -16v-39h-262v39q55 2 78.5 16t23.5 57zM549 890l37 -10q-33 -72 -57.5 -96t-60.5 -24
q-32 0 -80 36t-67 36q-21 0 -33.5 -13t-31.5 -49l-37 10q33 72 57.5 96t60.5 24q32 0 80 -36t67 -36q21 0 33.5 13t31.5 49z" />
    <glyph glyph-name="Ograve" unicode="&#xd2;" horiz-adv-x="748" 
d="M385 45q103 0 158 84.5t55 218.5q0 81 -23 148.5t-78 114t-134 46.5q-103 0 -158 -84.5t-55 -218.5q0 -81 23 -148.5t78 -114t134 -46.5zM377 712q150 0 239 -100.5t89 -246.5q0 -168 -97 -271.5t-237 -103.5q-150 0 -239 100.5t-89 246.5q0 168 97 271.5t237 103.5z
M209 910h120l74 -149h-39z" />
    <glyph glyph-name="Oacute" unicode="&#xd3;" horiz-adv-x="748" 
d="M385 45q103 0 158 84.5t55 218.5q0 81 -23 148.5t-78 114t-134 46.5q-103 0 -158 -84.5t-55 -218.5q0 -81 23 -148.5t78 -114t134 -46.5zM377 712q150 0 239 -100.5t89 -246.5q0 -168 -97 -271.5t-237 -103.5q-150 0 -239 100.5t-89 246.5q0 168 97 271.5t237 103.5z
M415 910h120l-155 -149h-39z" />
    <glyph glyph-name="Ocircumflex" unicode="&#xd4;" horiz-adv-x="748" 
d="M385 45q103 0 158 84.5t55 218.5q0 81 -23 148.5t-78 114t-134 46.5q-103 0 -158 -84.5t-55 -218.5q0 -81 23 -148.5t78 -114t134 -46.5zM377 712q150 0 239 -100.5t89 -246.5q0 -168 -97 -271.5t-237 -103.5q-150 0 -239 100.5t-89 246.5q0 168 97 271.5t237 103.5z
M408 920l150 -159h-46l-138 90l-138 -90h-46l150 159h68z" />
    <glyph glyph-name="Otilde" unicode="&#xd5;" horiz-adv-x="748" 
d="M385 45q103 0 158 84.5t55 218.5q0 81 -23 148.5t-78 114t-134 46.5q-103 0 -158 -84.5t-55 -218.5q0 -81 23 -148.5t78 -114t134 -46.5zM377 712q150 0 239 -100.5t89 -246.5q0 -168 -97 -271.5t-237 -103.5q-150 0 -239 100.5t-89 246.5q0 168 97 271.5t237 103.5z
M521 890l37 -10q-33 -72 -57.5 -96t-60.5 -24q-32 0 -80 36t-67 36q-21 0 -33.5 -13t-31.5 -49l-37 10q33 72 57.5 96t60.5 24q32 0 80 -36t67 -36q21 0 33.5 13t31.5 49z" />
    <glyph glyph-name="Odieresis" unicode="&#xd6;" horiz-adv-x="748" 
d="M385 45q103 0 158 84.5t55 218.5q0 81 -23 148.5t-78 114t-134 46.5q-103 0 -158 -84.5t-55 -218.5q0 -81 23 -148.5t78 -114t134 -46.5zM377 712q150 0 239 -100.5t89 -246.5q0 -168 -97 -271.5t-237 -103.5q-150 0 -239 100.5t-89 246.5q0 168 97 271.5t237 103.5z
M213 832q0 25 18 42.5t43 17.5t43 -17.5t18 -42.5q0 -26 -17.5 -44t-43.5 -18t-43.5 18t-17.5 44zM413 832q0 25 18 42.5t43 17.5t43 -17.5t18 -42.5q0 -26 -17.5 -44t-43.5 -18t-43.5 18t-17.5 44z" />
    <glyph glyph-name="multiply" unicode="&#xd7;" horiz-adv-x="488" 
d="M200 366l-137 138l44 44l136 -139l138 139l44 -44l-138 -138l138 -137l-44 -42l-138 136l-136 -136l-44 42z" />
    <glyph glyph-name="Oslash" unicode="&#xd8;" horiz-adv-x="754" 
d="M655 727l-61 -92q114 -100 114 -270q0 -168 -97 -271.5t-237 -103.5q-99 0 -174 47l-61 -93l-39 23l63 96q-57 48 -87 120t-30 154q0 168 97 271.5t237 103.5q99 0 178 -50l58 88zM153 354q0 -134 59 -217l303 460q-58 60 -149 60q-103 0 -158 -84.5t-55 -218.5zM388 45
q103 0 158 84.5t55 218.5q0 130 -56 213l-303 -460q58 -56 146 -56z" />
    <glyph glyph-name="Ugrave" unicode="&#xd9;" horiz-adv-x="766" 
d="M207 590v-344q0 -93 48.5 -143t134.5 -50q104 0 156.5 48t52.5 153v336q0 43 -23.5 57t-78.5 16v39h261v-39q-54 -2 -77.5 -16t-23.5 -57v-355q0 -118 -77 -181t-192 -63q-130 0 -204 61.5t-74 184.5v353q0 43 -23.5 57t-78.5 16v39h300v-39q-54 -2 -77.5 -16t-23.5 -57z
M238 910h120l74 -149h-39z" />
    <glyph glyph-name="Uacute" unicode="&#xda;" horiz-adv-x="766" 
d="M207 590v-344q0 -93 48.5 -143t134.5 -50q104 0 156.5 48t52.5 153v336q0 43 -23.5 57t-78.5 16v39h261v-39q-54 -2 -77.5 -16t-23.5 -57v-355q0 -118 -77 -181t-192 -63q-130 0 -204 61.5t-74 184.5v353q0 43 -23.5 57t-78.5 16v39h300v-39q-54 -2 -77.5 -16t-23.5 -57z
M444 910h120l-155 -149h-39z" />
    <glyph glyph-name="Ucircumflex" unicode="&#xdb;" horiz-adv-x="766" 
d="M207 590v-344q0 -93 48.5 -143t134.5 -50q104 0 156.5 48t52.5 153v336q0 43 -23.5 57t-78.5 16v39h261v-39q-54 -2 -77.5 -16t-23.5 -57v-355q0 -118 -77 -181t-192 -63q-130 0 -204 61.5t-74 184.5v353q0 43 -23.5 57t-78.5 16v39h300v-39q-54 -2 -77.5 -16t-23.5 -57z
M437 920l150 -159h-46l-138 90l-138 -90h-46l150 159h68z" />
    <glyph glyph-name="Udieresis" unicode="&#xdc;" horiz-adv-x="766" 
d="M207 590v-344q0 -93 48.5 -143t134.5 -50q104 0 156.5 48t52.5 153v336q0 43 -23.5 57t-78.5 16v39h261v-39q-54 -2 -77.5 -16t-23.5 -57v-355q0 -118 -77 -181t-192 -63q-130 0 -204 61.5t-74 184.5v353q0 43 -23.5 57t-78.5 16v39h300v-39q-54 -2 -77.5 -16t-23.5 -57z
M242 832q0 25 18 42.5t43 17.5t43 -17.5t18 -42.5q0 -26 -17.5 -44t-43.5 -18t-43.5 18t-17.5 44zM442 832q0 25 18 42.5t43 17.5t43 -17.5t18 -42.5q0 -26 -17.5 -44t-43.5 -18t-43.5 18t-17.5 44z" />
    <glyph glyph-name="Yacute" unicode="&#xdd;" horiz-adv-x="663" 
d="M350 334l157 246q17 29 17 46q0 20 -19 27.5t-72 9.5v39h225v-39q-42 -6 -61 -37l-221 -343v-171q0 -43 23.5 -57t77.5 -16v-39h-298v39q55 2 78.5 16t23.5 57v170l-215 344q-19 31 -61 37v39h265v-39q-52 -2 -71.5 -9.5t-19.5 -27.5q0 -18 18 -46zM388 910h120
l-155 -149h-39z" />
    <glyph glyph-name="Thorn" unicode="&#xde;" horiz-adv-x="619" 
d="M232 506v-303h73q94 0 138 34.5t44 115.5q0 73 -46 113t-136 40h-73zM232 552h93q136 0 202.5 -55t66.5 -140q0 -91 -64 -145.5t-188 -54.5h-110v-45q0 -42 30 -56t99 -17v-39h-327v39q55 2 78.5 16t23.5 57v478q0 43 -23.5 57t-78.5 16v39h300v-39q-55 -2 -78.5 -16
t-23.5 -57v-38z" />
    <glyph glyph-name="germandbls" unicode="&#xdf;" horiz-adv-x="659" 
d="M392 409q0 -10 4.5 -18.5t16 -17.5t21.5 -15t33.5 -19t38.5 -22q62 -37 90.5 -71t28.5 -93q0 -71 -51 -116.5t-120 -45.5q-98 0 -154 53l-6 133h37q16 -70 43.5 -105.5t77.5 -35.5q42 0 66.5 22.5t24.5 64.5t-25.5 67.5t-89.5 62.5q-55 31 -79 59t-24 72q0 26 18.5 54
t40.5 50t40.5 58t18.5 76q0 104 -101 104q-61 0 -96.5 -47.5t-35.5 -132.5v-546h-170v35q28 4 41 7.5t24.5 15.5t11.5 34v385h-74v33l74 26q0 107 62.5 168.5t170.5 61.5q85 0 131 -37t46 -106q0 -31 -14 -57t-34 -44.5t-39.5 -35.5t-33.5 -36.5t-14 -40.5z" />
    <glyph glyph-name="agrave" unicode="&#xe0;" horiz-adv-x="535" 
d="M219 60q62 0 123 45v179l-142 -54q-61 -23 -61 -81q0 -43 21 -66t59 -23zM435 372q0 -15 -1.5 -120.5t-1.5 -127.5q0 -68 46 -68q24 0 47 6l5 -24q-48 -48 -100 -48q-70 0 -85 91q-80 -91 -167 -91q-65 0 -99 38.5t-34 96.5q0 33 11.5 58.5t34.5 42.5t43 26.5t50 20.5
l158 57v49q0 113 -99 113q-82 0 -82 -74q0 -24 7 -52l-75 -10q-21 21 -21 54q0 60 53 95t137 35q173 0 173 -168zM106 761h116l74 -169h-39z" />
    <glyph glyph-name="aacute" unicode="&#xe1;" horiz-adv-x="535" 
d="M219 60q62 0 123 45v179l-142 -54q-61 -23 -61 -81q0 -43 21 -66t59 -23zM435 372q0 -15 -1.5 -120.5t-1.5 -127.5q0 -68 46 -68q24 0 47 6l5 -24q-48 -48 -100 -48q-70 0 -85 91q-80 -91 -167 -91q-65 0 -99 38.5t-34 96.5q0 33 11.5 58.5t34.5 42.5t43 26.5t50 20.5
l158 57v49q0 113 -99 113q-82 0 -82 -74q0 -24 7 -52l-75 -10q-21 21 -21 54q0 60 53 95t137 35q173 0 173 -168zM304 761h116l-151 -169h-39z" />
    <glyph glyph-name="acircumflex" unicode="&#xe2;" horiz-adv-x="535" 
d="M219 60q62 0 123 45v179l-142 -54q-61 -23 -61 -81q0 -43 21 -66t59 -23zM435 372q0 -15 -1.5 -120.5t-1.5 -127.5q0 -68 46 -68q24 0 47 6l5 -24q-48 -48 -100 -48q-70 0 -85 91q-80 -91 -167 -91q-65 0 -99 38.5t-34 96.5q0 33 11.5 58.5t34.5 42.5t43 26.5t50 20.5
l158 57v49q0 113 -99 113q-82 0 -82 -74q0 -24 7 -52l-75 -10q-21 21 -21 54q0 60 53 95t137 35q173 0 173 -168zM295 765l140 -173h-46l-128 103l-128 -103h-46l140 173h68z" />
    <glyph glyph-name="atilde" unicode="&#xe3;" horiz-adv-x="535" 
d="M219 60q62 0 123 45v179l-142 -54q-61 -23 -61 -81q0 -43 21 -66t59 -23zM435 372q0 -15 -1.5 -120.5t-1.5 -127.5q0 -68 46 -68q24 0 47 6l5 -24q-48 -48 -100 -48q-70 0 -85 91q-80 -91 -167 -91q-65 0 -99 38.5t-34 96.5q0 33 11.5 58.5t34.5 42.5t43 26.5t50 20.5
l158 57v49q0 113 -99 113q-82 0 -82 -74q0 -24 7 -52l-75 -10q-21 21 -21 54q0 60 53 95t137 35q173 0 173 -168zM412 741l37 -10q-33 -72 -57.5 -96t-60.5 -24q-32 0 -80 36t-67 36q-21 0 -33.5 -13t-31.5 -49l-37 10q33 72 57.5 96t60.5 24q32 0 80 -36t67 -36
q21 0 33.5 13t31.5 49z" />
    <glyph glyph-name="adieresis" unicode="&#xe4;" horiz-adv-x="535" 
d="M219 60q62 0 123 45v179l-142 -54q-61 -23 -61 -81q0 -43 21 -66t59 -23zM435 372q0 -15 -1.5 -120.5t-1.5 -127.5q0 -68 46 -68q24 0 47 6l5 -24q-48 -48 -100 -48q-70 0 -85 91q-80 -91 -167 -91q-65 0 -99 38.5t-34 96.5q0 33 11.5 58.5t34.5 42.5t43 26.5t50 20.5
l158 57v49q0 113 -99 113q-82 0 -82 -74q0 -24 7 -52l-75 -10q-21 21 -21 54q0 60 53 95t137 35q173 0 173 -168zM108 677q0 25 18 42.5t43 17.5t43 -17.5t18 -42.5q0 -26 -17.5 -44t-43.5 -18t-43.5 18t-17.5 44zM298 677q0 25 18 42.5t43 17.5t43 -17.5t18 -42.5
q0 -26 -17.5 -44t-43.5 -18t-43.5 18t-17.5 44z" />
    <glyph glyph-name="aring" unicode="&#xe5;" horiz-adv-x="535" 
d="M219 60q62 0 123 45v179l-142 -54q-61 -23 -61 -81q0 -43 21 -66t59 -23zM435 372q0 -15 -1.5 -120.5t-1.5 -127.5q0 -68 46 -68q24 0 47 6l5 -24q-48 -48 -100 -48q-70 0 -85 91q-80 -91 -167 -91q-65 0 -99 38.5t-34 96.5q0 33 11.5 58.5t34.5 42.5t43 26.5t50 20.5
l158 57v49q0 113 -99 113q-82 0 -82 -74q0 -24 7 -52l-75 -10q-21 21 -21 54q0 60 53 95t137 35q173 0 173 -168zM168 679q0 39 26 65t67 26t67 -26t26 -65t-26 -65t-67 -26t-67 26t-26 65zM312 679q0 24 -13 39t-38 15t-38 -15t-13 -39t13 -39t38 -15t38 15t13 39z" />
    <glyph glyph-name="ae" unicode="&#xe6;" horiz-adv-x="828" 
d="M586 540q97 0 149 -61t52 -162v-31h-358q0 -99 49.5 -159.5t133.5 -60.5q94 0 159 86l17 -9q-19 -69 -73.5 -111t-136.5 -42q-131 0 -195 109q-84 -109 -195 -109q-66 0 -104.5 39t-38.5 96q0 27 9 49t22 36t33.5 26t37.5 18.5t40 13.5l164 48q3 17 11 47q-3 53 -30.5 91
t-88.5 38q-82 0 -82 -74q0 -24 7 -52l-75 -10q-21 21 -21 54q0 60 52 95t132 35q117 0 159 -79q68 79 171 79zM346 248v20l-143 -43q-64 -20 -64 -81q0 -39 21 -61.5t59 -22.5q79 0 153 60q-26 57 -26 128zM571 491q-57 0 -94.5 -46.5t-43.5 -112.5h262q0 74 -32 116.5
t-92 42.5z" />
    <glyph glyph-name="ccedilla" unicode="&#xe7;" horiz-adv-x="506" 
d="M174 -221l-6 33q117 0 117 46q0 42 -93 45l37 90q-86 13 -137.5 83t-51.5 172q0 122 71.5 207t184.5 85q79 0 124 -33t45 -90q0 -42 -40 -60h-51v34q0 44 -23 71.5t-68 27.5q-70 0 -114.5 -58t-44.5 -146q0 -100 47 -160t130 -60q92 0 152 85l18 -10q-21 -75 -73.5 -113
t-129.5 -38h-8l-15 -38q109 -2 109 -74q0 -49 -50 -74t-130 -25z" />
    <glyph glyph-name="egrave" unicode="&#xe8;" horiz-adv-x="522" 
d="M280 540q97 0 149 -61t52 -162v-31h-358q0 -99 49.5 -159.5t133.5 -60.5q94 0 159 86l17 -9q-19 -69 -73.5 -111t-136.5 -42q-106 0 -169 73.5t-63 184.5q0 130 67.5 211t172.5 81zM265 491q-57 0 -94.5 -45.5t-43.5 -111.5h262q0 73 -32 115t-92 42zM120 761h116
l74 -169h-39z" />
    <glyph glyph-name="eacute" unicode="&#xe9;" horiz-adv-x="522" 
d="M280 540q97 0 149 -61t52 -162v-31h-358q0 -99 49.5 -159.5t133.5 -60.5q94 0 159 86l17 -9q-19 -69 -73.5 -111t-136.5 -42q-106 0 -169 73.5t-63 184.5q0 130 67.5 211t172.5 81zM265 491q-57 0 -94.5 -45.5t-43.5 -111.5h262q0 73 -32 115t-92 42zM318 761h116
l-151 -169h-39z" />
    <glyph glyph-name="ecircumflex" unicode="&#xea;" horiz-adv-x="522" 
d="M280 540q97 0 149 -61t52 -162v-31h-358q0 -99 49.5 -159.5t133.5 -60.5q94 0 159 86l17 -9q-19 -69 -73.5 -111t-136.5 -42q-106 0 -169 73.5t-63 184.5q0 130 67.5 211t172.5 81zM265 491q-57 0 -94.5 -45.5t-43.5 -111.5h262q0 73 -32 115t-92 42zM312 765l140 -173
h-46l-128 103l-128 -103h-46l140 173h68z" />
    <glyph glyph-name="edieresis" unicode="&#xeb;" horiz-adv-x="522" 
d="M280 540q97 0 149 -61t52 -162v-31h-358q0 -99 49.5 -159.5t133.5 -60.5q94 0 159 86l17 -9q-19 -69 -73.5 -111t-136.5 -42q-106 0 -169 73.5t-63 184.5q0 130 67.5 211t172.5 81zM265 491q-57 0 -94.5 -45.5t-43.5 -111.5h262q0 73 -32 115t-92 42zM120 677
q0 25 18 42.5t43 17.5t43 -17.5t18 -42.5q0 -26 -17.5 -44t-43.5 -18t-43.5 18t-17.5 44zM310 677q0 25 18 42.5t43 17.5t43 -17.5t18 -42.5q0 -26 -17.5 -44t-43.5 -18t-43.5 18t-17.5 44z" />
    <glyph glyph-name="igrave" unicode="&#xec;" horiz-adv-x="321" 
d="M209 540v-448q0 -17 5 -27.5t17.5 -16t23 -8t31.5 -5.5v-35h-246v35q28 4 41 7.5t24.5 15.5t11.5 34v342l-72 35v21l139 50h25zM-4 761h116l74 -169h-39z" />
    <glyph glyph-name="iacute" unicode="&#xed;" horiz-adv-x="321" 
d="M209 540v-448q0 -17 5 -27.5t17.5 -16t23 -8t31.5 -5.5v-35h-246v35q28 4 41 7.5t24.5 15.5t11.5 34v342l-72 35v21l139 50h25zM204 761h116l-151 -169h-39z" />
    <glyph glyph-name="icircumflex" unicode="&#xee;" horiz-adv-x="321" 
d="M209 540v-448q0 -17 5 -27.5t17.5 -16t23 -8t31.5 -5.5v-35h-246v35q28 4 41 7.5t24.5 15.5t11.5 34v342l-72 35v21l139 50h25zM195 765l140 -173h-46l-128 103l-128 -103h-46l140 173h68z" />
    <glyph glyph-name="idieresis" unicode="&#xef;" horiz-adv-x="321" 
d="M209 540v-448q0 -17 5 -27.5t17.5 -16t23 -8t31.5 -5.5v-35h-246v35q28 4 41 7.5t24.5 15.5t11.5 34v342l-72 35v21l139 50h25zM5 677q0 25 18 42.5t43 17.5t43 -17.5t18 -42.5q0 -26 -17.5 -44t-43.5 -18t-43.5 18t-17.5 44zM195 677q0 25 18 42.5t43 17.5t43 -17.5
t18 -42.5q0 -26 -17.5 -44t-43.5 -18t-43.5 18t-17.5 44z" />
    <glyph glyph-name="eth" unicode="&#xf0;" horiz-adv-x="572" 
d="M155 575l-15 39l121 46q-65 54 -140 84l19 32q110 -35 187 -90l111 42l15 -39l-87 -33q166 -142 166 -355q0 -153 -70 -232t-179 -79q-110 0 -176.5 74t-66.5 191q0 124 68.5 197.5t166.5 73.5q82 0 143 -75q-39 95 -122 178zM295 42q69 0 105 58t36 157q0 97 -43 162
t-116 65q-69 0 -105 -56t-36 -155q0 -98 43 -164.5t116 -66.5z" />
    <glyph glyph-name="ntilde" unicode="&#xf1;" horiz-adv-x="644" 
d="M449 92v277q0 53 -22 75t-71 22q-80 0 -147 -53v-321q0 -17 5 -27.5t17.5 -16t23 -8t31.5 -5.5v-35h-246v35q28 4 41 7.5t24.5 15.5t11.5 34v342l-72 35v21l139 50h25v-98q46 45 91 71.5t101 26.5q140 0 140 -164v-284q0 -22 11.5 -34t25 -15.5t41.5 -7.5v-35h-247v35
q28 4 41 7.5t24.5 15.5t11.5 34zM476 741l37 -10q-33 -72 -57.5 -96t-60.5 -24q-32 0 -80 36t-67 36q-21 0 -33.5 -13t-31.5 -49l-37 10q33 72 57.5 96t60.5 24q32 0 80 -36t67 -36q21 0 33.5 13t31.5 49z" />
    <glyph glyph-name="ograve" unicode="&#xf2;" horiz-adv-x="572" 
d="M295 42q69 0 105 58t36 157q0 98 -43 164.5t-116 66.5q-69 0 -105 -58t-36 -157q0 -98 43 -164.5t116 -66.5zM283 -10q-110 0 -176.5 74t-66.5 191q0 126 72 205.5t177 79.5q110 0 176.5 -74t66.5 -191q0 -126 -72 -205.5t-177 -79.5zM121 761h116l74 -169h-39z" />
    <glyph glyph-name="oacute" unicode="&#xf3;" horiz-adv-x="572" 
d="M295 42q69 0 105 58t36 157q0 98 -43 164.5t-116 66.5q-69 0 -105 -58t-36 -157q0 -98 43 -164.5t116 -66.5zM283 -10q-110 0 -176.5 74t-66.5 191q0 126 72 205.5t177 79.5q110 0 176.5 -74t66.5 -191q0 -126 -72 -205.5t-177 -79.5zM329 761h116l-151 -169h-39z" />
    <glyph glyph-name="ocircumflex" unicode="&#xf4;" horiz-adv-x="572" 
d="M295 42q69 0 105 58t36 157q0 98 -43 164.5t-116 66.5q-69 0 -105 -58t-36 -157q0 -98 43 -164.5t116 -66.5zM283 -10q-110 0 -176.5 74t-66.5 191q0 126 72 205.5t177 79.5q110 0 176.5 -74t66.5 -191q0 -126 -72 -205.5t-177 -79.5zM320 765l140 -173h-46l-128 103
l-128 -103h-46l140 173h68z" />
    <glyph glyph-name="otilde" unicode="&#xf5;" horiz-adv-x="572" 
d="M295 42q69 0 105 58t36 157q0 98 -43 164.5t-116 66.5q-69 0 -105 -58t-36 -157q0 -98 43 -164.5t116 -66.5zM283 -10q-110 0 -176.5 74t-66.5 191q0 126 72 205.5t177 79.5q110 0 176.5 -74t66.5 -191q0 -126 -72 -205.5t-177 -79.5zM433 741l37 -10q-33 -72 -57.5 -96
t-60.5 -24q-32 0 -80 36t-67 36q-21 0 -33.5 -13t-31.5 -49l-37 10q33 72 57.5 96t60.5 24q32 0 80 -36t67 -36q21 0 33.5 13t31.5 49z" />
    <glyph glyph-name="odieresis" unicode="&#xf6;" horiz-adv-x="572" 
d="M295 42q69 0 105 58t36 157q0 98 -43 164.5t-116 66.5q-69 0 -105 -58t-36 -157q0 -98 43 -164.5t116 -66.5zM283 -10q-110 0 -176.5 74t-66.5 191q0 126 72 205.5t177 79.5q110 0 176.5 -74t66.5 -191q0 -126 -72 -205.5t-177 -79.5zM130 677q0 25 18 42.5t43 17.5
t43 -17.5t18 -42.5q0 -26 -17.5 -44t-43.5 -18t-43.5 18t-17.5 44zM320 677q0 25 18 42.5t43 17.5t43 -17.5t18 -42.5q0 -26 -17.5 -44t-43.5 -18t-43.5 18t-17.5 44z" />
    <glyph glyph-name="divide" unicode="&#xf7;" horiz-adv-x="564" 
d="M63 340v62h438v-62h-438zM225 202q0 24 16.5 41t39.5 17t40.5 -17t17.5 -41q0 -23 -17.5 -40t-40.5 -17t-39.5 17t-16.5 40zM225 540q0 23 16.5 39.5t39.5 16.5t40.5 -16.5t17.5 -39.5t-17.5 -40.5t-40.5 -17.5t-39.5 17.5t-16.5 40.5z" />
    <glyph glyph-name="oslash" unicode="&#xf8;" horiz-adv-x="572" 
d="M490 561l-45 -76q87 -74 87 -210q0 -126 -72 -205.5t-177 -79.5q-61 0 -115 26l-45 -77l-41 25l46 79q-88 74 -88 212q0 126 72 205.5t177 79.5q65 0 116 -28l44 74zM136 273q0 -98 34 -159l201 340q-39 34 -94 34q-69 0 -105 -58t-36 -157zM295 42q69 0 105 58t36 157
q0 95 -33 156l-201 -339q37 -32 93 -32z" />
    <glyph glyph-name="ugrave" unicode="&#xf9;" horiz-adv-x="629" 
d="M425 -10v98q-33 -31 -53.5 -48t-57.5 -33.5t-75 -16.5q-141 0 -141 164v275q0 27 -12 37t-48 15l-16 2v34l153 23h15v-372q0 -54 22.5 -79t70.5 -25q73 0 142 53v312q0 27 -12 37t-48 15l-16 2v34l152 23h16v-432q0 -25 11 -33.5t45 -12.5l26 -3v-34l-160 -35h-14z
M145 761h116l74 -169h-39z" />
    <glyph glyph-name="uacute" unicode="&#xfa;" horiz-adv-x="629" 
d="M425 -10v98q-33 -31 -53.5 -48t-57.5 -33.5t-75 -16.5q-141 0 -141 164v275q0 27 -12 37t-48 15l-16 2v34l153 23h15v-372q0 -54 22.5 -79t70.5 -25q73 0 142 53v312q0 27 -12 37t-48 15l-16 2v34l152 23h16v-432q0 -25 11 -33.5t45 -12.5l26 -3v-34l-160 -35h-14z
M353 761h116l-151 -169h-39z" />
    <glyph glyph-name="ucircumflex" unicode="&#xfb;" horiz-adv-x="629" 
d="M425 -10v98q-33 -31 -53.5 -48t-57.5 -33.5t-75 -16.5q-141 0 -141 164v275q0 27 -12 37t-48 15l-16 2v34l153 23h15v-372q0 -54 22.5 -79t70.5 -25q73 0 142 53v312q0 27 -12 37t-48 15l-16 2v34l152 23h16v-432q0 -25 11 -33.5t45 -12.5l26 -3v-34l-160 -35h-14z
M344 765l140 -173h-46l-128 103l-128 -103h-46l140 173h68z" />
    <glyph glyph-name="udieresis" unicode="&#xfc;" horiz-adv-x="629" 
d="M425 -10v98q-33 -31 -53.5 -48t-57.5 -33.5t-75 -16.5q-141 0 -141 164v275q0 27 -12 37t-48 15l-16 2v34l153 23h15v-372q0 -54 22.5 -79t70.5 -25q73 0 142 53v312q0 27 -12 37t-48 15l-16 2v34l152 23h16v-432q0 -25 11 -33.5t45 -12.5l26 -3v-34l-160 -35h-14z
M154 677q0 25 18 42.5t43 17.5t43 -17.5t18 -42.5q0 -26 -17.5 -44t-43.5 -18t-43.5 18t-17.5 44zM344 677q0 25 18 42.5t43 17.5t43 -17.5t18 -42.5q0 -26 -17.5 -44t-43.5 -18t-43.5 18t-17.5 44z" />
    <glyph glyph-name="yacute" unicode="&#xfd;" horiz-adv-x="561" 
d="M262 -3l-198 458q-7 16 -16 21.5t-43 18.5v35h234v-35q-42 -6 -57 -12.5t-15 -23.5q0 -12 7 -27l132 -326l123 326q7 18 7 27q0 17 -15 23.5t-57 12.5v35h192v-35q-35 -13 -44 -18.5t-15 -21.5l-221 -557q-20 -52 -47 -78.5t-70 -26.5q-50 0 -77 36v46h52q48 0 70.5 14
t37.5 55zM349 761h116l-151 -169h-39z" />
    <glyph glyph-name="thorn" unicode="&#xfe;" horiz-adv-x="593" 
d="M175 424v-249q0 -68 34.5 -103.5t94.5 -35.5q70 0 113.5 58t43.5 154q0 94 -39 159.5t-117 65.5q-84 0 -130 -49zM83 -105v760l-73 35v21l140 50h25v-308q67 87 170 87q99 0 153.5 -71t54.5 -179q0 -136 -70.5 -218t-176.5 -82q-93 0 -131 55v-150q0 -22 11.5 -34
t25 -15.5t41.5 -7.5v-35h-248v35q28 4 41.5 7.5t25 15.5t11.5 34z" />
    <glyph glyph-name="ydieresis" unicode="&#xff;" horiz-adv-x="561" 
d="M262 -3l-198 458q-7 16 -16 21.5t-43 18.5v35h234v-35q-42 -6 -57 -12.5t-15 -23.5q0 -12 7 -27l132 -326l123 326q7 18 7 27q0 17 -15 23.5t-57 12.5v35h192v-35q-35 -13 -44 -18.5t-15 -21.5l-221 -557q-20 -52 -47 -78.5t-70 -26.5q-50 0 -77 36v46h52q48 0 70.5 14
t37.5 55zM150 677q0 25 18 42.5t43 17.5t43 -17.5t18 -42.5q0 -26 -17.5 -44t-43.5 -18t-43.5 18t-17.5 44zM340 677q0 25 18 42.5t43 17.5t43 -17.5t18 -42.5q0 -26 -17.5 -44t-43.5 -18t-43.5 18t-17.5 44z" />
    <glyph glyph-name="Amacron" unicode="&#x100;" horiz-adv-x="723" 
d="M532 122l-47 110h-295l-44 -109q-11 -27 -11 -40q0 -23 21 -32.5t73 -11.5v-39h-224v39q49 7 61 37l237 569l-31 66h111l275 -635q8 -19 21.5 -26.5t38.5 -10.5v-39h-268v39q52 2 72.5 11t20.5 32q0 12 -11 40zM335 589l-127 -313h259zM204 783v62h282v-62h-282z" />
    <glyph glyph-name="amacron" unicode="&#x101;" horiz-adv-x="535" 
d="M219 60q62 0 123 45v179l-142 -54q-61 -23 -61 -81q0 -43 21 -66t59 -23zM435 372q0 -15 -1.5 -120.5t-1.5 -127.5q0 -68 46 -68q24 0 47 6l5 -24q-48 -48 -100 -48q-70 0 -85 91q-80 -91 -167 -91q-65 0 -99 38.5t-34 96.5q0 33 11.5 58.5t34.5 42.5t43 26.5t50 20.5
l158 57v49q0 113 -99 113q-82 0 -82 -74q0 -24 7 -52l-75 -10q-21 21 -21 54q0 60 53 95t137 35q173 0 173 -168zM132 623v58h262v-58h-262z" />
    <glyph glyph-name="Abreve" unicode="&#x102;" horiz-adv-x="723" 
d="M532 122l-47 110h-295l-44 -109q-11 -27 -11 -40q0 -23 21 -32.5t73 -11.5v-39h-224v39q49 7 61 37l237 569l-31 66h111l275 -635q8 -19 21.5 -26.5t38.5 -10.5v-39h-268v39q52 2 72.5 11t20.5 32q0 12 -11 40zM335 589l-127 -313h259zM345 758q-69 0 -110.5 41.5
t-41.5 115.5h37q3 -47 36.5 -70t78.5 -23t78.5 23t36.5 70h37q0 -74 -41.5 -115.5t-110.5 -41.5z" />
    <glyph glyph-name="abreve" unicode="&#x103;" horiz-adv-x="535" 
d="M219 60q62 0 123 45v179l-142 -54q-61 -23 -61 -81q0 -43 21 -66t59 -23zM435 372q0 -15 -1.5 -120.5t-1.5 -127.5q0 -68 46 -68q24 0 47 6l5 -24q-48 -48 -100 -48q-70 0 -85 91q-80 -91 -167 -91q-65 0 -99 38.5t-34 96.5q0 33 11.5 58.5t34.5 42.5t43 26.5t50 20.5
l158 57v49q0 113 -99 113q-82 0 -82 -74q0 -24 7 -52l-75 -10q-21 21 -21 54q0 60 53 95t137 35q173 0 173 -168zM261 593q-67 0 -104 44t-37 124h39q4 -52 31.5 -77t70.5 -25t70.5 25t31.5 77h39q0 -80 -37 -124t-104 -44z" />
    <glyph glyph-name="Aogonek" unicode="&#x104;" horiz-adv-x="723" 
d="M532 122l-47 110h-295l-44 -109q-11 -27 -11 -40q0 -23 21 -32.5t73 -11.5v-39h-224v39q49 7 61 37l237 569l-31 66h111l275 -635q8 -19 21.5 -26.5t38.5 -10.5v-39h-241q-88 -43 -88 -112q0 -19 13 -31t36 -12q45 0 92 37l12 -17q-60 -75 -130 -75q-39 0 -64.5 22
t-25.5 60q0 51 34.5 86t109.5 67q8 3 20 8t17.5 7.5t13.5 6t11.5 6.5t7.5 7.5t5.5 9.5t1.5 12q0 12 -11 40zM335 589l-127 -313h259z" />
    <glyph glyph-name="aogonek" unicode="&#x105;" horiz-adv-x="535" 
d="M435 372q0 -15 -1.5 -120.5t-1.5 -127.5q0 -68 46 -68q24 0 47 6l5 -24q-16 -9 -49.5 -27t-51.5 -28.5t-39.5 -26.5t-31.5 -32.5t-10 -35.5t13 -31t36 -12q45 0 92 37l12 -17q-60 -75 -130 -75q-39 0 -64.5 22t-25.5 60q0 74 115 128q-42 17 -51 81q-80 -91 -167 -91
q-65 0 -99 38.5t-34 96.5q0 33 11.5 58.5t34.5 42.5t43 26.5t50 20.5l158 57v49q0 113 -99 113q-82 0 -82 -74q0 -24 7 -52l-75 -10q-21 21 -21 54q0 60 53 95t137 35q173 0 173 -168zM219 60q62 0 123 45v179l-142 -54q-61 -23 -61 -81q0 -43 21 -66t59 -23z" />
    <glyph glyph-name="Cacute" unicode="&#x106;" horiz-adv-x="673" 
d="M394 41q73 0 120 43t77 131h37l-23 -170q-108 -55 -233 -55q-147 0 -238 97t-91 249q0 171 98 273.5t247 102.5q136 0 216 -63v-153h-36q-38 165 -186 165q-115 0 -173.5 -83t-58.5 -214q0 -143 63.5 -233t180.5 -90zM420 910h120l-155 -149h-39z" />
    <glyph glyph-name="cacute" unicode="&#x107;" horiz-adv-x="506" 
d="M124 286q0 -100 47 -160t130 -60q92 0 152 85l18 -10q-21 -75 -73.5 -113t-129.5 -38q-102 0 -165 72.5t-63 185.5q0 122 71.5 207t184.5 85q79 0 124 -33t45 -90q0 -42 -40 -60h-51v34q0 44 -23 71.5t-68 27.5q-70 0 -114.5 -58t-44.5 -146zM326 761h116l-151 -169h-39z
" />
    <glyph glyph-name="Ccircumflex" unicode="&#x108;" horiz-adv-x="673" 
d="M394 41q73 0 120 43t77 131h37l-23 -170q-108 -55 -233 -55q-147 0 -238 97t-91 249q0 171 98 273.5t247 102.5q136 0 216 -63v-153h-36q-38 165 -186 165q-115 0 -173.5 -83t-58.5 -214q0 -143 63.5 -233t180.5 -90zM413 920l150 -159h-46l-138 90l-138 -90h-46l150 159
h68z" />
    <glyph glyph-name="ccircumflex" unicode="&#x109;" horiz-adv-x="506" 
d="M124 286q0 -100 47 -160t130 -60q92 0 152 85l18 -10q-21 -75 -73.5 -113t-129.5 -38q-102 0 -165 72.5t-63 185.5q0 122 71.5 207t184.5 85q79 0 124 -33t45 -90q0 -42 -40 -60h-51v34q0 44 -23 71.5t-68 27.5q-70 0 -114.5 -58t-44.5 -146zM318 765l140 -173h-46
l-128 103l-128 -103h-46l140 173h68z" />
    <glyph glyph-name="Cdotaccent" unicode="&#x10a;" horiz-adv-x="673" 
d="M394 41q73 0 120 43t77 131h37l-23 -170q-108 -55 -233 -55q-147 0 -238 97t-91 249q0 171 98 273.5t247 102.5q136 0 216 -63v-153h-36q-38 165 -186 165q-115 0 -173.5 -83t-58.5 -214q0 -143 63.5 -233t180.5 -90zM379 767q-27 0 -46 19.5t-19 47.5t19 47.5t46 19.5
t46 -19.5t19 -47.5t-19 -47.5t-46 -19.5z" />
    <glyph glyph-name="cdotaccent" unicode="&#x10b;" horiz-adv-x="506" 
d="M124 286q0 -100 47 -160t130 -60q92 0 152 85l18 -10q-21 -75 -73.5 -113t-129.5 -38q-102 0 -165 72.5t-63 185.5q0 122 71.5 207t184.5 85q79 0 124 -33t45 -90q0 -42 -40 -60h-51v34q0 44 -23 71.5t-68 27.5q-70 0 -114.5 -58t-44.5 -146zM284 611q-27 0 -46 19.5
t-19 47.5t19 47.5t46 19.5t46 -19.5t19 -47.5t-19 -47.5t-46 -19.5z" />
    <glyph glyph-name="Ccaron" unicode="&#x10c;" horiz-adv-x="673" 
d="M394 41q73 0 120 43t77 131h37l-23 -170q-108 -55 -233 -55q-147 0 -238 97t-91 249q0 171 98 273.5t247 102.5q136 0 216 -63v-153h-36q-38 165 -186 165q-115 0 -173.5 -83t-58.5 -214q0 -143 63.5 -233t180.5 -90zM563 920l-150 -159h-68l-150 159h46l138 -90l138 90
h46z" />
    <glyph glyph-name="ccaron" unicode="&#x10d;" horiz-adv-x="506" 
d="M124 286q0 -100 47 -160t130 -60q92 0 152 85l18 -10q-21 -75 -73.5 -113t-129.5 -38q-102 0 -165 72.5t-63 185.5q0 122 71.5 207t184.5 85q79 0 124 -33t45 -90q0 -42 -40 -60h-51v34q0 44 -23 71.5t-68 27.5q-70 0 -114.5 -58t-44.5 -146zM457 769l-140 -173h-68
l-140 173h46l128 -103l128 103h46z" />
    <glyph glyph-name="Dcaron" unicode="&#x10e;" horiz-adv-x="755" 
d="M322 656h-90v-539q0 -42 23 -56.5t79 -14.5h22q117 0 183 78.5t66 224.5q0 61 -15.5 114t-48 97.5t-89 70t-130.5 25.5zM34 663v39h307q94 0 167 -27t116.5 -73.5t65.5 -105t22 -125.5q0 -174 -101 -272.5t-255 -98.5h-322v39q55 2 78.5 16t23.5 57v478q0 43 -23.5 57
t-78.5 16zM541 920l-150 -159h-68l-150 159h46l138 -90l138 90h46z" />
    <glyph glyph-name="dcaron" unicode="&#x10f;" horiz-adv-x="627" 
d="M418 -10v89q-69 -89 -165 -89q-99 0 -156 71.5t-57 178.5q0 136 72 218t180 82q87 0 126 -55v170l-73 35v21l141 50h24v-653q0 -25 11 -33.5t46 -12.5l26 -3v-34l-160 -35h-15zM289 494q-70 0 -113.5 -60t-43.5 -157q0 -92 40 -155t116 -63q82 0 130 51v245
q0 69 -34.5 104t-94.5 35zM717 761l-82 -205h-35l20 205h97z" />
    <glyph glyph-name="Dcroat" unicode="&#x110;" horiz-adv-x="766" 
d="M45 338v43h102v209q0 43 -23.5 57t-78.5 16v39h307q94 0 167 -27t116.5 -73.5t65.5 -105t22 -125.5q0 -174 -101 -272.5t-255 -98.5h-322v39q55 2 78.5 16t23.5 57v226h-102zM333 656h-90v-275h174v-43h-174v-221q0 -42 23 -56.5t79 -14.5h22q117 0 183 78.5t66 224.5
q0 61 -15.5 114t-48 97.5t-89 70t-130.5 25.5z" />
    <glyph glyph-name="dcroat" unicode="&#x111;" horiz-adv-x="623" 
d="M593 584h-83v-476q0 -25 11 -33.5t46 -12.5l26 -3v-34l-160 -35h-15v89q-69 -89 -165 -89q-99 0 -156 71.5t-57 178.5q0 135 71.5 213t180.5 78q87 0 126 -55v108h-145v40h145v66h-73v27l141 44h24v-137h83v-40zM289 485q-71 0 -114 -56t-43 -152q0 -92 40 -155t116 -63
q82 0 130 51v236q0 69 -34.5 104t-94.5 35z" />
    <glyph glyph-name="Emacron" unicode="&#x112;" horiz-adv-x="670" 
d="M508 246h-34q-8 47 -24 68.5t-48 21.5h-170v-222q0 -39 23 -53.5t78 -14.5h100q27 0 46 5t32.5 11t29.5 26.5t26.5 36t34.5 55.5h28l-30 -180h-566v39q55 2 78.5 16t23.5 57v478q0 43 -23.5 57t-78.5 16v39h561v-167h-27q-28 69 -57.5 95t-87.5 26h-191v-274h170
q32 0 48 21.5t24 68.5h34v-226zM205 783v62h282v-62h-282z" />
    <glyph glyph-name="emacron" unicode="&#x113;" horiz-adv-x="522" 
d="M280 540q97 0 149 -61t52 -162v-31h-358q0 -99 49.5 -159.5t133.5 -60.5q94 0 159 86l17 -9q-19 -69 -73.5 -111t-136.5 -42q-106 0 -169 73.5t-63 184.5q0 130 67.5 211t172.5 81zM265 491q-57 0 -94.5 -45.5t-43.5 -111.5h262q0 73 -32 115t-92 42zM145 623v58h262v-58
h-262z" />
    <glyph glyph-name="Ebreve" unicode="&#x114;" horiz-adv-x="670" 
d="M508 246h-34q-8 47 -24 68.5t-48 21.5h-170v-222q0 -39 23 -53.5t78 -14.5h100q27 0 46 5t32.5 11t29.5 26.5t26.5 36t34.5 55.5h28l-30 -180h-566v39q55 2 78.5 16t23.5 57v478q0 43 -23.5 57t-78.5 16v39h561v-167h-27q-28 69 -57.5 95t-87.5 26h-191v-274h170
q32 0 48 21.5t24 68.5h34v-226zM346 758q-69 0 -110.5 41.5t-41.5 115.5h37q3 -47 36.5 -70t78.5 -23t78.5 23t36.5 70h37q0 -74 -41.5 -115.5t-110.5 -41.5z" />
    <glyph glyph-name="ebreve" unicode="&#x115;" horiz-adv-x="522" 
d="M280 540q97 0 149 -61t52 -162v-31h-358q0 -99 49.5 -159.5t133.5 -60.5q94 0 159 86l17 -9q-19 -69 -73.5 -111t-136.5 -42q-106 0 -169 73.5t-63 184.5q0 130 67.5 211t172.5 81zM265 491q-57 0 -94.5 -45.5t-43.5 -111.5h262q0 73 -32 115t-92 42zM277 593
q-67 0 -104 44t-37 124h39q4 -52 31.5 -77t70.5 -25t70.5 25t31.5 77h39q0 -80 -37 -124t-104 -44z" />
    <glyph glyph-name="Edotaccent" unicode="&#x116;" horiz-adv-x="670" 
d="M508 246h-34q-8 47 -24 68.5t-48 21.5h-170v-222q0 -39 23 -53.5t78 -14.5h100q27 0 46 5t32.5 11t29.5 26.5t26.5 36t34.5 55.5h28l-30 -180h-566v39q55 2 78.5 16t23.5 57v478q0 43 -23.5 57t-78.5 16v39h561v-167h-27q-28 69 -57.5 95t-87.5 26h-191v-274h170
q32 0 48 21.5t24 68.5h34v-226zM346 767q-27 0 -46 19.5t-19 47.5t19 47.5t46 19.5t46 -19.5t19 -47.5t-19 -47.5t-46 -19.5z" />
    <glyph glyph-name="edotaccent" unicode="&#x117;" horiz-adv-x="522" 
d="M280 540q97 0 149 -61t52 -162v-31h-358q0 -99 49.5 -159.5t133.5 -60.5q94 0 159 86l17 -9q-19 -69 -73.5 -111t-136.5 -42q-106 0 -169 73.5t-63 184.5q0 130 67.5 211t172.5 81zM265 491q-57 0 -94.5 -45.5t-43.5 -111.5h262q0 73 -32 115t-92 42zM275 611
q-27 0 -46 19.5t-19 47.5t19 47.5t46 19.5t46 -19.5t19 -47.5t-19 -47.5t-46 -19.5z" />
    <glyph glyph-name="Eogonek" unicode="&#x118;" horiz-adv-x="670" 
d="M508 246h-34q-8 47 -24 68.5t-48 21.5h-170v-222q0 -39 23 -53.5t78 -14.5h100q27 0 46 5t32.5 11t29.5 26.5t26.5 36t34.5 55.5h28l-30 -180h-32q-127 -53 -127 -112q0 -19 13 -31t36 -12q45 0 92 37l12 -17q-60 -75 -130 -75q-39 0 -64.5 22t-25.5 60q0 73 122 128
h-462v39q55 2 78.5 16t23.5 57v478q0 43 -23.5 57t-78.5 16v39h561v-167h-27q-28 69 -57.5 95t-87.5 26h-191v-274h170q32 0 48 21.5t24 68.5h34v-226z" />
    <glyph glyph-name="eogonek" unicode="&#x119;" horiz-adv-x="522" 
d="M280 540q97 0 149 -61t52 -162v-31h-358q0 -99 49.5 -159.5t133.5 -60.5q94 0 159 86l17 -9q-14 -50 -46.5 -86.5t-81.5 -53.5q-46 -22 -77 -52t-31 -63q0 -19 13 -31t36 -12q45 0 92 37l12 -17q-60 -75 -130 -75q-39 0 -64.5 22t-25.5 60q0 66 85 118q-103 3 -163.5 76
t-60.5 182q0 130 67.5 211t172.5 81zM265 491q-57 0 -94.5 -45.5t-43.5 -111.5h262q0 73 -32 115t-92 42z" />
    <glyph glyph-name="Ecaron" unicode="&#x11a;" horiz-adv-x="670" 
d="M508 246h-34q-8 47 -24 68.5t-48 21.5h-170v-222q0 -39 23 -53.5t78 -14.5h100q27 0 46 5t32.5 11t29.5 26.5t26.5 36t34.5 55.5h28l-30 -180h-566v39q55 2 78.5 16t23.5 57v478q0 43 -23.5 57t-78.5 16v39h561v-167h-27q-28 69 -57.5 95t-87.5 26h-191v-274h170
q32 0 48 21.5t24 68.5h34v-226zM530 920l-150 -159h-68l-150 159h46l138 -90l138 90h46z" />
    <glyph glyph-name="ecaron" unicode="&#x11b;" horiz-adv-x="522" 
d="M280 540q97 0 149 -61t52 -162v-31h-358q0 -99 49.5 -159.5t133.5 -60.5q94 0 159 86l17 -9q-19 -69 -73.5 -111t-136.5 -42q-106 0 -169 73.5t-63 184.5q0 130 67.5 211t172.5 81zM265 491q-57 0 -94.5 -45.5t-43.5 -111.5h262q0 73 -32 115t-92 42zM451 769l-140 -173
h-68l-140 173h46l128 -103l128 103h46z" />
    <glyph glyph-name="Gcircumflex" unicode="&#x11c;" horiz-adv-x="735" 
d="M43 336q0 171 100.5 273.5t249.5 102.5q141 0 221 -63v-153h-36q-20 84 -69.5 124.5t-121.5 40.5q-115 0 -176 -83.5t-61 -213.5q0 -143 63.5 -233t180.5 -90q90 0 138 44v140q0 42 -22.5 56.5t-75.5 16.5v38h281v-38q-51 -2 -70.5 -16t-19.5 -57v-163q-102 -72 -240 -72
q-156 0 -249 96t-93 250zM423 920l150 -159h-46l-138 90l-138 -90h-46l150 159h68z" />
    <glyph glyph-name="gcircumflex" unicode="&#x11d;" horiz-adv-x="544" 
d="M255 189q-49 0 -91 15q-42 -43 -42 -74q0 -32 37 -32h226q144 0 144 -117q0 -84 -82 -136t-210 -52q-107 0 -164.5 31.5t-57.5 92.5q0 27 15 48t32 31.5t46 24.5q-57 20 -57 73q0 63 92 120q-88 45 -88 145q0 83 56.5 132t145.5 49q46 0 89 -18l181 13v-68h-37l-103 23
v-5q69 -44 69 -121q0 -79 -55 -127t-146 -48zM367 12h-244q-26 -27 -26 -64q0 -107 159 -107q88 0 141.5 29t53.5 83q0 35 -20.5 47t-63.5 12zM265 228q50 0 76 35t26 93q0 61 -32 101.5t-87 40.5q-49 0 -75 -35t-26 -93q0 -60 31.5 -101t86.5 -41zM310 765l140 -173h-46
l-128 103l-128 -103h-46l140 173h68z" />
    <glyph glyph-name="Gbreve" unicode="&#x11e;" horiz-adv-x="735" 
d="M43 336q0 171 100.5 273.5t249.5 102.5q141 0 221 -63v-153h-36q-20 84 -69.5 124.5t-121.5 40.5q-115 0 -176 -83.5t-61 -213.5q0 -143 63.5 -233t180.5 -90q90 0 138 44v140q0 42 -22.5 56.5t-75.5 16.5v38h281v-38q-51 -2 -70.5 -16t-19.5 -57v-163q-102 -72 -240 -72
q-156 0 -249 96t-93 250zM389 758q-69 0 -110.5 41.5t-41.5 115.5h37q3 -47 36.5 -70t78.5 -23t78.5 23t36.5 70h37q0 -74 -41.5 -115.5t-110.5 -41.5z" />
    <glyph glyph-name="gbreve" unicode="&#x11f;" horiz-adv-x="544" 
d="M255 189q-49 0 -91 15q-42 -43 -42 -74q0 -32 37 -32h226q144 0 144 -117q0 -84 -82 -136t-210 -52q-107 0 -164.5 31.5t-57.5 92.5q0 27 15 48t32 31.5t46 24.5q-57 20 -57 73q0 63 92 120q-88 45 -88 145q0 83 56.5 132t145.5 49q46 0 89 -18l181 13v-68h-37l-103 23
v-5q69 -44 69 -121q0 -79 -55 -127t-146 -48zM367 12h-244q-26 -27 -26 -64q0 -107 159 -107q88 0 141.5 29t53.5 83q0 35 -20.5 47t-63.5 12zM265 228q50 0 76 35t26 93q0 61 -32 101.5t-87 40.5q-49 0 -75 -35t-26 -93q0 -60 31.5 -101t86.5 -41zM276 593q-67 0 -104 44
t-37 124h39q4 -52 31.5 -77t70.5 -25t70.5 25t31.5 77h39q0 -80 -37 -124t-104 -44z" />
    <glyph glyph-name="Gdotaccent" unicode="&#x120;" horiz-adv-x="735" 
d="M43 336q0 171 100.5 273.5t249.5 102.5q141 0 221 -63v-153h-36q-20 84 -69.5 124.5t-121.5 40.5q-115 0 -176 -83.5t-61 -213.5q0 -143 63.5 -233t180.5 -90q90 0 138 44v140q0 42 -22.5 56.5t-75.5 16.5v38h281v-38q-51 -2 -70.5 -16t-19.5 -57v-163q-102 -72 -240 -72
q-156 0 -249 96t-93 250zM389 767q-27 0 -46 19.5t-19 47.5t19 47.5t46 19.5t46 -19.5t19 -47.5t-19 -47.5t-46 -19.5z" />
    <glyph glyph-name="gdotaccent" unicode="&#x121;" horiz-adv-x="544" 
d="M255 189q-49 0 -91 15q-42 -43 -42 -74q0 -32 37 -32h226q144 0 144 -117q0 -84 -82 -136t-210 -52q-107 0 -164.5 31.5t-57.5 92.5q0 27 15 48t32 31.5t46 24.5q-57 20 -57 73q0 63 92 120q-88 45 -88 145q0 83 56.5 132t145.5 49q46 0 89 -18l181 13v-68h-37l-103 23
v-5q69 -44 69 -121q0 -79 -55 -127t-146 -48zM367 12h-244q-26 -27 -26 -64q0 -107 159 -107q88 0 141.5 29t53.5 83q0 35 -20.5 47t-63.5 12zM265 228q50 0 76 35t26 93q0 61 -32 101.5t-87 40.5q-49 0 -75 -35t-26 -93q0 -60 31.5 -101t86.5 -41zM276 611q-27 0 -46 19.5
t-19 47.5t19 47.5t46 19.5t46 -19.5t19 -47.5t-19 -47.5t-46 -19.5z" />
    <glyph glyph-name="Gcommaaccent" unicode="&#x122;" horiz-adv-x="735" 
d="M43 336q0 171 100.5 273.5t249.5 102.5q141 0 221 -63v-153h-36q-20 84 -69.5 124.5t-121.5 40.5q-115 0 -176 -83.5t-61 -213.5q0 -143 63.5 -233t180.5 -90q90 0 138 44v140q0 42 -22.5 56.5t-75.5 16.5v38h281v-38q-51 -2 -70.5 -16t-19.5 -57v-163q-102 -72 -240 -72
q-156 0 -249 96t-93 250zM410 -153h-48q-42 8 -42 48q0 24 17.5 38.5t45.5 14.5q35 0 55 -21.5t20 -54.5q0 -102 -126 -102v33q78 0 78 44z" />
    <glyph glyph-name="gcommaaccent" unicode="&#x123;" horiz-adv-x="544" 
d="M255 189q-49 0 -91 15q-42 -43 -42 -74q0 -32 37 -32h226q144 0 144 -117q0 -84 -82 -136t-210 -52q-107 0 -164.5 31.5t-57.5 92.5q0 27 15 48t32 31.5t46 24.5q-57 20 -57 73q0 63 92 120q-88 45 -88 145q0 83 56.5 132t145.5 49q46 0 89 -18l181 13v-68h-37l-103 23
v-5q69 -44 69 -121q0 -79 -55 -127t-146 -48zM367 12h-244q-26 -27 -26 -64q0 -107 159 -107q88 0 141.5 29t53.5 83q0 35 -20.5 47t-63.5 12zM265 228q50 0 76 35t26 93q0 61 -32 101.5t-87 40.5q-49 0 -75 -35t-26 -93q0 -60 31.5 -101t86.5 -41zM255 708h48q42 -8 42 -48
q0 -24 -17.5 -38.5t-45.5 -14.5q-35 0 -55 21.5t-20 54.5q0 102 126 102v-33q-78 0 -78 -44z" />
    <glyph glyph-name="Hcircumflex" unicode="&#x124;" horiz-adv-x="835" 
d="M603 112v224h-371v-224q0 -43 24 -57t78 -16v-39h-300v39q55 2 78.5 16t23.5 57v478q0 43 -23.5 57t-78.5 16v39h300v-39q-54 -2 -78 -16t-24 -57v-208h371v208q0 43 -24 57t-78 16v39h300v-39q-55 -2 -78.5 -16t-23.5 -57v-478q0 -43 23.5 -57t78.5 -16v-39h-300v39
q54 2 78 16t24 57zM451 920l150 -159h-46l-138 90l-138 -90h-46l150 159h68z" />
    <glyph glyph-name="hcircumflex" unicode="&#x125;" horiz-adv-x="636" 
d="M202 761v-319q46 46 90.5 72t100.5 26q140 0 140 -164v-284q0 -22 11.5 -34t25 -15.5t41.5 -7.5v-35h-247v35q28 4 41 7.5t24.5 15.5t11.5 34v277q0 53 -22 75t-71 22q-77 0 -146 -53v-321q0 -22 11.5 -34t24.5 -15.5t41 -7.5v-35h-247v35q28 4 41.5 7.5t25 15.5t11.5 34
v563l-73 35v21l140 50h25zM342 954l150 -159h-46l-138 90l-138 -90h-46l150 159h68z" />
    <glyph glyph-name="Hbar" unicode="&#x126;" horiz-adv-x="857" 
d="M45 488v43h102v59q0 43 -23.5 57t-78.5 16v39h300v-39q-54 -2 -78 -16t-24 -57v-59h371v59q0 43 -24 57t-78 16v39h300v-39q-55 -2 -78.5 -16t-23.5 -57v-59h102v-43h-102v-376q0 -43 23.5 -57t78.5 -16v-39h-300v39q54 2 78 16t24 57v214h-371v-214q0 -43 24 -57t78 -16
v-39h-300v39q55 2 78.5 16t23.5 57v376h-102zM243 372h371v116h-371v-116z" />
    <glyph glyph-name="hbar" unicode="&#x127;" horiz-adv-x="642" 
d="M363 584h-155v-151q46 46 90.5 72t100.5 26q140 0 140 -164v-275q0 -22 11.5 -34t25 -15.5t41.5 -7.5v-35h-247v35q28 4 41 7.5t24.5 15.5t11.5 34v268q0 53 -22 75t-71 22q-77 0 -146 -53v-312q0 -22 11.5 -34t24.5 -15.5t41 -7.5v-35h-247v35q28 4 41.5 7.5t25 15.5
t11.5 34v492h-73v40h73v66h-73v27l140 44h25v-137h155v-40z" />
    <glyph glyph-name="Itilde" unicode="&#x128;" horiz-adv-x="368" 
d="M334 0h-300v39q55 2 78.5 16t23.5 57v478q0 43 -23.5 57t-78.5 16v39h300v-39q-55 -2 -78.5 -16t-23.5 -57v-478q0 -43 23.5 -57t78.5 -16v-39zM331 890l37 -10q-33 -72 -57.5 -96t-60.5 -24q-32 0 -80 36t-67 36q-21 0 -33.5 -13t-31.5 -49l-37 10q33 72 57.5 96
t60.5 24q32 0 80 -36t67 -36q21 0 33.5 13t31.5 49z" />
    <glyph glyph-name="itilde" unicode="&#x129;" horiz-adv-x="321" 
d="M293 741l37 -10q-33 -72 -57.5 -96t-60.5 -24q-30 0 -67 36t-52 36q-21 0 -33.5 -13t-31.5 -49l-37 10q33 72 57.5 96t60.5 24q24 0 47 -18t41 -36t31 -18q21 0 33.5 13t31.5 49zM209 540v-448q0 -17 5 -27.5t17.5 -16t23 -8t31.5 -5.5v-35h-246v35q28 4 41 7.5
t24.5 15.5t11.5 34v342l-72 35v21l139 50h25z" />
    <glyph glyph-name="Imacron" unicode="&#x12a;" horiz-adv-x="368" 
d="M334 0h-300v39q55 2 78.5 16t23.5 57v478q0 43 -23.5 57t-78.5 16v39h300v-39q-55 -2 -78.5 -16t-23.5 -57v-478q0 -43 23.5 -57t78.5 -16v-39zM43 783v62h282v-62h-282z" />
    <glyph glyph-name="imacron" unicode="&#x12b;" horiz-adv-x="321" 
d="M36 623v58h232v-58h-232zM209 540v-448q0 -17 5 -27.5t17.5 -16t23 -8t31.5 -5.5v-35h-246v35q28 4 41 7.5t24.5 15.5t11.5 34v342l-72 35v21l139 50h25z" />
    <glyph glyph-name="Ibreve" unicode="&#x12c;" horiz-adv-x="368" 
d="M334 0h-300v39q55 2 78.5 16t23.5 57v478q0 43 -23.5 57t-78.5 16v39h300v-39q-55 -2 -78.5 -16t-23.5 -57v-478q0 -43 23.5 -57t78.5 -16v-39zM184 758q-69 0 -110.5 41.5t-41.5 115.5h37q3 -47 36.5 -70t78.5 -23t78.5 23t36.5 70h37q0 -74 -41.5 -115.5t-110.5 -41.5z
" />
    <glyph glyph-name="ibreve" unicode="&#x12d;" horiz-adv-x="321" 
d="M209 540v-448q0 -17 5 -27.5t17.5 -16t23 -8t31.5 -5.5v-35h-246v35q28 4 41 7.5t24.5 15.5t11.5 34v342l-72 35v21l139 50h25zM161 593q-67 0 -104 44t-37 124h39q4 -52 31.5 -77t70.5 -25t70.5 25t31.5 77h39q0 -80 -37 -124t-104 -44z" />
    <glyph glyph-name="Iogonek" unicode="&#x12e;" horiz-adv-x="368" 
d="M334 0h-66q-127 -53 -127 -112q0 -19 13 -31t36 -12q45 0 92 37l12 -17q-60 -75 -130 -75q-39 0 -64.5 22t-25.5 60q0 73 122 128h-162v39q55 2 78.5 16t23.5 57v478q0 43 -23.5 57t-78.5 16v39h300v-39q-55 -2 -78.5 -16t-23.5 -57v-478q0 -43 23.5 -57t78.5 -16v-39z
" />
    <glyph glyph-name="iogonek" unicode="&#x12f;" horiz-adv-x="321" 
d="M209 540v-448q0 -17 5 -27.5t17.5 -16t23 -8t31.5 -5.5v-35h-55q-127 -53 -127 -112q0 -19 13 -31t36 -12q45 0 92 37l12 -17q-60 -75 -130 -75q-39 0 -64.5 22t-25.5 60q0 73 122 128h-119v35q28 4 41 7.5t24.5 15.5t11.5 34v342l-72 35v21l139 50h25zM159 611
q-27 0 -46 19.5t-19 47.5t19 47.5t46 19.5t46 -19.5t19 -47.5t-19 -47.5t-46 -19.5z" />
    <glyph glyph-name="Idotaccent" unicode="&#x130;" horiz-adv-x="368" 
d="M334 0h-300v39q55 2 78.5 16t23.5 57v478q0 43 -23.5 57t-78.5 16v39h300v-39q-55 -2 -78.5 -16t-23.5 -57v-478q0 -43 23.5 -57t78.5 -16v-39zM184 767q-27 0 -46 19.5t-19 47.5t19 47.5t46 19.5t46 -19.5t19 -47.5t-19 -47.5t-46 -19.5z" />
    <glyph glyph-name="dotlessi" unicode="&#x131;" horiz-adv-x="321" 
d="M209 540v-448q0 -17 5 -27.5t17.5 -16t23 -8t31.5 -5.5v-35h-246v35q28 4 41 7.5t24.5 15.5t11.5 34v342l-72 35v21l139 50h25z" />
    <glyph glyph-name="IJ" unicode="&#x132;" horiz-adv-x="888" 
d="M334 0h-300v39q55 2 78.5 16t23.5 57v478q0 43 -23.5 57t-78.5 16v39h300v-39q-55 -2 -78.5 -16t-23.5 -57v-478q0 -43 23.5 -57t78.5 -16v-39zM773 590v-390q0 -104 -53.5 -156.5t-151.5 -52.5q-86 0 -138 34t-52 90q0 41 27 64h71v-45q0 -49 26.5 -74.5t71.5 -25.5
q102 0 102 150v406q0 43 -23.5 57t-77.5 16v39h300v-39q-55 -2 -78.5 -16t-23.5 -57z" />
    <glyph glyph-name="ij" unicode="&#x133;" horiz-adv-x="591" 
d="M209 540v-448q0 -17 5 -27.5t17.5 -16t23 -8t31.5 -5.5v-35h-246v35q28 4 41 7.5t24.5 15.5t11.5 34v342l-72 35v21l139 50h25zM159 611q-27 0 -46 19.5t-19 47.5t19 47.5t46 19.5t46 -19.5t19 -47.5t-19 -47.5t-46 -19.5zM512 540v-454q0 -61 -4.5 -94.5t-20.5 -66.5
q-30 -59 -133 -133l-23 25l32 41q36 46 46.5 89.5t10.5 122.5v364l-73 35v21l141 50h24zM462 611q-27 0 -46 19.5t-19 47.5t19 47.5t46 19.5t46 -19.5t19 -47.5t-19 -47.5t-46 -19.5z" />
    <glyph glyph-name="Jcircumflex" unicode="&#x134;" horiz-adv-x="520" 
d="M405 590v-390q0 -104 -53.5 -156.5t-151.5 -52.5q-86 0 -138 34t-52 90q0 41 27 64h71v-45q0 -49 26.5 -74.5t71.5 -25.5q102 0 102 150v406q0 43 -23.5 57t-77.5 16v39h300v-39q-55 -2 -78.5 -16t-23.5 -57zM383 920l150 -159h-46l-138 90l-138 -90h-46l150 159h68z" />
    <glyph glyph-name="jcircumflex" unicode="&#x135;" horiz-adv-x="270" 
d="M191 540v-454q0 -61 -4.5 -94.5t-20.5 -66.5q-30 -59 -133 -133l-23 25l32 41q36 46 46.5 89.5t10.5 122.5v364l-73 35v21l141 50h24zM176 765l140 -173h-46l-128 103l-128 -103h-46l140 173h68z" />
    <glyph glyph-name="Kcommaaccent" unicode="&#x136;" horiz-adv-x="714" 
d="M343 384l238 -266q41 -45 67 -60.5t62 -18.5v-39h-135q-43 23 -99 87l-233 270l251 241q22 20 22 37q0 14 -14.5 19t-65.5 9v39h255v-39q-60 -3 -110 -51zM136 112v478q0 43 -23.5 57t-78.5 16v39h300v-39q-54 -2 -77.5 -16t-23.5 -57v-478q0 -43 23.5 -57t77.5 -16v-39
h-300v39q55 2 78.5 16t23.5 57zM393 -153h-48q-42 8 -42 48q0 24 17.5 38.5t45.5 14.5q35 0 55 -21.5t20 -54.5q0 -102 -126 -102v33q78 0 78 44z" />
    <glyph glyph-name="kcommaaccent" unicode="&#x137;" horiz-adv-x="568" 
d="M212 283l166 158q16 16 16 27t-14 16t-62 11v35h227v-35q-51 -11 -80 -38l-158 -147l257 -283v-27h-101zM202 761v-669q0 -22 11.5 -34t24.5 -15.5t41 -7.5v-35h-247v35q28 4 41.5 7.5t25 15.5t11.5 34v563l-73 35v21l140 50h25zM319 -153h-48q-42 8 -42 48
q0 24 17.5 38.5t45.5 14.5q35 0 55 -21.5t20 -54.5q0 -102 -126 -102v33q78 0 78 44z" />
    <glyph glyph-name="kgreenlandic" unicode="&#x138;" horiz-adv-x="568" 
d="M212 283l166 158q16 16 16 27t-14 16t-62 11v35h227v-35q-51 -11 -80 -38l-158 -147l257 -283v-27h-101zM202 542v-450q0 -22 11.5 -34t24.5 -15.5t41 -7.5v-35h-247v35q28 4 41.5 7.5t25 15.5t11.5 34v344l-73 35v21l140 50h25z" />
    <glyph glyph-name="Lacute" unicode="&#x139;" horiz-adv-x="614" 
d="M233 590v-476q0 -39 23 -53.5t78 -14.5h58q22 0 38.5 3t32 13.5t24 18t23.5 31t22 35.5t26 48h32l-32 -195h-524v39q55 2 78.5 16t23.5 57v478q0 43 -23.5 57t-78.5 16v39h300v-39q-54 -2 -77.5 -16t-23.5 -57zM243 910h120l-155 -149h-39z" />
    <glyph glyph-name="lacute" unicode="&#x13a;" horiz-adv-x="313" 
d="M202 761v-669q0 -22 11.5 -34t24.5 -15.5t41 -7.5v-35h-247v35q28 4 41.5 7.5t25 15.5t11.5 34v563l-73 35v21l140 50h25zM196 940h120l-155 -149h-39z" />
    <glyph glyph-name="Lcommaaccent" unicode="&#x13b;" horiz-adv-x="614" 
d="M233 590v-476q0 -39 23 -53.5t78 -14.5h58q22 0 38.5 3t32 13.5t24 18t23.5 31t22 35.5t26 48h32l-32 -195h-524v39q55 2 78.5 16t23.5 57v478q0 43 -23.5 57t-78.5 16v39h300v-39q-54 -2 -77.5 -16t-23.5 -57zM353 -153h-48q-42 8 -42 48q0 24 17.5 38.5t45.5 14.5
q35 0 55 -21.5t20 -54.5q0 -102 -126 -102v33q78 0 78 44z" />
    <glyph glyph-name="lcommaaccent" unicode="&#x13c;" horiz-adv-x="313" 
d="M202 761v-669q0 -22 11.5 -34t24.5 -15.5t41 -7.5v-35h-247v35q28 4 41.5 7.5t25 15.5t11.5 34v563l-73 35v21l140 50h25zM176 -153h-48q-42 8 -42 48q0 24 17.5 38.5t45.5 14.5q35 0 55 -21.5t20 -54.5q0 -102 -126 -102v33q78 0 78 44z" />
    <glyph glyph-name="Lcaron" unicode="&#x13d;" horiz-adv-x="614" 
d="M233 590v-476q0 -39 23 -53.5t78 -14.5h58q22 0 38.5 3t32 13.5t24 18t23.5 31t22 35.5t26 48h32l-32 -195h-524v39q55 2 78.5 16t23.5 57v478q0 43 -23.5 57t-78.5 16v39h300v-39q-54 -2 -77.5 -16t-23.5 -57zM533 703l-82 -205h-35l20 205h97z" />
    <glyph glyph-name="lcaron" unicode="&#x13e;" horiz-adv-x="318" 
d="M202 761v-669q0 -22 11.5 -34t24.5 -15.5t41 -7.5v-35h-247v35q28 4 41.5 7.5t25 15.5t11.5 34v563l-73 35v21l140 50h25zM408 761l-82 -205h-35l20 205h97z" />
    <glyph glyph-name="Ldot" unicode="&#x13f;" horiz-adv-x="614" 
d="M233 590v-476q0 -39 23 -53.5t78 -14.5h58q22 0 38.5 3t32 13.5t24 18t23.5 31t22 35.5t26 48h32l-32 -195h-524v39q55 2 78.5 16t23.5 57v478q0 43 -23.5 57t-78.5 16v39h300v-39q-54 -2 -77.5 -16t-23.5 -57zM513 319q-27 0 -46 19.5t-19 47.5t19 47.5t46 19.5
t46 -19.5t19 -47.5t-19 -47.5t-46 -19.5z" />
    <glyph glyph-name="ldot" unicode="&#x140;" horiz-adv-x="389" 
d="M202 761v-669q0 -22 11.5 -34t24.5 -15.5t41 -7.5v-35h-247v35q28 4 41.5 7.5t25 15.5t11.5 34v563l-73 35v21l140 50h25zM344 313q-27 0 -46 19.5t-19 47.5t19 47.5t46 19.5t46 -19.5t19 -47.5t-19 -47.5t-46 -19.5z" />
    <glyph glyph-name="Lslash" unicode="&#x141;" horiz-adv-x="625" 
d="M244 590v-201l164 57v-45l-164 -57v-230q0 -39 23 -53.5t78 -14.5h58q22 0 38.5 3t32 13.5t24 18t23.5 31t22 35.5t26 48h32l-32 -195h-524v39q55 2 78.5 16t23.5 57v202l-102 -35v45l102 34v232q0 43 -23.5 57t-78.5 16v39h300v-39q-54 -2 -77.5 -16t-23.5 -57z" />
    <glyph glyph-name="lslash" unicode="&#x142;" horiz-adv-x="347" 
d="M219 761v-283l105 63v-50l-105 -64v-335q0 -22 11.5 -34t24.5 -15.5t41 -7.5v-35h-247v35q28 4 41.5 7.5t25 15.5t11.5 34v284l-98 -58v50l98 59v228l-73 35v21l140 50h25z" />
    <glyph glyph-name="Nacute" unicode="&#x143;" horiz-adv-x="806" 
d="M136 112v488q-33 39 -50.5 50.5t-51.5 12.5v39h171l416 -527v415q0 43 -23.5 57t-78.5 16v39h262v-39q-55 -2 -78.5 -16t-23.5 -57v-590h-41l-444 555v-443q0 -43 23.5 -57t78.5 -16v-39h-262v39q55 2 78.5 16t23.5 57zM448 910h120l-155 -149h-39z" />
    <glyph glyph-name="nacute" unicode="&#x144;" horiz-adv-x="644" 
d="M449 92v277q0 53 -22 75t-71 22q-80 0 -147 -53v-321q0 -17 5 -27.5t17.5 -16t23 -8t31.5 -5.5v-35h-246v35q28 4 41 7.5t24.5 15.5t11.5 34v342l-72 35v21l139 50h25v-98q46 45 91 71.5t101 26.5q140 0 140 -164v-284q0 -22 11.5 -34t25 -15.5t41.5 -7.5v-35h-247v35
q28 4 41 7.5t24.5 15.5t11.5 34zM372 761h116l-151 -169h-39z" />
    <glyph glyph-name="Ncommaaccent" unicode="&#x145;" horiz-adv-x="806" 
d="M136 112v488q-33 39 -50.5 50.5t-51.5 12.5v39h171l416 -527v415q0 43 -23.5 57t-78.5 16v39h262v-39q-55 -2 -78.5 -16t-23.5 -57v-590h-41l-444 555v-443q0 -43 23.5 -57t78.5 -16v-39h-262v39q55 2 78.5 16t23.5 57zM428 -153h-48q-42 8 -42 48q0 24 17.5 38.5
t45.5 14.5q35 0 55 -21.5t20 -54.5q0 -102 -126 -102v33q78 0 78 44z" />
    <glyph glyph-name="ncommaaccent" unicode="&#x146;" horiz-adv-x="644" 
d="M449 92v277q0 53 -22 75t-71 22q-80 0 -147 -53v-321q0 -17 5 -27.5t17.5 -16t23 -8t31.5 -5.5v-35h-246v35q28 4 41 7.5t24.5 15.5t11.5 34v342l-72 35v21l139 50h25v-98q46 45 91 71.5t101 26.5q140 0 140 -164v-284q0 -22 11.5 -34t25 -15.5t41.5 -7.5v-35h-247v35
q28 4 41 7.5t24.5 15.5t11.5 34zM350 -153h-48q-42 8 -42 48q0 24 17.5 38.5t45.5 14.5q35 0 55 -21.5t20 -54.5q0 -102 -126 -102v33q78 0 78 44z" />
    <glyph glyph-name="Ncaron" unicode="&#x147;" horiz-adv-x="806" 
d="M136 112v488q-33 39 -50.5 50.5t-51.5 12.5v39h171l416 -527v415q0 43 -23.5 57t-78.5 16v39h262v-39q-55 -2 -78.5 -16t-23.5 -57v-590h-41l-444 555v-443q0 -43 23.5 -57t78.5 -16v-39h-262v39q55 2 78.5 16t23.5 57zM591 920l-150 -159h-68l-150 159h46l138 -90
l138 90h46z" />
    <glyph glyph-name="ncaron" unicode="&#x148;" horiz-adv-x="644" 
d="M449 92v277q0 53 -22 75t-71 22q-80 0 -147 -53v-321q0 -17 5 -27.5t17.5 -16t23 -8t31.5 -5.5v-35h-246v35q28 4 41 7.5t24.5 15.5t11.5 34v342l-72 35v21l139 50h25v-98q46 45 91 71.5t101 26.5q140 0 140 -164v-284q0 -22 11.5 -34t25 -15.5t41.5 -7.5v-35h-247v35
q28 4 41 7.5t24.5 15.5t11.5 34zM503 769l-140 -173h-68l-140 173h46l128 -103l128 103h46z" />
    <glyph glyph-name="Eng" unicode="&#x14a;" horiz-adv-x="806" 
d="M590 65l-396 490v-443q0 -43 23.5 -57t78.5 -16v-39h-262v39q55 2 78.5 16t23.5 57v488q-33 39 -50.5 50.5t-51.5 12.5v39h171l416 -527v415q0 43 -23.5 57t-78.5 16v39h262v-39q-55 -2 -78.5 -16t-23.5 -57v-504q0 -61 -4.5 -94.5t-20.5 -66.5q-30 -59 -133 -133l-23 25
l32 41q37 47 48.5 89t11.5 118z" />
    <glyph glyph-name="eng" unicode="&#x14b;" horiz-adv-x="620" 
d="M449 70v299q0 53 -22 75t-71 22q-80 0 -147 -53v-321q0 -17 5 -27.5t17.5 -16t23 -8t31.5 -5.5v-35h-246v35q28 4 41 7.5t24.5 15.5t11.5 34v342l-72 35v21l139 50h25v-98q46 45 91 71.5t101 26.5q140 0 140 -164v-290q0 -61 -4.5 -94.5t-20.5 -66.5q-30 -59 -133 -133
l-23 25l32 41q36 46 46.5 89.5t10.5 122.5z" />
    <glyph glyph-name="Omacron" unicode="&#x14c;" horiz-adv-x="748" 
d="M385 45q103 0 158 84.5t55 218.5q0 81 -23 148.5t-78 114t-134 46.5q-103 0 -158 -84.5t-55 -218.5q0 -81 23 -148.5t78 -114t134 -46.5zM377 712q150 0 239 -100.5t89 -246.5q0 -168 -97 -271.5t-237 -103.5q-150 0 -239 100.5t-89 246.5q0 168 97 271.5t237 103.5z
M233 783v62h282v-62h-282z" />
    <glyph glyph-name="omacron" unicode="&#x14d;" horiz-adv-x="572" 
d="M295 42q69 0 105 58t36 157q0 98 -43 164.5t-116 66.5q-69 0 -105 -58t-36 -157q0 -98 43 -164.5t116 -66.5zM283 -10q-110 0 -176.5 74t-66.5 191q0 126 72 205.5t177 79.5q110 0 176.5 -74t66.5 -191q0 -126 -72 -205.5t-177 -79.5zM155 623v58h262v-58h-262z" />
    <glyph glyph-name="Obreve" unicode="&#x14e;" horiz-adv-x="748" 
d="M385 45q103 0 158 84.5t55 218.5q0 81 -23 148.5t-78 114t-134 46.5q-103 0 -158 -84.5t-55 -218.5q0 -81 23 -148.5t78 -114t134 -46.5zM377 712q150 0 239 -100.5t89 -246.5q0 -168 -97 -271.5t-237 -103.5q-150 0 -239 100.5t-89 246.5q0 168 97 271.5t237 103.5z
M374 758q-69 0 -110.5 41.5t-41.5 115.5h37q3 -47 36.5 -70t78.5 -23t78.5 23t36.5 70h37q0 -74 -41.5 -115.5t-110.5 -41.5z" />
    <glyph glyph-name="obreve" unicode="&#x14f;" horiz-adv-x="572" 
d="M295 42q69 0 105 58t36 157q0 98 -43 164.5t-116 66.5q-69 0 -105 -58t-36 -157q0 -98 43 -164.5t116 -66.5zM283 -10q-110 0 -176.5 74t-66.5 191q0 126 72 205.5t177 79.5q110 0 176.5 -74t66.5 -191q0 -126 -72 -205.5t-177 -79.5zM286 593q-67 0 -104 44t-37 124h39
q4 -52 31.5 -77t70.5 -25t70.5 25t31.5 77h39q0 -80 -37 -124t-104 -44z" />
    <glyph glyph-name="Ohungarumlaut" unicode="&#x150;" horiz-adv-x="748" 
d="M385 45q103 0 158 84.5t55 218.5q0 81 -23 148.5t-78 114t-134 46.5q-103 0 -158 -84.5t-55 -218.5q0 -81 23 -148.5t78 -114t134 -46.5zM377 712q150 0 239 -100.5t89 -246.5q0 -168 -97 -271.5t-237 -103.5q-150 0 -239 100.5t-89 246.5q0 168 97 271.5t237 103.5z
M342 910h106l-133 -149h-40zM492 910h106l-133 -149h-40z" />
    <glyph glyph-name="ohungarumlaut" unicode="&#x151;" horiz-adv-x="572" 
d="M295 42q69 0 105 58t36 157q0 98 -43 164.5t-116 66.5q-69 0 -105 -58t-36 -157q0 -98 43 -164.5t116 -66.5zM283 -10q-110 0 -176.5 74t-66.5 191q0 126 72 205.5t177 79.5q110 0 176.5 -74t66.5 -191q0 -126 -72 -205.5t-177 -79.5zM252 761h102l-129 -169h-40z
M402 761h102l-129 -169h-40z" />
    <glyph glyph-name="OE" unicode="&#x152;" horiz-adv-x="1010" 
d="M940 0h-526q-94 0 -167 27t-116.5 73.5t-65.5 105t-22 125.5q0 174 101 272.5t255 98.5h536v-167h-27q-28 69 -57.5 95t-87.5 26h-191v-274h170q32 0 48 21.5t24 68.5h34v-226h-34q-8 47 -24 68.5t-48 21.5h-170v-222q0 -39 23 -53.5t78 -14.5h100q27 0 46 5t32.5 11
t29.5 26.5t26.5 36t34.5 55.5h28zM476 46v610h-77q-117 0 -183 -78.5t-66 -224.5q0 -61 15.5 -114t48 -97.5t89 -70t130.5 -25.5h43z" />
    <glyph glyph-name="oe" unicode="&#x153;" horiz-adv-x="919" 
d="M289 540q127 0 199 -113q68 113 189 113q97 0 149 -61t52 -162v-31h-358q0 -99 49.5 -159.5t133.5 -60.5q94 0 159 86l17 -9q-19 -69 -73.5 -111t-136.5 -42q-63 0 -113 29.5t-79 80.5q-35 -51 -86 -80.5t-108 -29.5q-110 0 -176.5 74t-66.5 191q0 126 72 205.5t177 79.5
zM295 42q69 0 105 58t36 157q0 98 -43 164.5t-116 66.5q-69 0 -105 -58t-36 -157q0 -98 43 -164.5t116 -66.5zM662 491q-57 0 -94.5 -45.5t-43.5 -111.5h262q0 73 -32 115t-92 42z" />
    <glyph glyph-name="Racute" unicode="&#x154;" horiz-adv-x="704" 
d="M298 656h-66v-306h70q176 0 176 155q0 68 -44.5 109.5t-135.5 41.5zM34 702h294q129 0 192.5 -53t63.5 -144q0 -80 -57.5 -129.5t-135.5 -56.5l168 -209q53 -67 129 -71v-39h-143q-45 28 -91 88l-169 218h-53v-194q0 -43 23.5 -57t77.5 -16v-39h-299v39q55 2 78.5 16
t23.5 57v478q0 43 -23.5 57t-78.5 16v39zM362 910h120l-155 -149h-39z" />
    <glyph glyph-name="racute" unicode="&#x155;" horiz-adv-x="412" 
d="M209 540v-158q54 97 81 127.5t70 30.5q25 0 37 -14v-89h-21q-52 0 -86.5 -16t-80.5 -71v-254q0 -35 18.5 -44.5t78.5 -16.5v-35h-266v35q28 4 41 7.5t24.5 15.5t11.5 34v342l-72 35v21l138 50h26zM289 761h116l-151 -169h-39z" />
    <glyph glyph-name="Rcommaaccent" unicode="&#x156;" horiz-adv-x="704" 
d="M298 656h-66v-306h70q176 0 176 155q0 68 -44.5 109.5t-135.5 41.5zM34 702h294q129 0 192.5 -53t63.5 -144q0 -80 -57.5 -129.5t-135.5 -56.5l168 -209q53 -67 129 -71v-39h-143q-45 28 -91 88l-169 218h-53v-194q0 -43 23.5 -57t77.5 -16v-39h-299v39q55 2 78.5 16
t23.5 57v478q0 43 -23.5 57t-78.5 16v39zM392 -153h-48q-42 8 -42 48q0 24 17.5 38.5t45.5 14.5q35 0 55 -21.5t20 -54.5q0 -102 -126 -102v33q78 0 78 44z" />
    <glyph glyph-name="rcommaaccent" unicode="&#x157;" horiz-adv-x="412" 
d="M209 540v-158q54 97 81 127.5t70 30.5q25 0 37 -14v-89h-21q-52 0 -86.5 -16t-80.5 -71v-254q0 -35 18.5 -44.5t78.5 -16.5v-35h-266v35q28 4 41 7.5t24.5 15.5t11.5 34v342l-72 35v21l138 50h26zM193 -153h-48q-42 8 -42 48q0 24 17.5 38.5t45.5 14.5q35 0 55 -21.5
t20 -54.5q0 -102 -126 -102v33q78 0 78 44z" />
    <glyph glyph-name="Rcaron" unicode="&#x158;" horiz-adv-x="704" 
d="M298 656h-66v-306h70q176 0 176 155q0 68 -44.5 109.5t-135.5 41.5zM34 702h294q129 0 192.5 -53t63.5 -144q0 -80 -57.5 -129.5t-135.5 -56.5l168 -209q53 -67 129 -71v-39h-143q-45 28 -91 88l-169 218h-53v-194q0 -43 23.5 -57t77.5 -16v-39h-299v39q55 2 78.5 16
t23.5 57v478q0 43 -23.5 57t-78.5 16v39zM505 920l-150 -159h-68l-150 159h46l138 -90l138 90h46z" />
    <glyph glyph-name="rcaron" unicode="&#x159;" horiz-adv-x="412" 
d="M209 540v-158q54 97 81 127.5t70 30.5q25 0 37 -14v-89h-21q-52 0 -86.5 -16t-80.5 -71v-254q0 -35 18.5 -44.5t78.5 -16.5v-35h-266v35q28 4 41 7.5t24.5 15.5t11.5 34v342l-72 35v21l138 50h26zM420 769l-140 -173h-68l-140 173h46l128 -103l128 103h46z" />
    <glyph glyph-name="Sacute" unicode="&#x15a;" horiz-adv-x="556" 
d="M265 -10q-67 0 -125 19.5t-93 49.5l-7 164h35q24 -84 72 -133.5t121 -49.5q71 0 111 33.5t40 94.5q0 50 -36 80.5t-130 65.5q-108 40 -156.5 85t-48.5 125q0 82 58.5 135t160.5 53q113 0 208 -63v-153h-33q-18 76 -64 121t-116 45q-61 0 -94 -31t-33 -81
q0 -51 32.5 -80.5t125.5 -64.5q116 -43 166.5 -90t50.5 -127q0 -92 -70.5 -145t-174.5 -53zM314 910h120l-155 -149h-39z" />
    <glyph glyph-name="sacute" unicode="&#x15b;" horiz-adv-x="451" 
d="M227 -10q-116 0 -181 49l-6 133h37q32 -137 151 -137q48 0 75 21.5t27 60.5q0 46 -30.5 69t-105.5 46q-74 23 -111 58t-37 99q0 67 47 109t125 42q91 0 165 -42v-124h-38q-21 120 -130 120q-40 0 -63.5 -22.5t-23.5 -56.5q0 -40 28.5 -64.5t89.5 -43.5q87 -27 127 -59.5
t40 -102.5q0 -67 -50.5 -111t-135.5 -44zM275 761h116l-151 -169h-39z" />
    <glyph glyph-name="Scircumflex" unicode="&#x15c;" horiz-adv-x="556" 
d="M265 -10q-67 0 -125 19.5t-93 49.5l-7 164h35q24 -84 72 -133.5t121 -49.5q71 0 111 33.5t40 94.5q0 50 -36 80.5t-130 65.5q-108 40 -156.5 85t-48.5 125q0 82 58.5 135t160.5 53q113 0 208 -63v-153h-33q-18 76 -64 121t-116 45q-61 0 -94 -31t-33 -81
q0 -51 32.5 -80.5t125.5 -64.5q116 -43 166.5 -90t50.5 -127q0 -92 -70.5 -145t-174.5 -53zM307 920l150 -159h-46l-138 90l-138 -90h-46l150 159h68z" />
    <glyph glyph-name="scircumflex" unicode="&#x15d;" horiz-adv-x="451" 
d="M227 -10q-116 0 -181 49l-6 133h37q32 -137 151 -137q48 0 75 21.5t27 60.5q0 46 -30.5 69t-105.5 46q-74 23 -111 58t-37 99q0 67 47 109t125 42q91 0 165 -42v-124h-38q-21 120 -130 120q-40 0 -63.5 -22.5t-23.5 -56.5q0 -40 28.5 -64.5t89.5 -43.5q87 -27 127 -59.5
t40 -102.5q0 -67 -50.5 -111t-135.5 -44zM266 765l140 -173h-46l-128 103l-128 -103h-46l140 173h68z" />
    <glyph glyph-name="Scedilla" unicode="&#x15e;" horiz-adv-x="556" 
d="M196 -221l-6 33q117 0 117 46q0 42 -93 45l35 87q-128 6 -202 69l-7 164h35q24 -84 72 -133.5t121 -49.5q71 0 111 33.5t40 94.5q0 50 -36 80.5t-130 65.5q-108 40 -156.5 85t-48.5 125q0 82 58.5 135t160.5 53q113 0 208 -63v-153h-33q-18 76 -64 121t-116 45
q-61 0 -94 -31t-33 -81q0 -51 32.5 -80.5t125.5 -64.5q116 -43 166.5 -90t50.5 -127q0 -89 -65 -141t-163 -56l-15 -39q109 -2 109 -74q0 -49 -50 -74t-130 -25z" />
    <glyph glyph-name="scedilla" unicode="&#x15f;" horiz-adv-x="451" 
d="M121 -221l-6 33q117 0 117 46q0 42 -93 45l36 90q-81 9 -129 46l-6 133h37q32 -137 151 -137q48 0 75 21.5t27 60.5q0 46 -30.5 69t-105.5 46q-74 23 -111 58t-37 99q0 67 47 109t125 42q91 0 165 -42v-124h-38q-21 120 -130 120q-40 0 -63.5 -22.5t-23.5 -56.5
q0 -40 28.5 -64.5t89.5 -43.5q87 -27 127 -59.5t40 -102.5q0 -67 -50.5 -111t-135.5 -44q-14 0 -20 1l-15 -39q109 -2 109 -74q0 -49 -50.5 -74t-129.5 -25z" />
    <glyph glyph-name="Scaron" unicode="&#x160;" horiz-adv-x="556" 
d="M265 -10q-67 0 -125 19.5t-93 49.5l-7 164h35q24 -84 72 -133.5t121 -49.5q71 0 111 33.5t40 94.5q0 50 -36 80.5t-130 65.5q-108 40 -156.5 85t-48.5 125q0 82 58.5 135t160.5 53q113 0 208 -63v-153h-33q-18 76 -64 121t-116 45q-61 0 -94 -31t-33 -81
q0 -51 32.5 -80.5t125.5 -64.5q116 -43 166.5 -90t50.5 -127q0 -92 -70.5 -145t-174.5 -53zM457 920l-150 -159h-68l-150 159h46l138 -90l138 90h46z" />
    <glyph glyph-name="scaron" unicode="&#x161;" horiz-adv-x="451" 
d="M227 -10q-116 0 -181 49l-6 133h37q32 -137 151 -137q48 0 75 21.5t27 60.5q0 46 -30.5 69t-105.5 46q-74 23 -111 58t-37 99q0 67 47 109t125 42q91 0 165 -42v-124h-38q-21 120 -130 120q-40 0 -63.5 -22.5t-23.5 -56.5q0 -40 28.5 -64.5t89.5 -43.5q87 -27 127 -59.5
t40 -102.5q0 -67 -50.5 -111t-135.5 -44zM406 769l-140 -173h-68l-140 173h46l128 -103l128 103h46z" />
    <glyph glyph-name="Tcedilla" unicode="&#x162;" horiz-adv-x="663" 
d="M30 702h602l16 -209h-32q-47 110 -71.5 137t-89.5 27h-76v-545q0 -43 25 -57t81 -16v-39h-308v39q56 2 80.5 16t24.5 57v545h-74q-65 0 -89.5 -27t-72.5 -137h-31zM352 -153h-48q-42 8 -42 48q0 24 17.5 38.5t45.5 14.5q35 0 55 -21.5t20 -54.5q0 -102 -126 -102v33
q78 0 78 44z" />
    <glyph glyph-name="tcedilla" unicode="&#x163;" horiz-adv-x="370" 
d="M180 644v-114h153v-53h-153v-350q0 -41 18.5 -57.5t60.5 -16.5q47 0 91 22l10 -22q-58 -63 -152 -63q-119 0 -119 118v369h-74v30q79 49 139 137h26zM208 -153h-48q-42 8 -42 48q0 24 17.5 38.5t45.5 14.5q35 0 55 -21.5t20 -54.5q0 -102 -126 -102v33q78 0 78 44z" />
    <glyph glyph-name="Tcaron" unicode="&#x164;" horiz-adv-x="663" 
d="M30 702h602l16 -209h-32q-47 110 -71.5 137t-89.5 27h-76v-545q0 -43 25 -57t81 -16v-39h-308v39q56 2 80.5 16t24.5 57v545h-74q-65 0 -89.5 -27t-72.5 -137h-31zM515 920l-150 -159h-68l-150 159h46l138 -90l138 90h46z" />
    <glyph glyph-name="tcaron" unicode="&#x165;" horiz-adv-x="370" 
d="M180 644v-114h153v-53h-153v-350q0 -41 18.5 -57.5t60.5 -16.5q47 0 91 22l10 -22q-58 -63 -152 -63q-119 0 -119 118v369h-74v30q79 49 139 137h26zM354 799l-82 -205h-35l20 205h97z" />
    <glyph glyph-name="Tbar" unicode="&#x166;" horiz-adv-x="663" 
d="M30 702h602l16 -209h-32q-47 110 -71.5 137t-89.5 27h-76v-266h131v-43h-131v-236q0 -43 25 -57t81 -16v-39h-308v39q56 2 80.5 16t24.5 57v236h-131v43h131v266h-74q-65 0 -89.5 -27t-72.5 -137h-31z" />
    <glyph glyph-name="tbar" unicode="&#x167;" horiz-adv-x="415" 
d="M205 644v-114h153v-53h-153v-127h153v-49h-153v-174q0 -41 18.5 -57.5t60.5 -16.5q47 0 91 22l10 -22q-58 -63 -152 -63q-119 0 -119 118v193h-74v49h74v127h-74v30q79 49 139 137h26z" />
    <glyph glyph-name="Utilde" unicode="&#x168;" horiz-adv-x="766" 
d="M207 590v-344q0 -93 48.5 -143t134.5 -50q104 0 156.5 48t52.5 153v336q0 43 -23.5 57t-78.5 16v39h261v-39q-54 -2 -77.5 -16t-23.5 -57v-355q0 -118 -77 -181t-192 -63q-130 0 -204 61.5t-74 184.5v353q0 43 -23.5 57t-78.5 16v39h300v-39q-54 -2 -77.5 -16t-23.5 -57z
M550 890l37 -10q-33 -72 -57.5 -96t-60.5 -24q-32 0 -80 36t-67 36q-21 0 -33.5 -13t-31.5 -49l-37 10q33 72 57.5 96t60.5 24q32 0 80 -36t67 -36q21 0 33.5 13t31.5 49z" />
    <glyph glyph-name="utilde" unicode="&#x169;" horiz-adv-x="629" 
d="M425 -10v98q-33 -31 -53.5 -48t-57.5 -33.5t-75 -16.5q-141 0 -141 164v275q0 27 -12 37t-48 15l-16 2v34l153 23h15v-372q0 -54 22.5 -79t70.5 -25q73 0 142 53v312q0 27 -12 37t-48 15l-16 2v34l152 23h16v-432q0 -25 11 -33.5t45 -12.5l26 -3v-34l-160 -35h-14z
M457 741l37 -10q-33 -72 -57.5 -96t-60.5 -24q-32 0 -80 36t-67 36q-21 0 -33.5 -13t-31.5 -49l-37 10q33 72 57.5 96t60.5 24q32 0 80 -36t67 -36q21 0 33.5 13t31.5 49z" />
    <glyph glyph-name="Umacron" unicode="&#x16a;" horiz-adv-x="766" 
d="M207 590v-344q0 -93 48.5 -143t134.5 -50q104 0 156.5 48t52.5 153v336q0 43 -23.5 57t-78.5 16v39h261v-39q-54 -2 -77.5 -16t-23.5 -57v-355q0 -118 -77 -181t-192 -63q-130 0 -204 61.5t-74 184.5v353q0 43 -23.5 57t-78.5 16v39h300v-39q-54 -2 -77.5 -16t-23.5 -57z
M262 783v62h282v-62h-282z" />
    <glyph glyph-name="umacron" unicode="&#x16b;" horiz-adv-x="629" 
d="M425 -10v98q-33 -31 -53.5 -48t-57.5 -33.5t-75 -16.5q-141 0 -141 164v275q0 27 -12 37t-48 15l-16 2v34l153 23h15v-372q0 -54 22.5 -79t70.5 -25q73 0 142 53v312q0 27 -12 37t-48 15l-16 2v34l152 23h16v-432q0 -25 11 -33.5t45 -12.5l26 -3v-34l-160 -35h-14z
M179 623v58h262v-58h-262z" />
    <glyph glyph-name="Ubreve" unicode="&#x16c;" horiz-adv-x="766" 
d="M207 590v-344q0 -93 48.5 -143t134.5 -50q104 0 156.5 48t52.5 153v336q0 43 -23.5 57t-78.5 16v39h261v-39q-54 -2 -77.5 -16t-23.5 -57v-355q0 -118 -77 -181t-192 -63q-130 0 -204 61.5t-74 184.5v353q0 43 -23.5 57t-78.5 16v39h300v-39q-54 -2 -77.5 -16t-23.5 -57z
M403 758q-69 0 -110.5 41.5t-41.5 115.5h37q3 -47 36.5 -70t78.5 -23t78.5 23t36.5 70h37q0 -74 -41.5 -115.5t-110.5 -41.5z" />
    <glyph glyph-name="ubreve" unicode="&#x16d;" horiz-adv-x="629" 
d="M425 -10v98q-33 -31 -53.5 -48t-57.5 -33.5t-75 -16.5q-141 0 -141 164v275q0 27 -12 37t-48 15l-16 2v34l153 23h15v-372q0 -54 22.5 -79t70.5 -25q73 0 142 53v312q0 27 -12 37t-48 15l-16 2v34l152 23h16v-432q0 -25 11 -33.5t45 -12.5l26 -3v-34l-160 -35h-14z
M310 593q-67 0 -104 44t-37 124h39q4 -52 31.5 -77t70.5 -25t70.5 25t31.5 77h39q0 -80 -37 -124t-104 -44z" />
    <glyph glyph-name="Uring" unicode="&#x16e;" horiz-adv-x="766" 
d="M207 590v-344q0 -93 48.5 -143t134.5 -50q104 0 156.5 48t52.5 153v336q0 43 -23.5 57t-78.5 16v39h261v-39q-54 -2 -77.5 -16t-23.5 -57v-355q0 -118 -77 -181t-192 -63q-130 0 -204 61.5t-74 184.5v353q0 43 -23.5 57t-78.5 16v39h300v-39q-54 -2 -77.5 -16t-23.5 -57z
M310 835q0 39 26 65t67 26t67 -26t26 -65t-26 -65t-67 -26t-67 26t-26 65zM454 835q0 24 -13 39t-38 15t-38 -15t-13 -39t13 -39t38 -15t38 15t13 39z" />
    <glyph glyph-name="uring" unicode="&#x16f;" horiz-adv-x="629" 
d="M425 -10v98q-33 -31 -53.5 -48t-57.5 -33.5t-75 -16.5q-141 0 -141 164v275q0 27 -12 37t-48 15l-16 2v34l153 23h15v-372q0 -54 22.5 -79t70.5 -25q73 0 142 53v312q0 27 -12 37t-48 15l-16 2v34l152 23h16v-432q0 -25 11 -33.5t45 -12.5l26 -3v-34l-160 -35h-14z
M217 679q0 39 26 65t67 26t67 -26t26 -65t-26 -65t-67 -26t-67 26t-26 65zM361 679q0 24 -13 39t-38 15t-38 -15t-13 -39t13 -39t38 -15t38 15t13 39z" />
    <glyph glyph-name="Uhungarumlaut" unicode="&#x170;" horiz-adv-x="766" 
d="M207 590v-344q0 -93 48.5 -143t134.5 -50q104 0 156.5 48t52.5 153v336q0 43 -23.5 57t-78.5 16v39h261v-39q-54 -2 -77.5 -16t-23.5 -57v-355q0 -118 -77 -181t-192 -63q-130 0 -204 61.5t-74 184.5v353q0 43 -23.5 57t-78.5 16v39h300v-39q-54 -2 -77.5 -16t-23.5 -57z
M371 910h106l-133 -149h-40zM521 910h106l-133 -149h-40z" />
    <glyph glyph-name="uhungarumlaut" unicode="&#x171;" horiz-adv-x="629" 
d="M425 -10v98q-33 -31 -53.5 -48t-57.5 -33.5t-75 -16.5q-141 0 -141 164v275q0 27 -12 37t-48 15l-16 2v34l153 23h15v-372q0 -54 22.5 -79t70.5 -25q73 0 142 53v312q0 27 -12 37t-48 15l-16 2v34l152 23h16v-432q0 -25 11 -33.5t45 -12.5l26 -3v-34l-160 -35h-14z
M276 761h102l-129 -169h-40zM426 761h102l-129 -169h-40z" />
    <glyph glyph-name="Uogonek" unicode="&#x172;" horiz-adv-x="766" 
d="M207 590v-344q0 -93 48.5 -143t134.5 -50q104 0 156.5 48t52.5 153v336q0 43 -23.5 57t-78.5 16v39h261v-39q-54 -2 -77.5 -16t-23.5 -57v-355q0 -90 -46.5 -148.5t-123.5 -81.5q-127 -53 -127 -112q0 -19 13 -31t36 -12q45 0 92 37l12 -17q-60 -75 -130 -75
q-39 0 -64.5 22t-25.5 60q0 65 93 114q-130 1 -203 62t-73 184v353q0 43 -23.5 57t-78.5 16v39h300v-39q-54 -2 -77.5 -16t-23.5 -57z" />
    <glyph glyph-name="uogonek" unicode="&#x173;" horiz-adv-x="629" 
d="M599 25q-120 -29 -168 -62t-48 -75q0 -19 13 -31t36 -12q45 0 92 37l12 -17q-60 -75 -130 -75q-39 0 -64.5 22t-25.5 60q0 41 29 69.5t80 53.5v93q-33 -31 -53.5 -48t-57.5 -33.5t-75 -16.5q-141 0 -141 164v275q0 27 -12 37t-48 15l-16 2v34l153 23h15v-372
q0 -54 22.5 -79t70.5 -25q73 0 142 53v312q0 27 -12 37t-48 15l-16 2v34l152 23h16v-432q0 -25 11 -33.5t45 -12.5l26 -3v-34z" />
    <glyph glyph-name="Wcircumflex" unicode="&#x174;" horiz-adv-x="961" 
d="M669 148l152 431q11 33 11 40q0 23 -20.5 32.5t-73.5 11.5v39h218v-39q-17 -3 -26 -5t-19 -10t-15 -22l-230 -635h-29l-153 431l-152 -431h-29l-237 635q-12 30 -61 37v39h266v-39q-52 -2 -72.5 -11t-20.5 -32q0 -10 10 -40l153 -432l118 346l-45 132q-5 14 -15.5 22
t-19 10t-26.5 5v39h256v-39q-53 -2 -73.5 -11t-20.5 -32q0 -10 10 -40zM514 920l150 -159h-46l-138 90l-138 -90h-46l150 159h68z" />
    <glyph glyph-name="wcircumflex" unicode="&#x175;" horiz-adv-x="793" 
d="M558 137l106 295q6 18 6 27q0 17 -14.5 23.5t-55.5 12.5v35h188v-35q-35 -12 -43.5 -18t-14.5 -22l-174 -465h-25l-132 353l-134 -353h-24l-179 465q-6 16 -15 22.5t-42 17.5v35h226v-35q-41 -6 -55.5 -12.5t-14.5 -23.5q0 -11 7 -30l106 -290l99 268l-17 48
q-6 16 -15.5 22.5t-43.5 17.5v35h223v-35q-42 -6 -56.5 -12.5t-14.5 -23.5q0 -11 7 -30zM430 765l140 -173h-46l-128 103l-128 -103h-46l140 173h68z" />
    <glyph glyph-name="Ycircumflex" unicode="&#x176;" horiz-adv-x="663" 
d="M350 334l157 246q17 29 17 46q0 20 -19 27.5t-72 9.5v39h225v-39q-42 -6 -61 -37l-221 -343v-171q0 -43 23.5 -57t77.5 -16v-39h-298v39q55 2 78.5 16t23.5 57v170l-215 344q-19 31 -61 37v39h265v-39q-52 -2 -71.5 -9.5t-19.5 -27.5q0 -18 18 -46zM381 920l150 -159h-46
l-138 90l-138 -90h-46l150 159h68z" />
    <glyph glyph-name="ycircumflex" unicode="&#x177;" horiz-adv-x="561" 
d="M262 -3l-198 458q-7 16 -16 21.5t-43 18.5v35h234v-35q-42 -6 -57 -12.5t-15 -23.5q0 -12 7 -27l132 -326l123 326q7 18 7 27q0 17 -15 23.5t-57 12.5v35h192v-35q-35 -13 -44 -18.5t-15 -21.5l-221 -557q-20 -52 -47 -78.5t-70 -26.5q-50 0 -77 36v46h52q48 0 70.5 14
t37.5 55zM340 765l140 -173h-46l-128 103l-128 -103h-46l140 173h68z" />
    <glyph glyph-name="Ydieresis" unicode="&#x178;" horiz-adv-x="663" 
d="M350 334l157 246q17 29 17 46q0 20 -19 27.5t-72 9.5v39h225v-39q-42 -6 -61 -37l-221 -343v-171q0 -43 23.5 -57t77.5 -16v-39h-298v39q55 2 78.5 16t23.5 57v170l-215 344q-19 31 -61 37v39h265v-39q-52 -2 -71.5 -9.5t-19.5 -27.5q0 -18 18 -46zM186 832q0 25 18 42.5
t43 17.5t43 -17.5t18 -42.5q0 -26 -17.5 -44t-43.5 -18t-43.5 18t-17.5 44zM386 832q0 25 18 42.5t43 17.5t43 -17.5t18 -42.5q0 -26 -17.5 -44t-43.5 -18t-43.5 18t-17.5 44z" />
    <glyph glyph-name="Zacute" unicode="&#x179;" horiz-adv-x="620" 
d="M155 47h242q26 0 46.5 7t33.5 15t30 32.5t25.5 40t30.5 56.5h33l-33 -198h-538v25l427 629h-223q-57 0 -80.5 -25t-61.5 -112h-29v185h521v-26zM351 910h120l-155 -149h-39z" />
    <glyph glyph-name="zacute" unicode="&#x17a;" horiz-adv-x="500" 
d="M37 0v22l310 463h-162q-36 0 -54 -24t-38 -94h-41v163h406v-26l-305 -459h155q42 0 72 29.5t48 99.5h41l-18 -174h-414zM296 761h116l-151 -169h-39z" />
    <glyph glyph-name="Zdotaccent" unicode="&#x17b;" horiz-adv-x="620" 
d="M155 47h242q26 0 46.5 7t33.5 15t30 32.5t25.5 40t30.5 56.5h33l-33 -198h-538v25l427 629h-223q-57 0 -80.5 -25t-61.5 -112h-29v185h521v-26zM310 767q-27 0 -46 19.5t-19 47.5t19 47.5t46 19.5t46 -19.5t19 -47.5t-19 -47.5t-46 -19.5z" />
    <glyph glyph-name="zdotaccent" unicode="&#x17c;" horiz-adv-x="500" 
d="M37 0v22l310 463h-162q-36 0 -54 -24t-38 -94h-41v163h406v-26l-305 -459h155q42 0 72 29.5t48 99.5h41l-18 -174h-414zM253 611q-27 0 -46 19.5t-19 47.5t19 47.5t46 19.5t46 -19.5t19 -47.5t-19 -47.5t-46 -19.5z" />
    <glyph glyph-name="Zcaron" unicode="&#x17d;" horiz-adv-x="620" 
d="M155 47h242q26 0 46.5 7t33.5 15t30 32.5t25.5 40t30.5 56.5h33l-33 -198h-538v25l427 629h-223q-57 0 -80.5 -25t-61.5 -112h-29v185h521v-26zM494 920l-150 -159h-68l-150 159h46l138 -90l138 90h46z" />
    <glyph glyph-name="zcaron" unicode="&#x17e;" horiz-adv-x="500" 
d="M37 0v22l310 463h-162q-36 0 -54 -24t-38 -94h-41v163h406v-26l-305 -459h155q42 0 72 29.5t48 99.5h41l-18 -174h-414zM427 769l-140 -173h-68l-140 173h46l128 -103l128 103h46z" />
    <glyph glyph-name="florin" unicode="&#x192;" horiz-adv-x="501" 
d="M93 310l6 42h86l12 87q36 273 195 273q51 0 75 -20t24 -53q0 -43 -49 -58h-19q-2 92 -51 92q-47 0 -60 -93l-31 -228h113l-4 -42h-115l-27 -205q-36 -273 -195 -273q-51 0 -75 20t-24 53q0 43 49 58h19q2 -92 51 -92q47 0 60 93l46 346h-86z" />
    <glyph glyph-name="Aringacute" unicode="&#x1fa;" horiz-adv-x="723" 
d="M532 122l-47 110h-295l-44 -109q-11 -27 -11 -40q0 -23 21 -32.5t73 -11.5v-39h-224v39q49 7 61 37l237 569l-31 66h111l275 -635q8 -19 21.5 -26.5t38.5 -10.5v-39h-268v39q52 2 72.5 11t20.5 32q0 12 -11 40zM335 589l-127 -313h259zM244 819q0 36 27.5 58.5t71.5 22.5
q45 0 72.5 -22t27.5 -59q0 -36 -28 -58t-72 -22t-71.5 22t-27.5 58zM399 819q0 22 -14.5 35t-41.5 13q-26 0 -40.5 -13t-14.5 -35q0 -21 14.5 -34t40.5 -13q27 0 41.5 13t14.5 34zM376 1026h117l-127 -102h-39z" />
    <glyph glyph-name="aringacute" unicode="&#x1fb;" horiz-adv-x="535" 
d="M167 649q0 36 27.5 58.5t71.5 22.5q45 0 72.5 -22t27.5 -59q0 -36 -28 -58t-72 -22t-71.5 22t-27.5 58zM322 649q0 22 -14.5 35t-41.5 13q-26 0 -40.5 -13t-14.5 -35q0 -21 14.5 -34t40.5 -13q27 0 41.5 13t14.5 34zM299 860h117l-127 -102h-39zM219 60q62 0 123 45v179
l-142 -54q-61 -23 -61 -81q0 -43 21 -66t59 -23zM435 372q0 -15 -1.5 -120.5t-1.5 -127.5q0 -68 46 -68q24 0 47 6l5 -24q-48 -48 -100 -48q-70 0 -85 91q-80 -91 -167 -91q-65 0 -99 38.5t-34 96.5q0 33 11.5 58.5t34.5 42.5t43 26.5t50 20.5l158 57v49q0 113 -99 113
q-82 0 -82 -74q0 -24 7 -52l-75 -10q-21 21 -21 54q0 60 53 95t137 35q173 0 173 -168z" />
    <glyph glyph-name="AEacute" unicode="&#x1fc;" horiz-adv-x="1055" 
d="M70 76l390 551q-7 20 -28 27t-70 9v39h618v-167h-27q-28 69 -57.5 95t-87.5 26h-191v-274h170q32 0 48 21.5t24 68.5h34v-226h-34q-8 47 -24 68.5t-48 21.5h-170v-222q0 -39 23 -53.5t78 -14.5h100q27 0 46 5t32.5 11t29.5 26.5t26.5 36t34.5 55.5h28l-30 -180h-566v39
q55 2 78.5 16t23.5 57v140h-264l-91 -130q-17 -24 -17 -48q0 -22 18.5 -27.5t78.5 -7.5v-39h-241v39q42 6 65 37zM521 630l-234 -334h234v334zM701 910h120l-155 -149h-39z" />
    <glyph glyph-name="aeacute" unicode="&#x1fd;" horiz-adv-x="828" 
d="M586 540q97 0 149 -61t52 -162v-31h-358q0 -99 49.5 -159.5t133.5 -60.5q94 0 159 86l17 -9q-19 -69 -73.5 -111t-136.5 -42q-131 0 -195 109q-84 -109 -195 -109q-66 0 -104.5 39t-38.5 96q0 27 9 49t22 36t33.5 26t37.5 18.5t40 13.5l164 48q3 17 11 47q-3 53 -30.5 91
t-88.5 38q-82 0 -82 -74q0 -24 7 -52l-75 -10q-21 21 -21 54q0 60 52 95t132 35q117 0 159 -79q68 79 171 79zM346 248v20l-143 -43q-64 -20 -64 -81q0 -39 21 -61.5t59 -22.5q79 0 153 60q-26 57 -26 128zM571 491q-57 0 -94.5 -46.5t-43.5 -112.5h262q0 74 -32 116.5
t-92 42.5zM459 761h116l-151 -169h-39z" />
    <glyph glyph-name="Oslashacute" unicode="&#x1fe;" horiz-adv-x="754" 
d="M655 727l-61 -92q114 -100 114 -270q0 -168 -97 -271.5t-237 -103.5q-99 0 -174 47l-61 -93l-39 23l63 96q-57 48 -87 120t-30 154q0 168 97 271.5t237 103.5q99 0 178 -50l58 88zM153 354q0 -134 59 -217l303 460q-58 60 -149 60q-103 0 -158 -84.5t-55 -218.5zM388 45
q103 0 158 84.5t55 218.5q0 130 -56 213l-303 -460q58 -56 146 -56zM418 910h120l-155 -149h-39z" />
    <glyph glyph-name="oslashacute" unicode="&#x1ff;" horiz-adv-x="572" 
d="M490 561l-45 -76q87 -74 87 -210q0 -126 -72 -205.5t-177 -79.5q-61 0 -115 26l-45 -77l-41 25l46 79q-88 74 -88 212q0 126 72 205.5t177 79.5q65 0 116 -28l44 74zM136 273q0 -98 34 -159l201 340q-39 34 -94 34q-69 0 -105 -58t-36 -157zM295 42q69 0 105 58t36 157
q0 95 -33 156l-201 -339q37 -32 93 -32zM329 761h116l-151 -169h-39z" />
    <glyph glyph-name="Scommaaccent" unicode="&#x218;" horiz-adv-x="556" 
d="M265 -10q-67 0 -125 19.5t-93 49.5l-7 164h35q24 -84 72 -133.5t121 -49.5q71 0 111 33.5t40 94.5q0 50 -36 80.5t-130 65.5q-108 40 -156.5 85t-48.5 125q0 82 58.5 135t160.5 53q113 0 208 -63v-153h-33q-18 76 -64 121t-116 45q-61 0 -94 -31t-33 -81
q0 -51 32.5 -80.5t125.5 -64.5q116 -43 166.5 -90t50.5 -127q0 -92 -70.5 -145t-174.5 -53zM304 -153h-48q-42 8 -42 48q0 24 17.5 38.5t45.5 14.5q35 0 55 -21.5t20 -54.5q0 -102 -126 -102v33q78 0 78 44z" />
    <glyph glyph-name="scommaaccent" unicode="&#x219;" horiz-adv-x="451" 
d="M227 -10q-116 0 -181 49l-6 133h37q32 -137 151 -137q48 0 75 21.5t27 60.5q0 46 -30.5 69t-105.5 46q-74 23 -111 58t-37 99q0 67 47 109t125 42q91 0 165 -42v-124h-38q-21 120 -130 120q-40 0 -63.5 -22.5t-23.5 -56.5q0 -40 28.5 -64.5t89.5 -43.5q87 -27 127 -59.5
t40 -102.5q0 -67 -50.5 -111t-135.5 -44zM253 -153h-48q-42 8 -42 48q0 24 17.5 38.5t45.5 14.5q35 0 55 -21.5t20 -54.5q0 -102 -126 -102v33q78 0 78 44z" />
    <glyph glyph-name="uni0237" unicode="&#x237;" horiz-adv-x="270" 
d="M191 540v-454q0 -61 -4.5 -94.5t-20.5 -66.5q-30 -59 -133 -133l-23 25l32 41q36 46 46.5 89.5t10.5 122.5v364l-73 35v21l141 50h24z" />
    <glyph glyph-name="circumflex" unicode="&#x2c6;" horiz-adv-x="500" 
d="M284 765l140 -173h-46l-128 103l-128 -103h-46l140 173h68z" />
    <glyph glyph-name="caron" unicode="&#x2c7;" horiz-adv-x="500" 
d="M424 769l-140 -173h-68l-140 173h46l128 -103l128 103h46z" />
    <glyph glyph-name="breve" unicode="&#x2d8;" horiz-adv-x="500" 
d="M250 593q-67 0 -104 44t-37 124h39q4 -52 31.5 -77t70.5 -25t70.5 25t31.5 77h39q0 -80 -37 -124t-104 -44z" />
    <glyph glyph-name="dotaccent" unicode="&#x2d9;" horiz-adv-x="500" 
d="M250 611q-27 0 -46 19.5t-19 47.5t19 47.5t46 19.5t46 -19.5t19 -47.5t-19 -47.5t-46 -19.5z" />
    <glyph glyph-name="ring" unicode="&#x2da;" horiz-adv-x="500" 
d="M157 679q0 39 26 65t67 26t67 -26t26 -65t-26 -65t-67 -26t-67 26t-26 65zM301 679q0 24 -13 39t-38 15t-38 -15t-13 -39t13 -39t38 -15t38 15t13 39z" />
    <glyph glyph-name="ogonek" unicode="&#x2db;" horiz-adv-x="500" 
d="M321 23l13 -23q-127 -53 -127 -112q0 -19 13 -31t36 -12q45 0 92 37l12 -17q-60 -75 -130 -75q-39 0 -64.5 22t-25.5 60q0 51 48.5 86t132.5 65z" />
    <glyph glyph-name="tilde" unicode="&#x2dc;" horiz-adv-x="500" 
d="M396 741l37 -10q-33 -72 -57.5 -96t-60.5 -24q-32 0 -80 36t-67 36q-21 0 -33.5 -13t-31.5 -49l-37 10q33 72 57.5 96t60.5 24q32 0 80 -36t67 -36q21 0 33.5 13t31.5 49z" />
    <glyph glyph-name="hungarumlaut" unicode="&#x2dd;" horiz-adv-x="500" 
d="M157 761h102l-129 -169h-40zM307 761h102l-129 -169h-40z" />
    <glyph glyph-name="pi" unicode="&#x3c0;" horiz-adv-x="630" 
d="M373 112v344h-157q0 -281 -40 -456h-101v17q28 84 41.5 128.5t29 134t15.5 176.5h-97v74h492l-17 -74h-80v-330q0 -70 59 -70q24 0 47 6l5 -24q-48 -48 -100 -48q-44 0 -70.5 30.5t-26.5 91.5z" />
    <glyph glyph-name="Wgrave" unicode="&#x1e80;" horiz-adv-x="961" 
d="M669 148l152 431q11 33 11 40q0 23 -20.5 32.5t-73.5 11.5v39h218v-39q-17 -3 -26 -5t-19 -10t-15 -22l-230 -635h-29l-153 431l-152 -431h-29l-237 635q-12 30 -61 37v39h266v-39q-52 -2 -72.5 -11t-20.5 -32q0 -10 10 -40l153 -432l118 346l-45 132q-5 14 -15.5 22
t-19 10t-26.5 5v39h256v-39q-53 -2 -73.5 -11t-20.5 -32q0 -10 10 -40zM315 910h120l74 -149h-39z" />
    <glyph glyph-name="wgrave" unicode="&#x1e81;" horiz-adv-x="793" 
d="M558 137l106 295q6 18 6 27q0 17 -14.5 23.5t-55.5 12.5v35h188v-35q-35 -12 -43.5 -18t-14.5 -22l-174 -465h-25l-132 353l-134 -353h-24l-179 465q-6 16 -15 22.5t-42 17.5v35h226v-35q-41 -6 -55.5 -12.5t-14.5 -23.5q0 -11 7 -30l106 -290l99 268l-17 48
q-6 16 -15.5 22.5t-43.5 17.5v35h223v-35q-42 -6 -56.5 -12.5t-14.5 -23.5q0 -11 7 -30zM231 761h116l74 -169h-39z" />
    <glyph glyph-name="Wacute" unicode="&#x1e82;" horiz-adv-x="961" 
d="M669 148l152 431q11 33 11 40q0 23 -20.5 32.5t-73.5 11.5v39h218v-39q-17 -3 -26 -5t-19 -10t-15 -22l-230 -635h-29l-153 431l-152 -431h-29l-237 635q-12 30 -61 37v39h266v-39q-52 -2 -72.5 -11t-20.5 -32q0 -10 10 -40l153 -432l118 346l-45 132q-5 14 -15.5 22
t-19 10t-26.5 5v39h256v-39q-53 -2 -73.5 -11t-20.5 -32q0 -10 10 -40zM521 910h120l-155 -149h-39z" />
    <glyph glyph-name="wacute" unicode="&#x1e83;" horiz-adv-x="793" 
d="M558 137l106 295q6 18 6 27q0 17 -14.5 23.5t-55.5 12.5v35h188v-35q-35 -12 -43.5 -18t-14.5 -22l-174 -465h-25l-132 353l-134 -353h-24l-179 465q-6 16 -15 22.5t-42 17.5v35h226v-35q-41 -6 -55.5 -12.5t-14.5 -23.5q0 -11 7 -30l106 -290l99 268l-17 48
q-6 16 -15.5 22.5t-43.5 17.5v35h223v-35q-42 -6 -56.5 -12.5t-14.5 -23.5q0 -11 7 -30zM439 761h116l-151 -169h-39z" />
    <glyph glyph-name="Wdieresis" unicode="&#x1e84;" horiz-adv-x="961" 
d="M669 148l152 431q11 33 11 40q0 23 -20.5 32.5t-73.5 11.5v39h218v-39q-17 -3 -26 -5t-19 -10t-15 -22l-230 -635h-29l-153 431l-152 -431h-29l-237 635q-12 30 -61 37v39h266v-39q-52 -2 -72.5 -11t-20.5 -32q0 -10 10 -40l153 -432l118 346l-45 132q-5 14 -15.5 22
t-19 10t-26.5 5v39h256v-39q-53 -2 -73.5 -11t-20.5 -32q0 -10 10 -40zM319 832q0 25 18 42.5t43 17.5t43 -17.5t18 -42.5q0 -26 -17.5 -44t-43.5 -18t-43.5 18t-17.5 44zM519 832q0 25 18 42.5t43 17.5t43 -17.5t18 -42.5q0 -26 -17.5 -44t-43.5 -18t-43.5 18t-17.5 44z
" />
    <glyph glyph-name="wdieresis" unicode="&#x1e85;" horiz-adv-x="793" 
d="M558 137l106 295q6 18 6 27q0 17 -14.5 23.5t-55.5 12.5v35h188v-35q-35 -12 -43.5 -18t-14.5 -22l-174 -465h-25l-132 353l-134 -353h-24l-179 465q-6 16 -15 22.5t-42 17.5v35h226v-35q-41 -6 -55.5 -12.5t-14.5 -23.5q0 -11 7 -30l106 -290l99 268l-17 48
q-6 16 -15.5 22.5t-43.5 17.5v35h223v-35q-42 -6 -56.5 -12.5t-14.5 -23.5q0 -11 7 -30zM240 677q0 25 18 42.5t43 17.5t43 -17.5t18 -42.5q0 -26 -17.5 -44t-43.5 -18t-43.5 18t-17.5 44zM430 677q0 25 18 42.5t43 17.5t43 -17.5t18 -42.5q0 -26 -17.5 -44t-43.5 -18
t-43.5 18t-17.5 44z" />
    <glyph glyph-name="Ygrave" unicode="&#x1ef2;" horiz-adv-x="663" 
d="M350 334l157 246q17 29 17 46q0 20 -19 27.5t-72 9.5v39h225v-39q-42 -6 -61 -37l-221 -343v-171q0 -43 23.5 -57t77.5 -16v-39h-298v39q55 2 78.5 16t23.5 57v170l-215 344q-19 31 -61 37v39h265v-39q-52 -2 -71.5 -9.5t-19.5 -27.5q0 -18 18 -46zM182 910h120l74 -149
h-39z" />
    <glyph glyph-name="ygrave" unicode="&#x1ef3;" horiz-adv-x="561" 
d="M262 -3l-198 458q-7 16 -16 21.5t-43 18.5v35h234v-35q-42 -6 -57 -12.5t-15 -23.5q0 -12 7 -27l132 -326l123 326q7 18 7 27q0 17 -15 23.5t-57 12.5v35h192v-35q-35 -13 -44 -18.5t-15 -21.5l-221 -557q-20 -52 -47 -78.5t-70 -26.5q-50 0 -77 36v46h52q48 0 70.5 14
t37.5 55zM141 761h116l74 -169h-39z" />
    <glyph glyph-name="endash" unicode="&#x2013;" horiz-adv-x="580" 
d="M530 272h-480v66h480v-66z" />
    <glyph glyph-name="emdash" unicode="&#x2014;" horiz-adv-x="1000" 
d="M950 338v-66h-900v66h900z" />
    <glyph glyph-name="quoteleft" unicode="&#x2018;" horiz-adv-x="268" 
d="M117 632h38q45 -10 45 -58q0 -28 -19 -45.5t-47 -17.5q-36 0 -55.5 25.5t-19.5 66.5q0 66 39.5 109t122.5 49v-40q-104 -16 -104 -89z" />
    <glyph glyph-name="quoteright" unicode="&#x2019;" horiz-adv-x="268" 
d="M154 640h-38q-45 10 -45 58q0 28 19 45.5t47 17.5q36 0 55.5 -25.5t19.5 -66.5q0 -66 -39.5 -109t-122.5 -49v40q104 16 104 89z" />
    <glyph glyph-name="quotesinglbase" unicode="&#x201a;" horiz-adv-x="268" 
d="M154 16h-38q-45 10 -45 58q0 28 19 45.5t47 17.5q36 0 55.5 -25.5t19.5 -66.5q0 -66 -39.5 -109t-122.5 -49v40q104 16 104 89z" />
    <glyph glyph-name="quotedblleft" unicode="&#x201c;" horiz-adv-x="465" 
d="M117 632h38q45 -10 45 -58q0 -28 -19 -45.5t-47 -17.5q-36 0 -55.5 25.5t-19.5 66.5q0 66 39.5 109t122.5 49v-40q-104 -16 -104 -89zM314 632h38q45 -10 45 -58q0 -28 -19 -45.5t-47 -17.5q-36 0 -55.5 25.5t-19.5 66.5q0 66 39.5 109t122.5 49v-40q-104 -16 -104 -89z
" />
    <glyph glyph-name="quotedblright" unicode="&#x201d;" horiz-adv-x="465" 
d="M351 640h-38q-45 10 -45 58q0 28 19 45.5t47 17.5q36 0 55.5 -25.5t19.5 -66.5q0 -66 -39.5 -109t-122.5 -49v40q104 16 104 89zM154 640h-38q-45 10 -45 58q0 28 19 45.5t47 17.5q36 0 55.5 -25.5t19.5 -66.5q0 -66 -39.5 -109t-122.5 -49v40q104 16 104 89z" />
    <glyph glyph-name="quotedblbase" unicode="&#x201e;" horiz-adv-x="465" 
d="M351 16h-38q-45 10 -45 58q0 28 19 45.5t47 17.5q36 0 55.5 -25.5t19.5 -66.5q0 -66 -39.5 -109t-122.5 -49v40q104 16 104 89zM154 16h-38q-45 10 -45 58q0 28 19 45.5t47 17.5q36 0 55.5 -25.5t19.5 -66.5q0 -66 -39.5 -109t-122.5 -49v40q104 16 104 89z" />
    <glyph glyph-name="dagger" unicode="&#x2020;" horiz-adv-x="462" 
d="M45 605l165 -12l-12 165h65l-13 -165l167 12v-61l-167 11l13 -303h-65l13 303l-166 -11v61z" />
    <glyph glyph-name="daggerdbl" unicode="&#x2021;" horiz-adv-x="482" 
d="M222 565l-167 -11v61l165 -12l-12 155h65l-13 -155l167 12v-61l-168 11v-121l168 12v-61l-167 11l13 -154h-65l12 154l-165 -11v61l167 -12v121z" />
    <glyph glyph-name="bullet" unicode="&#x2022;" horiz-adv-x="354" 
d="M55 300q0 50 36 86t86 36t86 -36t36 -86t-36 -86t-86 -36t-86 36t-36 86z" />
    <glyph glyph-name="ellipsis" unicode="&#x2026;" horiz-adv-x="852" 
d="M69 63q0 31 21 52t52 21t52 -21t21 -52t-21 -52t-52 -21t-52 21t-21 52zM353 63q0 31 21 52t52 21t52 -21t21 -52t-21 -52t-52 -21t-52 21t-21 52zM637 63q0 31 21 52t52 21t52 -21t21 -52t-21 -52t-52 -21t-52 21t-21 52z" />
    <glyph glyph-name="perthousand" unicode="&#x2030;" horiz-adv-x="1254" 
d="M121 530q0 -61 22.5 -101t70.5 -40t71 40t23 101t-23 101t-71 40t-70.5 -40t-22.5 -101zM178 -19l450 741h59l-450 -741h-59zM40 530q0 82 51.5 132t122.5 50q72 0 123.5 -50t51.5 -132t-51.5 -132t-123.5 -50q-71 0 -122.5 50t-51.5 132zM744 173q0 61 -22.5 101
t-70.5 40t-71 -40t-23 -101t23 -101t71 -40t70.5 40t22.5 101zM825 173q0 -82 -51.5 -132t-122.5 -50q-72 0 -123.5 50t-51.5 132t51.5 132t123.5 50q71 0 122.5 -50t51.5 -132zM1133 173q0 61 -22.5 101t-70.5 40t-71 -40t-23 -101t23 -101t71 -40t70.5 40t22.5 101z
M1214 173q0 -82 -51.5 -132t-122.5 -50q-72 0 -123.5 50t-51.5 132t51.5 132t123.5 50q71 0 122.5 -50t51.5 -132z" />
    <glyph glyph-name="guilsinglleft" unicode="&#x2039;" horiz-adv-x="298" 
d="M45 269v10l161 190h47l-115 -195l115 -195h-47z" />
    <glyph glyph-name="guilsinglright" unicode="&#x203a;" horiz-adv-x="298" 
d="M253 279v-10l-161 -190h-47l115 195l-115 195h47z" />
    <glyph glyph-name="fraction" unicode="&#x2044;" horiz-adv-x="283" 
d="M-113 0l449 741h60l-450 -741h-59z" />
    <glyph glyph-name="Euro" unicode="&#x20ac;" horiz-adv-x="679" 
d="M23 384v43h92q20 133 97.5 209t189.5 76q125 0 203 -60v-154h-37q-36 160 -170 160q-76 0 -122.5 -64.5t-58.5 -166.5h270l-14 -43h-259v-21q0 -33 1 -49h240l-14 -43h-222q14 -104 61 -166t132 -62q74 0 115 41.5t68 130.5h39l-18 -171q-101 -54 -207 -54
q-128 0 -204 75.5t-92 205.5h-90v43h86v27q0 29 1 43h-87z" />
    <glyph glyph-name="uni2117" unicode="&#x2117;" horiz-adv-x="796" 
d="M416 320h-50v-100q0 -24 16.5 -32t53.5 -8v-26h-191v26q30 1 41.5 8.5t11.5 31.5v264q0 25 -11.5 32.5t-41.5 8.5v26h171q75 0 113 -32.5t38 -81.5q0 -55 -37.5 -86t-113.5 -31zM366 519v-168h36q91 0 91 85q0 39 -24.5 61t-72.5 22h-30zM82 351q0 -135 89.5 -228.5
t226.5 -93.5t226.5 93.5t89.5 228.5t-89.5 228.5t-226.5 93.5t-226.5 -93.5t-89.5 -228.5zM40 351q0 151 101.5 256t256.5 105t256.5 -105t101.5 -256t-101.5 -256t-256.5 -105t-256.5 105t-101.5 256z" />
    <glyph glyph-name="trademark" unicode="&#x2122;" horiz-adv-x="873" 
d="M52 702h296l8 -98h-24q-11 23 -16 32t-13.5 19t-18 12.5t-25.5 2.5h-26v-243q0 -17 11.5 -22.5t38.5 -7.5v-27h-165v27q26 2 38 7.5t12 22.5v243h-26q-29 0 -41 -12t-31 -54h-25zM585 461l83 213q4 10 7 28h95v-27q-38 -3 -39 -29l29 -225q1 -13 10 -17.5t30 -6.5v-27
h-147v27q26 2 35.5 6.5t9.5 18.5q0 8 -4 32l-20 153l-89 -237h-29l-90 237l-20 -152q-3 -19 -3 -33t9.5 -18.5t35.5 -6.5v-27h-120v27q36 1 39 24l29 225q-1 26 -40 29v27h101q3 -18 7 -28z" />
    <glyph glyph-name="Omega" unicode="&#x2126;" horiz-adv-x="786" 
d="M393 667q-50 0 -86 -24t-55 -64.5t-27.5 -84t-8.5 -92.5q0 -106 36 -192.5t99 -139.5v-70h-261l-25 174h31q38 -72 61.5 -88t90.5 -16h59q-77 38 -137 131.5t-60 200.5q0 137 77 223.5t206 86.5t206 -86.5t77 -223.5q0 -107 -60 -200.5t-137 -131.5h59q67 0 90.5 16
t61.5 88h31l-25 -174h-261v70q63 53 99 139.5t36 192.5q0 49 -8.5 92.5t-27.5 84t-55 64.5t-86 24z" />
    <glyph glyph-name="uni2153" unicode="&#x2153;" horiz-adv-x="900" 
d="M213 748h21v-381q0 -28 19.5 -36t77.5 -11v-33h-276v33q59 3 78 11t19 36v268h-97v28l29 5q44 7 71.5 25t57.5 55zM212 0l449 741h60l-450 -741h-59zM715 182q61 -7 98 -41t37 -86q0 -62 -49.5 -97t-119.5 -35q-71 0 -111.5 28.5t-40.5 68.5q0 32 28 47h50v-23
q0 -87 81 -87q37 0 58.5 23.5t21.5 67.5q0 93 -115 93h-24l-3 24q63 23 93 45t30 56q0 29 -19.5 46.5t-56.5 17.5q-62 0 -99 -67l-26 17q21 48 61.5 78.5t96.5 30.5q57 0 90 -27.5t33 -70.5q0 -72 -114 -109z" />
    <glyph glyph-name="uni2154" unicode="&#x2154;" horiz-adv-x="932" 
d="M118 362h113q40 0 58 11.5t42 55.5h24l-16 -142h-321v24l118 117q61 60 85 97.5t24 74.5q0 39 -23.5 60.5t-63.5 21.5q-23 0 -45.5 -10t-34 -19t-30.5 -27l-16 17q24 46 65 75.5t94 29.5q66 0 102.5 -34t36.5 -94q0 -27 -9 -51t-34.5 -53t-41.5 -44.5t-62.5 -54.5
t-64.5 -55zM244 0l449 741h60l-450 -741h-59zM747 182q61 -7 98 -41t37 -86q0 -62 -49.5 -97t-119.5 -35q-71 0 -111.5 28.5t-40.5 68.5q0 32 28 47h50v-23q0 -87 81 -87q37 0 58.5 23.5t21.5 67.5q0 93 -115 93h-24l-3 24q63 23 93 45t30 56q0 29 -19.5 46.5t-56.5 17.5
q-62 0 -99 -67l-26 17q21 48 61.5 78.5t96.5 30.5q57 0 90 -27.5t33 -70.5q0 -72 -114 -109z" />
    <glyph glyph-name="uni215B" unicode="&#x215b;" horiz-adv-x="907" 
d="M839 282q0 -38 -26.5 -67.5t-62.5 -38.5q56 -25 81.5 -53t25.5 -67q0 -64 -46 -98.5t-115 -34.5q-73 0 -117.5 32t-44.5 84q0 41 27 70.5t70 41.5q-82 41 -82 112q0 53 39.5 89.5t105.5 36.5t105.5 -29t39.5 -78zM722 105l-68 36q-53 -30 -53 -96q0 -39 26 -61t70 -22
q40 0 63.5 18.5t23.5 50.5q0 43 -62 74zM676 213l54 -27q45 29 45 89q0 36 -22 55.5t-59 19.5q-35 0 -55 -17.5t-20 -43.5q0 -47 57 -76zM213 748h21v-381q0 -28 19.5 -36t77.5 -11v-33h-276v33q59 3 78 11t19 36v268h-97v28l29 5q44 7 71.5 25t57.5 55zM212 0l449 741h60
l-450 -741h-59z" />
    <glyph glyph-name="uni215C" unicode="&#x215c;" horiz-adv-x="919" 
d="M221 537q61 -7 98 -41t37 -86q0 -62 -49.5 -97t-119.5 -35q-71 0 -111.5 28.5t-40.5 68.5q0 32 28 47h50v-23q0 -87 81 -87q37 0 58.5 23.5t21.5 67.5q0 93 -115 93h-24l-3 24q63 23 93 45t30 56q0 29 -19.5 46.5t-56.5 17.5q-62 0 -99 -67l-26 17q21 48 61.5 78.5
t96.5 30.5q57 0 90 -27.5t33 -70.5q0 -72 -114 -109zM851 282q0 -38 -26.5 -67.5t-62.5 -38.5q56 -25 81.5 -53t25.5 -67q0 -64 -46 -98.5t-115 -34.5q-73 0 -117.5 32t-44.5 84q0 41 27 70.5t70 41.5q-82 41 -82 112q0 53 39.5 89.5t105.5 36.5t105.5 -29t39.5 -78z
M734 105l-68 36q-53 -30 -53 -96q0 -39 26 -61t70 -22q40 0 63.5 18.5t23.5 50.5q0 43 -62 74zM688 213l54 -27q45 29 45 89q0 36 -22 55.5t-59 19.5q-35 0 -55 -17.5t-20 -43.5q0 -47 57 -76zM224 0l449 741h60l-450 -741h-59z" />
    <glyph glyph-name="uni215D" unicode="&#x215d;" horiz-adv-x="903" 
d="M332 736v-78h-192l-11 -75q100 -4 159 -44t59 -115q0 -67 -45.5 -107t-115.5 -40q-69 0 -107.5 29t-38.5 69q0 37 28 49h48v-23q0 -89 81 -89q39 0 61 21.5t22 61.5q0 59 -51.5 91.5t-149.5 33.5l37 216h216zM835 282q0 -38 -26.5 -67.5t-62.5 -38.5q56 -25 81.5 -53
t25.5 -67q0 -64 -46 -98.5t-115 -34.5q-73 0 -117.5 32t-44.5 84q0 41 27 70.5t70 41.5q-82 41 -82 112q0 53 39.5 89.5t105.5 36.5t105.5 -29t39.5 -78zM718 105l-68 36q-53 -30 -53 -96q0 -39 26 -61t70 -22q40 0 63.5 18.5t23.5 50.5q0 43 -62 74zM672 213l54 -27
q45 29 45 89q0 36 -22 55.5t-59 19.5q-35 0 -55 -17.5t-20 -43.5q0 -47 57 -76zM208 0l449 741h60l-450 -741h-59z" />
    <glyph glyph-name="uni215E" unicode="&#x215e;" horiz-adv-x="844" 
d="M309 650h-160q-21 0 -33.5 -14.5t-25.5 -49.5h-30l24 150h298v-25l-194 -424h-68zM776 282q0 -38 -26.5 -67.5t-62.5 -38.5q56 -25 81.5 -53t25.5 -67q0 -64 -46 -98.5t-115 -34.5q-73 0 -117.5 32t-44.5 84q0 41 27 70.5t70 41.5q-82 41 -82 112q0 53 39.5 89.5
t105.5 36.5t105.5 -29t39.5 -78zM659 105l-68 36q-53 -30 -53 -96q0 -39 26 -61t70 -22q40 0 63.5 18.5t23.5 50.5q0 43 -62 74zM613 213l54 -27q45 29 45 89q0 36 -22 55.5t-59 19.5q-35 0 -55 -17.5t-20 -43.5q0 -47 57 -76zM149 0l449 741h60l-450 -741h-59z" />
    <glyph glyph-name="partialdiff" unicode="&#x2202;" horiz-adv-x="572" 
d="M275 526q82 0 143 -75q-37 91 -115.5 171.5t-181.5 121.5l19 32q189 -59 290.5 -186t101.5 -289q0 -153 -70 -232t-179 -79q-110 0 -176.5 74t-66.5 191q0 124 68.5 197.5t166.5 73.5zM295 42q69 0 105 58t36 157q0 97 -43 162t-116 65q-69 0 -105 -56t-36 -155
q0 -98 43 -164.5t116 -66.5z" />
    <glyph glyph-name="Delta" unicode="&#x2206;" horiz-adv-x="702" 
d="M662 0h-622v34l285 668h47l290 -668v-34zM327 588l-224 -537h451z" />
    <glyph glyph-name="product" unicode="&#x220f;" horiz-adv-x="777" 
d="M25 702h727v-39q-55 -2 -78.5 -16t-23.5 -57v-675q0 -43 23.5 -57t78.5 -16v-39h-300v39q54 2 78 16t24 57v748h-331v-748q0 -43 24 -57t78 -16v-39h-300v39q55 2 78.5 16t23.5 57v675q0 43 -23.5 57t-78.5 16v39z" />
    <glyph glyph-name="summation" unicode="&#x2211;" horiz-adv-x="593" 
d="M125 -114h208q76 0 104.5 17t73.5 93h32l-29 -193h-489v36l300 410l-298 411v42h490v-167h-27q-28 69 -57.5 95t-87.5 26h-197l261 -363v-21z" />
    <glyph glyph-name="minus" unicode="&#x2212;" horiz-adv-x="564" 
d="M63 340v62h438v-62h-438z" />
    <glyph glyph-name="radical" unicode="&#x221a;" horiz-adv-x="579" 
d="M293 141l208 571h58l-251 -712h-67l-130 434q-9 31 -19.5 42.5t-30.5 11.5h-41v42h169z" />
    <glyph glyph-name="infinity" unicode="&#x221e;" horiz-adv-x="793" 
d="M358 348l-50 55q-44 49 -96 49q-41 0 -69.5 -28t-28.5 -76t28.5 -76t69.5 -28q52 0 96 49zM484 403l-50 -55l50 -55q44 -49 96 -49q41 0 69.5 28t28.5 76t-28.5 76t-69.5 28q-52 0 -96 -49zM396 304l-42 -48q-63 -71 -145 -71q-67 0 -113 44.5t-46 118.5t46 118.5
t113 44.5q82 0 145 -71l42 -48l42 48q63 71 145 71q67 0 113 -44.5t46 -118.5t-46 -118.5t-113 -44.5q-84 0 -145 71z" />
    <glyph glyph-name="integral" unicode="&#x222b;" horiz-adv-x="416" 
d="M219 546v-550q0 -91 -43.5 -141.5t-116.5 -50.5q-52 0 -83 20.5t-31 57.5q0 34 32 52h50v-26q0 -64 48 -64q30 0 41 31.5t11 94.5v550q0 91 43.5 141.5t116.5 50.5q52 0 83 -20.5t31 -57.5q0 -34 -32 -52h-50v26q0 64 -48 64q-30 0 -41 -31.5t-11 -94.5z" />
    <glyph glyph-name="approxequal" unicode="&#x2248;" horiz-adv-x="574" 
d="M68 385v66q61 40 118 40q38 0 100.5 -19.5t99.5 -19.5q59 0 120 40v-66q-61 -40 -120 -40q-37 0 -99.5 19.5t-100.5 19.5q-57 0 -118 -40zM68 256v65q59 40 118 40q38 0 100.5 -19t99.5 -19q61 0 120 39v-66q-59 -39 -120 -39q-37 0 -99.5 19t-100.5 19q-58 0 -118 -39z
" />
    <glyph glyph-name="notequal" unicode="&#x2260;" horiz-adv-x="574" 
d="M68 409v62h259l76 103h69l-76 -103h110v-62h-156l-56 -77h212v-61h-257l-76 -104h-69l76 104h-112v61h157l57 77h-214z" />
    <glyph glyph-name="lessequal" unicode="&#x2264;" horiz-adv-x="433" 
d="M50 399v9l310 166v-71l-190 -99l190 -99v-72zM50 144v61h310v-61h-310z" />
    <glyph glyph-name="greaterequal" unicode="&#x2265;" horiz-adv-x="433" 
d="M383 408v-9l-310 -166v72l190 99l-190 99v71zM383 205v-61h-310v61h310z" />
    <glyph glyph-name="lozenge" unicode="&#x25ca;" horiz-adv-x="607" 
d="M60 351l201 351h85l201 -351l-201 -351h-85zM471 351l-168 299l-167 -299l167 -299z" />
    <glyph glyph-name="Tcedilla.sc" horiz-adv-x="633" 
d="M48 596h537l13 -182h-32q-41 92 -62.5 116t-76.5 24h-63v-455q0 -35 20.5 -47t68.5 -14v-38h-273v38q48 2 68.5 14t20.5 47v455h-63q-55 0 -76.5 -24t-62.5 -116h-32zM337 -153h-48q-42 8 -42 48q0 24 17.5 38.5t45.5 14.5q35 0 55 -21.5t20 -54.5q0 -102 -126 -102v33
q78 0 78 44z" />
    <glyph glyph-name="i.dot" horiz-adv-x="321" 
d="M209 540v-448q0 -17 5 -27.5t17.5 -16t23 -8t31.5 -5.5v-35h-246v35q28 4 41 7.5t24.5 15.5t11.5 34v342l-72 35v21l139 50h25zM161 611q-27 0 -46 19.5t-19 47.5t19 47.5t46 19.5t46 -19.5t19 -47.5t-19 -47.5t-46 -19.5z" />
    <glyph glyph-name="space_uni0326" horiz-adv-x="500" 
d="M271 -153h-48q-42 8 -42 48q0 24 17.5 38.5t45.5 14.5q35 0 55 -21.5t20 -54.5q0 -102 -126 -102v33q78 0 78 44z" />
    <glyph glyph-name="space_uni0326.alt" horiz-adv-x="500" 
d="M229 708h48q42 -8 42 -48q0 -24 -17.5 -38.5t-45.5 -14.5q-35 0 -55 21.5t-20 54.5q0 102 126 102v-33q-78 0 -78 -44z" />
    <glyph glyph-name="space_dotbelowcomb" horiz-adv-x="500" 
d="M250 -186q-27 0 -46 19.5t-19 47.5t19 47.5t46 19.5t46 -19.5t19 -47.5t-19 -47.5t-46 -19.5z" />
    <glyph glyph-name="A.sc" horiz-adv-x="647" 
d="M463 109l-37 85h-252l-35 -85q-9 -22 -9 -34q0 -19 17.5 -27t61.5 -10v-38h-194v38q42 7 52 31l202 476l-28 58h103l236 -534q10 -25 52 -31v-38h-237v38q44 2 61 9.5t17 27.5q0 12 -10 34zM298 490l-106 -254h216z" />
    <glyph glyph-name="B.sc" horiz-adv-x="604" 
d="M302 284h-81v-185q0 -33 19 -45t66 -12h10q137 0 137 119q0 56 -36.5 89.5t-114.5 33.5zM283 553h-62v-227h63q72 0 106 29t34 90q0 48 -35.5 78t-105.5 30zM330 0h-289v38q47 2 66.5 14t19.5 47v398q0 35 -19.5 47t-66.5 14v38h273q102 0 156 -38t54 -112
q0 -60 -42.5 -93t-109.5 -44q88 -7 136 -45.5t48 -103.5q0 -74 -59.5 -117t-166.5 -43z" />
    <glyph glyph-name="C.sc" horiz-adv-x="611" 
d="M357 38q62 0 101 36.5t65 112.5h39l-20 -148q-93 -49 -204 -49q-130 0 -210 83t-80 213q0 145 86.5 232.5t216.5 87.5q119 0 189 -56v-131h-37q-35 140 -157 140q-96 0 -144.5 -70t-48.5 -179q0 -120 53 -196t151 -76z" />
    <glyph glyph-name="D.sc" horiz-adv-x="683" 
d="M292 553h-71v-450q0 -36 19.5 -48t65.5 -12h18q98 0 152.5 65.5t54.5 188.5q0 111 -59 183.5t-180 72.5zM324 0h-283v38q47 2 66.5 14t19.5 47v398q0 35 -19.5 47t-66.5 14v38h268q161 0 243.5 -79t82.5 -203q0 -148 -88 -231t-223 -83z" />
    <glyph glyph-name="E.sc" horiz-adv-x="605" 
d="M534 0h-493v38q47 2 66.5 14t19.5 47v398q0 35 -19.5 47t-66.5 14v38h489v-146h-29q-25 58 -50 80.5t-75 22.5h-155v-226h137q28 0 42 18t20 57h33v-193h-33q-6 39 -20 57t-42 18h-137v-183q0 -33 19.5 -45.5t66.5 -12.5h78q52 0 76 21t70 94h29z" />
    <glyph glyph-name="F.sc" horiz-adv-x="555" 
d="M332 0h-291v38q47 2 66.5 14t19.5 47v398q0 35 -19.5 47t-66.5 14v38h474v-150h-28q-26 60 -51 83.5t-74 23.5h-141v-237h121q28 0 42 17t21 57h33v-192h-33q-7 40 -21 57.5t-42 17.5h-121v-175q0 -35 25.5 -46.5t85.5 -14.5v-37z" />
    <glyph glyph-name="G.sc" horiz-adv-x="664" 
d="M48 286q0 145 88.5 232.5t218.5 87.5q123 0 193 -56v-131h-37q-35 140 -161 140q-96 0 -146.5 -70.5t-50.5 -178.5q0 -120 52.5 -196.5t151.5 -76.5q72 0 111 32v118q0 35 -18.5 46.5t-63.5 13.5v38h249v-38q-43 -2 -59.5 -13.5t-16.5 -46.5v-136q-88 -61 -212 -61
q-137 0 -218 82.5t-81 213.5z" />
    <glyph glyph-name="H.sc" horiz-adv-x="750" 
d="M709 38v-38h-266v38q47 2 66.5 14t19.5 47v185h-308v-185q0 -35 20 -47t66 -14v-38h-266v38q47 2 66.5 14t19.5 47v398q0 35 -19.5 47t-66.5 14v38h266v-38q-46 -2 -66 -14t-20 -47v-170h308v170q0 35 -19.5 47t-66.5 14v38h266v-38q-47 -2 -66 -13.5t-19 -47.5v-398
q0 -36 19 -47.5t66 -13.5z" />
    <glyph glyph-name="I.sc" horiz-adv-x="348" 
d="M307 38v-38h-266v38q47 2 66.5 14t19.5 47v398q0 35 -19.5 47t-66.5 14v38h266v-38q-47 -2 -66.5 -14t-19.5 -47v-398q0 -35 19.5 -47t66.5 -14z" />
    <glyph glyph-name="J.sc" horiz-adv-x="485" 
d="M375 497v-325q0 -91 -48 -136.5t-137 -45.5q-77 0 -123.5 30t-46.5 80q0 37 26 59h69v-40q0 -42 22 -65t59 -23q83 0 83 125v341q0 35 -19 47t-65 14v38h266v-38q-47 -2 -66.5 -14t-19.5 -47z" />
    <glyph glyph-name="K.sc" horiz-adv-x="651" 
d="M327 333l200 -229q34 -38 56 -51t52 -15v-38h-127q-39 22 -84 77l-193 227l213 197q19 19 19 33q0 12 -12.5 17t-54.5 7v38h222v-38q-49 -1 -92 -41zM307 38v-38h-266v38q47 2 66.5 14t19.5 47v398q0 35 -19.5 47t-66.5 14v38h266v-38q-46 -2 -65.5 -14t-19.5 -47v-398
q0 -35 19.5 -47t65.5 -14z" />
    <glyph glyph-name="L.sc" horiz-adv-x="561" 
d="M222 497v-396q0 -34 19 -46t66 -12h47q27 0 45 5.5t35.5 26t27.5 37t35 61.5h33l-28 -173h-461v38q47 2 66.5 14t19.5 47v398q0 35 -19.5 47t-66.5 14v38h266v-38q-46 -2 -65.5 -14t-19.5 -47z" />
    <glyph glyph-name="M.sc" horiz-adv-x="839" 
d="M645 113l-46 345l-178 -458h-35l-189 461l-45 -348q-2 -12 -2 -21q0 -30 17.5 -41t65.5 -13v-38h-209v38q39 2 54 12t19 39l54 407q0 34 -15 47.5t-58 14.5v38h170q3 -24 13 -49l165 -404l156 404q12 34 14 49h165v-38q-43 -1 -58 -14.5t-15 -47.5l54 -407
q4 -29 19.5 -39t52.5 -12v-38h-250v38q47 2 65 13t18 41q0 9 -2 21z" />
    <glyph glyph-name="N.sc" horiz-adv-x="709" 
d="M127 99v408q-27 31 -42 40.5t-44 10.5v38h154l342 -438v339q0 35 -20 47t-67 14v38h226v-38q-47 -2 -66.5 -14t-19.5 -47v-497h-40l-369 463v-364q0 -35 19.5 -47t66.5 -14v-38h-226v38q47 2 66.5 14t19.5 47z" />
    <glyph glyph-name="O.sc" horiz-adv-x="674" 
d="M347 40q84 0 129.5 70.5t45.5 182.5q0 114 -49 188.5t-146 74.5q-84 0 -129.5 -70.5t-45.5 -182.5q0 -114 49 -188.5t146 -74.5zM334 -10q-131 0 -208.5 86t-77.5 211q0 143 84.5 231t207.5 88q131 0 208.5 -86t77.5 -211q0 -143 -84.5 -231t-207.5 -88z" />
    <glyph glyph-name="P.sc" horiz-adv-x="563" 
d="M222 553v-271h63q76 0 111.5 33t35.5 102q0 63 -37 99.5t-111 36.5h-62zM332 0h-291v38q47 2 66.5 14t19.5 47v398q0 35 -19.5 47t-66.5 14v38h265q116 0 172.5 -50.5t56.5 -125.5q0 -81 -54.5 -130.5t-161.5 -49.5h-97v-141q0 -35 25.5 -46.5t84.5 -14.5v-38z" />
    <glyph glyph-name="Q.sc" horiz-adv-x="674" 
d="M340 606q131 0 208.5 -86t77.5 -211q0 -120 -60.5 -202.5t-157.5 -107.5l26 -26q49 -49 79 -71t63 -25v-19q-29 -13 -63 -13q-92 0 -146 74l-53 72q-123 7 -194.5 91.5t-71.5 204.5q0 143 84.5 231t207.5 88zM347 40q84 0 129.5 70.5t45.5 182.5q0 114 -49 188.5
t-146 74.5q-84 0 -129.5 -70.5t-45.5 -182.5q0 -114 49 -188.5t146 -74.5z" />
    <glyph glyph-name="R.sc" horiz-adv-x="640" 
d="M274 553h-53v-254h55q150 0 150 128q0 58 -38 92t-114 34zM306 0h-265v38q47 2 66.5 14t19.5 47v398q0 35 -19.5 47t-66.5 14v38h263q113 0 168.5 -45t55.5 -124q0 -65 -47.5 -106t-113.5 -49l139 -173q46 -58 110 -61v-38h-132q-37 24 -78 78l-138 180h-47v-159
q0 -35 19.5 -47t65.5 -14v-38z" />
    <glyph glyph-name="S.sc" horiz-adv-x="512" 
d="M245 -10q-120 0 -192 59l-6 140h38q42 -153 164 -153q59 0 92.5 26.5t33.5 76.5q0 40 -31 65t-110 53q-95 32 -137.5 71.5t-42.5 110.5q0 74 52 120.5t142 46.5q102 0 182 -54v-130h-35q-16 63 -54 100.5t-98 37.5q-51 0 -79 -25t-28 -65q0 -42 28 -66.5t107 -51.5
q100 -34 145 -75.5t45 -112.5q0 -82 -62 -128t-154 -46z" />
    <glyph glyph-name="T.sc" horiz-adv-x="633" 
d="M48 596h537l13 -182h-32q-41 92 -62.5 116t-76.5 24h-63v-455q0 -35 20.5 -47t68.5 -14v-38h-273v38q48 2 68.5 14t20.5 47v455h-63q-55 0 -76.5 -24t-62.5 -116h-32z" />
    <glyph glyph-name="U.sc" horiz-adv-x="688" 
d="M201 497v-286q0 -77 40 -119t113 -42q87 0 131 39.5t44 128.5v279q0 35 -20 47t-67 14v38h226v-38q-46 -2 -65.5 -14t-19.5 -47v-297q0 -102 -67 -156t-167 -54q-114 0 -178.5 53t-64.5 158v296q0 35 -19.5 47t-66.5 14v38h266v-38q-46 -2 -65.5 -14t-19.5 -47z" />
    <glyph glyph-name="V.sc" horiz-adv-x="638" 
d="M346 127l149 360q10 24 10 34q0 19 -17.5 27t-61.5 10v38h197v-38q-41 -5 -52 -31l-229 -534h-26l-249 534q-12 26 -52 31v38h238v-38q-45 -2 -61.5 -9.5t-16.5 -27.5q0 -13 9 -34z" />
    <glyph glyph-name="W.sc" horiz-adv-x="857" 
d="M595 140l125 344q10 30 10 37q0 19 -17 27t-61 10v38h190v-38q-42 -5 -52 -31l-199 -534h-28l-131 359l-131 -359h-28l-206 534q-12 26 -52 31v38h236v-38q-43 -2 -60 -10t-17 -27q0 -10 9 -35l127 -348l99 281l-38 108q-10 26 -52 31v38h228v-38q-45 -1 -62 -9t-17 -28
q0 -8 9 -37z" />
    <glyph glyph-name="X.sc" horiz-adv-x="636" 
d="M416 107l-113 152l-123 -149q-23 -28 -23 -45q0 -15 13.5 -21t60.5 -6v-38h-216v38q45 0 78 40l178 221l-165 219q-29 40 -76 40v38h258v-38q-45 0 -59.5 -5.5t-14.5 -20.5q0 -12 24 -45l97 -131l105 131q22 27 22 45q0 15 -14 20.5t-59 5.5v38h216v-38q-26 0 -42.5 -8.5
t-35.5 -31.5l-160 -202l177 -238q29 -39 77 -40v-38h-253v38q45 0 58 6t13 21q0 9 -23 42z" />
    <glyph glyph-name="Y.sc" horiz-adv-x="598" 
d="M320 285l128 200q16 24 16 41t-16 23.5t-60 8.5v38h195v-38q-34 -4 -52 -31l-188 -291v-137q0 -35 19.5 -47t65.5 -14v-38h-261v38q47 2 66.5 14t19.5 47v137l-186 291q-17 27 -52 31v38h240v-38q-44 -2 -60 -8.5t-16 -23.5t16 -41z" />
    <glyph glyph-name="Z.sc" horiz-adv-x="564" 
d="M156 44h199q52 0 77 25.5t67 104.5h33l-29 -174h-470v25l365 526h-184q-26 0 -42 -4.5t-30.5 -22.5t-22.5 -33t-27 -56h-30v161h455v-26z" />
    <glyph glyph-name="Aacute.sc" horiz-adv-x="647" 
d="M463 109l-37 85h-252l-35 -85q-9 -22 -9 -34q0 -19 17.5 -27t61.5 -10v-38h-194v38q42 7 52 31l202 476l-28 58h103l236 -534q10 -25 52 -31v-38h-237v38q44 2 61 9.5t17 27.5q0 12 -10 34zM298 490l-106 -254h216zM353 816h116l-151 -169h-39z" />
    <glyph glyph-name="Abreve.sc" horiz-adv-x="647" 
d="M463 109l-37 85h-252l-35 -85q-9 -22 -9 -34q0 -19 17.5 -27t61.5 -10v-38h-194v38q42 7 52 31l202 476l-28 58h103l236 -534q10 -25 52 -31v-38h-237v38q44 2 61 9.5t17 27.5q0 12 -10 34zM298 490l-106 -254h216zM310 648q-67 0 -104 44t-37 124h39q4 -52 31.5 -77
t70.5 -25t70.5 25t31.5 77h39q0 -80 -37 -124t-104 -44z" />
    <glyph glyph-name="Acircumflex.sc" horiz-adv-x="647" 
d="M463 109l-37 85h-252l-35 -85q-9 -22 -9 -34q0 -19 17.5 -27t61.5 -10v-38h-194v38q42 7 52 31l202 476l-28 58h103l236 -534q10 -25 52 -31v-38h-237v38q44 2 61 9.5t17 27.5q0 12 -10 34zM298 490l-106 -254h216zM344 820l140 -173h-46l-128 103l-128 -103h-46l140 173
h68z" />
    <glyph glyph-name="Adieresis.sc" horiz-adv-x="647" 
d="M463 109l-37 85h-252l-35 -85q-9 -22 -9 -34q0 -19 17.5 -27t61.5 -10v-38h-194v38q42 7 52 31l202 476l-28 58h103l236 -534q10 -25 52 -31v-38h-237v38q44 2 61 9.5t17 27.5q0 12 -10 34zM298 490l-106 -254h216zM154 732q0 25 18 42.5t43 17.5t43 -17.5t18 -42.5
q0 -26 -17.5 -44t-43.5 -18t-43.5 18t-17.5 44zM344 732q0 25 18 42.5t43 17.5t43 -17.5t18 -42.5q0 -26 -17.5 -44t-43.5 -18t-43.5 18t-17.5 44z" />
    <glyph glyph-name="Agrave.sc" horiz-adv-x="647" 
d="M463 109l-37 85h-252l-35 -85q-9 -22 -9 -34q0 -19 17.5 -27t61.5 -10v-38h-194v38q42 7 52 31l202 476l-28 58h103l236 -534q10 -25 52 -31v-38h-237v38q44 2 61 9.5t17 27.5q0 12 -10 34zM298 490l-106 -254h216zM145 816h116l74 -169h-39z" />
    <glyph glyph-name="Amacron.sc" horiz-adv-x="647" 
d="M463 109l-37 85h-252l-35 -85q-9 -22 -9 -34q0 -19 17.5 -27t61.5 -10v-38h-194v38q42 7 52 31l202 476l-28 58h103l236 -534q10 -25 52 -31v-38h-237v38q44 2 61 9.5t17 27.5q0 12 -10 34zM298 490l-106 -254h216zM179 678v58h262v-58h-262z" />
    <glyph glyph-name="Aogonek.sc" horiz-adv-x="647" 
d="M241 603h103l236 -534q10 -25 52 -31v-38h-210q-103 -43 -103 -112q0 -19 13 -31t36 -12q45 0 92 37l12 -17q-60 -75 -130 -75q-39 0 -64.5 22t-25.5 60q0 50 37.5 84t105.5 62q48 20 63 30t15 27q0 12 -10 34l-37 85h-252l-35 -85q-9 -22 -9 -34q0 -19 17.5 -27
t61.5 -10v-38h-194v38q42 7 52 31l202 476zM298 490l-106 -254h216z" />
    <glyph glyph-name="Aring.sc" horiz-adv-x="647" 
d="M463 109l-37 85h-252l-35 -85q-9 -22 -9 -34q0 -19 17.5 -27t61.5 -10v-38h-194v38q42 7 52 31l202 476l-28 58h103l236 -534q10 -25 52 -31v-38h-237v38q44 2 61 9.5t17 27.5q0 12 -10 34zM298 490l-106 -254h216zM217 734q0 39 26 65t67 26t67 -26t26 -65t-26 -65
t-67 -26t-67 26t-26 65zM361 734q0 24 -13 39t-38 15t-38 -15t-13 -39t13 -39t38 -15t38 15t13 39z" />
    <glyph glyph-name="Aringacute.sc" horiz-adv-x="647" 
d="M463 109l-37 85h-252l-35 -85q-9 -22 -9 -34q0 -19 17.5 -27t61.5 -10v-38h-194v38q42 7 52 31l202 476l-28 58h103l236 -534q10 -25 52 -31v-38h-237v38q44 2 61 9.5t17 27.5q0 12 -10 34zM298 490l-106 -254h216zM208 708q0 36 27.5 58.5t71.5 22.5q45 0 72.5 -22
t27.5 -59q0 -36 -28 -58t-72 -22t-71.5 22t-27.5 58zM363 708q0 22 -14.5 35t-41.5 13q-26 0 -40.5 -13t-14.5 -35q0 -21 14.5 -34t40.5 -13q27 0 41.5 13t14.5 34zM340 915h117l-127 -102h-39z" />
    <glyph glyph-name="Atilde.sc" horiz-adv-x="647" 
d="M463 109l-37 85h-252l-35 -85q-9 -22 -9 -34q0 -19 17.5 -27t61.5 -10v-38h-194v38q42 7 52 31l202 476l-28 58h103l236 -534q10 -25 52 -31v-38h-237v38q44 2 61 9.5t17 27.5q0 12 -10 34zM298 490l-106 -254h216zM465 796l37 -10q-33 -72 -57.5 -96t-60.5 -24
q-32 0 -80 36t-67 36q-21 0 -33.5 -13t-31.5 -49l-37 10q33 72 57.5 96t60.5 24q32 0 80 -36t67 -36q21 0 33.5 13t31.5 49z" />
    <glyph glyph-name="AE.sc" horiz-adv-x="936" 
d="M70 69l329 458q-6 17 -24 23t-60 8v38h546v-146h-30q-24 58 -49 80.5t-75 22.5h-155v-226h137q28 0 41.5 17.5t20.5 57.5h33v-193h-33q-7 40 -20.5 57.5t-41.5 17.5h-137v-183q0 -33 19.5 -45.5t65.5 -12.5h78q53 0 77 21t69 94h30l-26 -158h-493v38q47 2 66.5 14
t19.5 47v114h-227l-73 -101q-15 -22 -15 -43q0 -19 16 -24t65 -7v-38h-209v38q38 7 55 31zM458 528l-198 -274h198v274z" />
    <glyph glyph-name="AEacute.sc" horiz-adv-x="936" 
d="M70 69l329 458q-6 17 -24 23t-60 8v38h546v-146h-30q-24 58 -49 80.5t-75 22.5h-155v-226h137q28 0 41.5 17.5t20.5 57.5h33v-193h-33q-7 40 -20.5 57.5t-41.5 17.5h-137v-183q0 -33 19.5 -45.5t65.5 -12.5h78q53 0 77 21t69 94h30l-26 -158h-493v38q47 2 66.5 14
t19.5 47v114h-227l-73 -101q-15 -22 -15 -43q0 -19 16 -24t65 -7v-38h-209v38q38 7 55 31zM458 528l-198 -274h198v274zM629 816h116l-151 -169h-39z" />
    <glyph glyph-name="Cacute.sc" horiz-adv-x="611" 
d="M357 38q62 0 101 36.5t65 112.5h39l-20 -148q-93 -49 -204 -49q-130 0 -210 83t-80 213q0 145 86.5 232.5t216.5 87.5q119 0 189 -56v-131h-37q-35 140 -157 140q-96 0 -144.5 -70t-48.5 -179q0 -120 53 -196t151 -76zM380 816h116l-151 -169h-39z" />
    <glyph glyph-name="Ccaron.sc" horiz-adv-x="611" 
d="M357 38q62 0 101 36.5t65 112.5h39l-20 -148q-93 -49 -204 -49q-130 0 -210 83t-80 213q0 145 86.5 232.5t216.5 87.5q119 0 189 -56v-131h-37q-35 140 -157 140q-96 0 -144.5 -70t-48.5 -179q0 -120 53 -196t151 -76zM516 824l-140 -173h-68l-140 173h46l128 -103
l128 103h46z" />
    <glyph glyph-name="Ccedilla.sc" horiz-adv-x="611" 
d="M246 -221l-6 33q117 0 117 46q0 42 -93 45l36 89q-115 12 -183.5 93t-68.5 201q0 145 86.5 232.5t216.5 87.5q119 0 189 -56v-131h-37q-35 140 -157 140q-96 0 -144.5 -70t-48.5 -179q0 -120 53 -196t151 -76q62 0 101 36.5t65 112.5h39l-20 -148q-93 -49 -204 -49h-6
l-15 -38q109 -2 109 -74q0 -49 -50 -74t-130 -25z" />
    <glyph glyph-name="Ccircumflex.sc" horiz-adv-x="611" 
d="M357 38q62 0 101 36.5t65 112.5h39l-20 -148q-93 -49 -204 -49q-130 0 -210 83t-80 213q0 145 86.5 232.5t216.5 87.5q119 0 189 -56v-131h-37q-35 140 -157 140q-96 0 -144.5 -70t-48.5 -179q0 -120 53 -196t151 -76zM377 820l140 -173h-46l-128 103l-128 -103h-46
l140 173h68z" />
    <glyph glyph-name="Cdotaccent.sc" horiz-adv-x="611" 
d="M357 38q62 0 101 36.5t65 112.5h39l-20 -148q-93 -49 -204 -49q-130 0 -210 83t-80 213q0 145 86.5 232.5t216.5 87.5q119 0 189 -56v-131h-37q-35 140 -157 140q-96 0 -144.5 -70t-48.5 -179q0 -120 53 -196t151 -76zM342 666q-27 0 -46 19.5t-19 47.5t19 47.5t46 19.5
t46 -19.5t19 -47.5t-19 -47.5t-46 -19.5z" />
    <glyph glyph-name="Dcaron.sc" horiz-adv-x="683" 
d="M292 553h-71v-450q0 -36 19.5 -48t65.5 -12h18q98 0 152.5 65.5t54.5 188.5q0 111 -59 183.5t-180 72.5zM324 0h-283v38q47 2 66.5 14t19.5 47v398q0 35 -19.5 47t-66.5 14v38h268q161 0 243.5 -79t82.5 -203q0 -148 -88 -231t-223 -83zM512 824l-140 -173h-68l-140 173
h46l128 -103l128 103h46z" />
    <glyph glyph-name="Dcroat.sc" horiz-adv-x="692" 
d="M333 0h-283v38q47 2 66.5 14t19.5 47v186h-86v42h86v170q0 35 -19.5 47t-66.5 14v38h268q161 0 243.5 -79t82.5 -203q0 -148 -88 -231t-223 -83zM301 553h-71v-226h140v-42h-140v-182q0 -36 19.5 -48t65.5 -12h18q98 0 152.5 65.5t54.5 188.5q0 111 -59 183.5t-180 72.5z
" />
    <glyph glyph-name="Eacute.sc" horiz-adv-x="605" 
d="M534 0h-493v38q47 2 66.5 14t19.5 47v398q0 35 -19.5 47t-66.5 14v38h489v-146h-29q-25 58 -50 80.5t-75 22.5h-155v-226h137q28 0 42 18t20 57h33v-193h-33q-6 39 -20 57t-42 18h-137v-183q0 -33 19.5 -45.5t66.5 -12.5h78q52 0 76 21t70 94h29zM361 816h116l-151 -169
h-39z" />
    <glyph glyph-name="Ebreve.sc" horiz-adv-x="605" 
d="M534 0h-493v38q47 2 66.5 14t19.5 47v398q0 35 -19.5 47t-66.5 14v38h489v-146h-29q-25 58 -50 80.5t-75 22.5h-155v-226h137q28 0 42 18t20 57h33v-193h-33q-6 39 -20 57t-42 18h-137v-183q0 -33 19.5 -45.5t66.5 -12.5h78q52 0 76 21t70 94h29zM318 648q-67 0 -104 44
t-37 124h39q4 -52 31.5 -77t70.5 -25t70.5 25t31.5 77h39q0 -80 -37 -124t-104 -44z" />
    <glyph glyph-name="Ecaron.sc" horiz-adv-x="605" 
d="M534 0h-493v38q47 2 66.5 14t19.5 47v398q0 35 -19.5 47t-66.5 14v38h489v-146h-29q-25 58 -50 80.5t-75 22.5h-155v-226h137q28 0 42 18t20 57h33v-193h-33q-6 39 -20 57t-42 18h-137v-183q0 -33 19.5 -45.5t66.5 -12.5h78q52 0 76 21t70 94h29zM492 824l-140 -173h-68
l-140 173h46l128 -103l128 103h46z" />
    <glyph glyph-name="Ecircumflex.sc" horiz-adv-x="605" 
d="M534 0h-493v38q47 2 66.5 14t19.5 47v398q0 35 -19.5 47t-66.5 14v38h489v-146h-29q-25 58 -50 80.5t-75 22.5h-155v-226h137q28 0 42 18t20 57h33v-193h-33q-6 39 -20 57t-42 18h-137v-183q0 -33 19.5 -45.5t66.5 -12.5h78q52 0 76 21t70 94h29zM352 820l140 -173h-46
l-128 103l-128 -103h-46l140 173h68z" />
    <glyph glyph-name="Edieresis.sc" horiz-adv-x="605" 
d="M534 0h-493v38q47 2 66.5 14t19.5 47v398q0 35 -19.5 47t-66.5 14v38h489v-146h-29q-25 58 -50 80.5t-75 22.5h-155v-226h137q28 0 42 18t20 57h33v-193h-33q-6 39 -20 57t-42 18h-137v-183q0 -33 19.5 -45.5t66.5 -12.5h78q52 0 76 21t70 94h29zM162 732q0 25 18 42.5
t43 17.5t43 -17.5t18 -42.5q0 -26 -17.5 -44t-43.5 -18t-43.5 18t-17.5 44zM352 732q0 25 18 42.5t43 17.5t43 -17.5t18 -42.5q0 -26 -17.5 -44t-43.5 -18t-43.5 18t-17.5 44z" />
    <glyph glyph-name="Edotaccent.sc" horiz-adv-x="605" 
d="M534 0h-493v38q47 2 66.5 14t19.5 47v398q0 35 -19.5 47t-66.5 14v38h489v-146h-29q-25 58 -50 80.5t-75 22.5h-155v-226h137q28 0 42 18t20 57h33v-193h-33q-6 39 -20 57t-42 18h-137v-183q0 -33 19.5 -45.5t66.5 -12.5h78q52 0 76 21t70 94h29zM318 666q-27 0 -46 19.5
t-19 47.5t19 47.5t46 19.5t46 -19.5t19 -47.5t-19 -47.5t-46 -19.5z" />
    <glyph glyph-name="Egrave.sc" horiz-adv-x="605" 
d="M534 0h-493v38q47 2 66.5 14t19.5 47v398q0 35 -19.5 47t-66.5 14v38h489v-146h-29q-25 58 -50 80.5t-75 22.5h-155v-226h137q28 0 42 18t20 57h33v-193h-33q-6 39 -20 57t-42 18h-137v-183q0 -33 19.5 -45.5t66.5 -12.5h78q52 0 76 21t70 94h29zM153 816h116l74 -169
h-39z" />
    <glyph glyph-name="Emacron.sc" horiz-adv-x="605" 
d="M534 0h-493v38q47 2 66.5 14t19.5 47v398q0 35 -19.5 47t-66.5 14v38h489v-146h-29q-25 58 -50 80.5t-75 22.5h-155v-226h137q28 0 42 18t20 57h33v-193h-33q-6 39 -20 57t-42 18h-137v-183q0 -33 19.5 -45.5t66.5 -12.5h78q52 0 76 21t70 94h29zM187 678v58h262v-58
h-262z" />
    <glyph glyph-name="Eogonek.sc" horiz-adv-x="605" 
d="M534 0h-33q-127 -53 -127 -112q0 -19 13 -31t36 -12q45 0 92 37l12 -17q-60 -75 -130 -75q-39 0 -64.5 22t-25.5 60q0 73 122 128h-388v38q47 2 66.5 14t19.5 47v398q0 35 -19.5 47t-66.5 14v38h489v-146h-29q-25 58 -50 80.5t-75 22.5h-155v-226h137q28 0 42 18t20 57
h33v-193h-33q-6 39 -20 57t-42 18h-137v-183q0 -33 19.5 -45.5t66.5 -12.5h78q52 0 76 21t70 94h29z" />
    <glyph glyph-name="Eth.sc" horiz-adv-x="692" 
d="M333 0h-283v38q47 2 66.5 14t19.5 47v186h-86v42h86v170q0 35 -19.5 47t-66.5 14v38h268q161 0 243.5 -79t82.5 -203q0 -148 -88 -231t-223 -83zM301 553h-71v-226h140v-42h-140v-182q0 -36 19.5 -48t65.5 -12h18q98 0 152.5 65.5t54.5 188.5q0 111 -59 183.5t-180 72.5z
" />
    <glyph glyph-name="Gbreve.sc" horiz-adv-x="664" 
d="M48 286q0 145 88.5 232.5t218.5 87.5q123 0 193 -56v-131h-37q-35 140 -161 140q-96 0 -146.5 -70.5t-50.5 -178.5q0 -120 52.5 -196.5t151.5 -76.5q72 0 111 32v118q0 35 -18.5 46.5t-63.5 13.5v38h249v-38q-43 -2 -59.5 -13.5t-16.5 -46.5v-136q-88 -61 -212 -61
q-137 0 -218 82.5t-81 213.5zM354 648q-67 0 -104 44t-37 124h39q4 -52 31.5 -77t70.5 -25t70.5 25t31.5 77h39q0 -80 -37 -124t-104 -44z" />
    <glyph glyph-name="Gcircumflex.sc" horiz-adv-x="664" 
d="M48 286q0 145 88.5 232.5t218.5 87.5q123 0 193 -56v-131h-37q-35 140 -161 140q-96 0 -146.5 -70.5t-50.5 -178.5q0 -120 52.5 -196.5t151.5 -76.5q72 0 111 32v118q0 35 -18.5 46.5t-63.5 13.5v38h249v-38q-43 -2 -59.5 -13.5t-16.5 -46.5v-136q-88 -61 -212 -61
q-137 0 -218 82.5t-81 213.5zM388 820l140 -173h-46l-128 103l-128 -103h-46l140 173h68z" />
    <glyph glyph-name="Gcommaaccent.sc" horiz-adv-x="664" 
d="M48 286q0 145 88.5 232.5t218.5 87.5q123 0 193 -56v-131h-37q-35 140 -161 140q-96 0 -146.5 -70.5t-50.5 -178.5q0 -120 52.5 -196.5t151.5 -76.5q72 0 111 32v118q0 35 -18.5 46.5t-63.5 13.5v38h249v-38q-43 -2 -59.5 -13.5t-16.5 -46.5v-136q-88 -61 -212 -61
q-137 0 -218 82.5t-81 213.5zM380 -153h-48q-42 8 -42 48q0 24 17.5 38.5t45.5 14.5q35 0 55 -21.5t20 -54.5q0 -102 -126 -102v33q78 0 78 44z" />
    <glyph glyph-name="Gdotaccent.sc" horiz-adv-x="664" 
d="M48 286q0 145 88.5 232.5t218.5 87.5q123 0 193 -56v-131h-37q-35 140 -161 140q-96 0 -146.5 -70.5t-50.5 -178.5q0 -120 52.5 -196.5t151.5 -76.5q72 0 111 32v118q0 35 -18.5 46.5t-63.5 13.5v38h249v-38q-43 -2 -59.5 -13.5t-16.5 -46.5v-136q-88 -61 -212 -61
q-137 0 -218 82.5t-81 213.5zM354 666q-27 0 -46 19.5t-19 47.5t19 47.5t46 19.5t46 -19.5t19 -47.5t-19 -47.5t-46 -19.5z" />
    <glyph glyph-name="Hbar.sc" horiz-adv-x="768" 
d="M136 403h-86v42h86v52q0 35 -19.5 47t-66.5 14v38h266v-38q-46 -2 -66 -14t-20 -47v-52h308v52q0 35 -19.5 47t-66.5 14v38h266v-38q-47 -2 -66 -13.5t-19 -47.5v-52h85v-42h-85v-304q0 -36 19 -47.5t66 -13.5v-38h-266v38q47 2 66.5 14t19.5 47v165h-308v-165
q0 -35 20 -47t66 -14v-38h-266v38q47 2 66.5 14t19.5 47v304zM230 307h308v96h-308v-96z" />
    <glyph glyph-name="Hcircumflex.sc" horiz-adv-x="750" 
d="M709 38v-38h-266v38q47 2 66.5 14t19.5 47v185h-308v-185q0 -35 20 -47t66 -14v-38h-266v38q47 2 66.5 14t19.5 47v398q0 35 -19.5 47t-66.5 14v38h266v-38q-46 -2 -66 -14t-20 -47v-170h308v170q0 35 -19.5 47t-66.5 14v38h266v-38q-47 -2 -66 -13.5t-19 -47.5v-398
q0 -36 19 -47.5t66 -13.5zM409 820l140 -173h-46l-128 103l-128 -103h-46l140 173h68z" />
    <glyph glyph-name="Iacute.sc" horiz-adv-x="348" 
d="M307 38v-38h-266v38q47 2 66.5 14t19.5 47v398q0 35 -19.5 47t-66.5 14v38h266v-38q-47 -2 -66.5 -14t-19.5 -47v-398q0 -35 19.5 -47t66.5 -14zM217 816h116l-151 -169h-39z" />
    <glyph glyph-name="Ibreve.sc" horiz-adv-x="348" 
d="M307 38v-38h-266v38q47 2 66.5 14t19.5 47v398q0 35 -19.5 47t-66.5 14v38h266v-38q-47 -2 -66.5 -14t-19.5 -47v-398q0 -35 19.5 -47t66.5 -14zM174 648q-67 0 -104 44t-37 124h39q4 -52 31.5 -77t70.5 -25t70.5 25t31.5 77h39q0 -80 -37 -124t-104 -44z" />
    <glyph glyph-name="Icircumflex.sc" horiz-adv-x="348" 
d="M307 38v-38h-266v38q47 2 66.5 14t19.5 47v398q0 35 -19.5 47t-66.5 14v38h266v-38q-47 -2 -66.5 -14t-19.5 -47v-398q0 -35 19.5 -47t66.5 -14zM208 820l140 -173h-46l-128 103l-128 -103h-46l140 173h68z" />
    <glyph glyph-name="Idieresis.sc" horiz-adv-x="348" 
d="M307 38v-38h-266v38q47 2 66.5 14t19.5 47v398q0 35 -19.5 47t-66.5 14v38h266v-38q-47 -2 -66.5 -14t-19.5 -47v-398q0 -35 19.5 -47t66.5 -14zM18 732q0 25 18 42.5t43 17.5t43 -17.5t18 -42.5q0 -26 -17.5 -44t-43.5 -18t-43.5 18t-17.5 44zM208 732q0 25 18 42.5
t43 17.5t43 -17.5t18 -42.5q0 -26 -17.5 -44t-43.5 -18t-43.5 18t-17.5 44z" />
    <glyph glyph-name="Idotaccent.sc" horiz-adv-x="348" 
d="M307 38v-38h-266v38q47 2 66.5 14t19.5 47v398q0 35 -19.5 47t-66.5 14v38h266v-38q-47 -2 -66.5 -14t-19.5 -47v-398q0 -35 19.5 -47t66.5 -14zM174 666q-27 0 -46 19.5t-19 47.5t19 47.5t46 19.5t46 -19.5t19 -47.5t-19 -47.5t-46 -19.5z" />
    <glyph glyph-name="Igrave.sc" horiz-adv-x="348" 
d="M307 38v-38h-266v38q47 2 66.5 14t19.5 47v398q0 35 -19.5 47t-66.5 14v38h266v-38q-47 -2 -66.5 -14t-19.5 -47v-398q0 -35 19.5 -47t66.5 -14zM9 816h116l74 -169h-39z" />
    <glyph glyph-name="Imacron.sc" horiz-adv-x="348" 
d="M307 38v-38h-266v38q47 2 66.5 14t19.5 47v398q0 35 -19.5 47t-66.5 14v38h266v-38q-47 -2 -66.5 -14t-19.5 -47v-398q0 -35 19.5 -47t66.5 -14zM43 678v58h262v-58h-262z" />
    <glyph glyph-name="Iogonek.sc" horiz-adv-x="348" 
d="M307 38v-38h-46q-127 -53 -127 -112q0 -19 13 -31t36 -12q45 0 92 37l12 -17q-60 -75 -130 -75q-39 0 -64.5 22t-25.5 60q0 73 122 128h-148v38q47 2 66.5 14t19.5 47v398q0 35 -19.5 47t-66.5 14v38h266v-38q-47 -2 -66.5 -14t-19.5 -47v-398q0 -35 19.5 -47t66.5 -14z
" />
    <glyph glyph-name="Itilde.sc" horiz-adv-x="348" 
d="M311 795l37 -10q-33 -72 -57.5 -96t-60.5 -24q-30 0 -67 36t-52 36q-21 0 -33.5 -13t-31.5 -49l-37 10q33 72 57.5 96t60.5 24q24 0 47 -18t41 -36t31 -18q21 0 33.5 13t31.5 49zM307 38v-38h-266v38q47 2 66.5 14t19.5 47v398q0 35 -19.5 47t-66.5 14v38h266v-38
q-47 -2 -66.5 -14t-19.5 -47v-398q0 -35 19.5 -47t66.5 -14z" />
    <glyph glyph-name="IJ.sc" horiz-adv-x="805" 
d="M307 38v-38h-266v38q47 2 66.5 14t19.5 47v398q0 35 -19.5 47t-66.5 14v38h266v-38q-47 -2 -66.5 -14t-19.5 -47v-398q0 -35 19.5 -47t66.5 -14zM695 497v-325q0 -91 -48 -136.5t-137 -45.5q-77 0 -123.5 30t-46.5 80q0 37 26 59h69v-40q0 -42 22 -65t59 -23q83 0 83 125
v341q0 35 -19 47t-65 14v38h266v-38q-47 -2 -66.5 -14t-19.5 -47z" />
    <glyph glyph-name="Jcircumflex.sc" horiz-adv-x="485" 
d="M375 497v-325q0 -91 -48 -136.5t-137 -45.5q-77 0 -123.5 30t-46.5 80q0 37 26 59h69v-40q0 -42 22 -65t59 -23q83 0 83 125v341q0 35 -19 47t-65 14v38h266v-38q-47 -2 -66.5 -14t-19.5 -47zM358 820l140 -173h-46l-128 103l-128 -103h-46l140 173h68z" />
    <glyph glyph-name="Kcommaaccent.sc" horiz-adv-x="651" 
d="M327 333l200 -229q34 -38 56 -51t52 -15v-38h-127q-39 22 -84 77l-193 227l213 197q19 19 19 33q0 12 -12.5 17t-54.5 7v38h222v-38q-49 -1 -92 -41zM307 38v-38h-266v38q47 2 66.5 14t19.5 47v398q0 35 -19.5 47t-66.5 14v38h266v-38q-46 -2 -65.5 -14t-19.5 -47v-398
q0 -35 19.5 -47t65.5 -14zM359 -153h-48q-42 8 -42 48q0 24 17.5 38.5t45.5 14.5q35 0 55 -21.5t20 -54.5q0 -102 -126 -102v33q78 0 78 44z" />
    <glyph glyph-name="Lacute.sc" horiz-adv-x="561" 
d="M222 497v-396q0 -34 19 -46t66 -12h47q27 0 45 5.5t35.5 26t27.5 37t35 61.5h33l-28 -173h-461v38q47 2 66.5 14t19.5 47v398q0 35 -19.5 47t-66.5 14v38h266v-38q-46 -2 -65.5 -14t-19.5 -47zM234 816h116l-151 -169h-39z" />
    <glyph glyph-name="Lcaron.sc" horiz-adv-x="561" 
d="M222 497v-396q0 -34 19 -46t66 -12h47q27 0 45 5.5t35.5 26t27.5 37t35 61.5h33l-28 -173h-461v38q47 2 66.5 14t19.5 47v398q0 35 -19.5 47t-66.5 14v38h266v-38q-46 -2 -65.5 -14t-19.5 -47zM499 596l-82 -205h-35l20 205h97z" />
    <glyph glyph-name="Lcommaaccent.sc" horiz-adv-x="561" 
d="M222 497v-396q0 -34 19 -46t66 -12h47q27 0 45 5.5t35.5 26t27.5 37t35 61.5h33l-28 -173h-461v38q47 2 66.5 14t19.5 47v398q0 35 -19.5 47t-66.5 14v38h266v-38q-46 -2 -65.5 -14t-19.5 -47zM310 -153h-48q-42 8 -42 48q0 24 17.5 38.5t45.5 14.5q35 0 55 -21.5
t20 -54.5q0 -102 -126 -102v33q78 0 78 44z" />
    <glyph glyph-name="Ldot.sc" horiz-adv-x="561" 
d="M222 497v-396q0 -34 19 -46t66 -12h47q27 0 45 5.5t35.5 26t27.5 37t35 61.5h33l-28 -173h-461v38q47 2 66.5 14t19.5 47v398q0 35 -19.5 47t-66.5 14v38h266v-38q-46 -2 -65.5 -14t-19.5 -47zM461 271q-27 0 -46 19.5t-19 47.5t19 47.5t46 19.5t46 -19.5t19 -47.5
t-19 -47.5t-46 -19.5z" />
    <glyph glyph-name="Lslash.sc" horiz-adv-x="570" 
d="M231 293v-192q0 -34 19 -46t66 -12h47q27 0 45 5.5t35.5 26t27.5 37t35 61.5h33l-28 -173h-461v38q47 2 66.5 14t19.5 47v164l-86 -29v43l86 29v191q0 35 -19.5 47t-66.5 14v38h266v-38q-46 -2 -65.5 -14t-19.5 -47v-161l141 49v-43z" />
    <glyph glyph-name="Nacute.sc" horiz-adv-x="709" 
d="M127 99v408q-27 31 -42 40.5t-44 10.5v38h154l342 -438v339q0 35 -20 47t-67 14v38h226v-38q-47 -2 -66.5 -14t-19.5 -47v-497h-40l-369 463v-364q0 -35 19.5 -47t66.5 -14v-38h-226v38q47 2 66.5 14t19.5 47zM406 816h116l-151 -169h-39z" />
    <glyph glyph-name="Ncaron.sc" horiz-adv-x="709" 
d="M127 99v408q-27 31 -42 40.5t-44 10.5v38h154l342 -438v339q0 35 -20 47t-67 14v38h226v-38q-47 -2 -66.5 -14t-19.5 -47v-497h-40l-369 463v-364q0 -35 19.5 -47t66.5 -14v-38h-226v38q47 2 66.5 14t19.5 47zM537 824l-140 -173h-68l-140 173h46l128 -103l128 103h46z
" />
    <glyph glyph-name="Ncommaaccent.sc" horiz-adv-x="709" 
d="M127 99v408q-27 31 -42 40.5t-44 10.5v38h154l342 -438v339q0 35 -20 47t-67 14v38h226v-38q-47 -2 -66.5 -14t-19.5 -47v-497h-40l-369 463v-364q0 -35 19.5 -47t66.5 -14v-38h-226v38q47 2 66.5 14t19.5 47zM384 -153h-48q-42 8 -42 48q0 24 17.5 38.5t45.5 14.5
q35 0 55 -21.5t20 -54.5q0 -102 -126 -102v33q78 0 78 44z" />
    <glyph glyph-name="Ntilde.sc" horiz-adv-x="709" 
d="M127 99v408q-27 31 -42 40.5t-44 10.5v38h154l342 -438v339q0 35 -20 47t-67 14v38h226v-38q-47 -2 -66.5 -14t-19.5 -47v-497h-40l-369 463v-364q0 -35 19.5 -47t66.5 -14v-38h-226v38q47 2 66.5 14t19.5 47zM510 796l37 -10q-33 -72 -57.5 -96t-60.5 -24q-32 0 -80 36
t-67 36q-21 0 -33.5 -13t-31.5 -49l-37 10q33 72 57.5 96t60.5 24q32 0 80 -36t67 -36q21 0 33.5 13t31.5 49z" />
    <glyph glyph-name="Eng.sc" horiz-adv-x="709" 
d="M508 52l-327 411v-364q0 -35 19.5 -47t66.5 -14v-38h-226v38q47 2 66.5 14t19.5 47v408q-27 31 -42 40.5t-44 10.5v38h154l342 -437v338q0 35 -20 47t-67 14v38h226v-38q-47 -2 -66.5 -14t-19.5 -47v-417q0 -56 -5 -87t-21 -59q-30 -53 -118 -111l-21 23l31 36
q31 36 41.5 71.5t10.5 98.5z" />
    <glyph glyph-name="Oacute.sc" horiz-adv-x="674" 
d="M347 40q84 0 129.5 70.5t45.5 182.5q0 114 -49 188.5t-146 74.5q-84 0 -129.5 -70.5t-45.5 -182.5q0 -114 49 -188.5t146 -74.5zM334 -10q-131 0 -208.5 86t-77.5 211q0 143 84.5 231t207.5 88q131 0 208.5 -86t77.5 -211q0 -143 -84.5 -231t-207.5 -88zM382 816h116
l-151 -169h-39z" />
    <glyph glyph-name="Obreve.sc" horiz-adv-x="674" 
d="M347 40q84 0 129.5 70.5t45.5 182.5q0 114 -49 188.5t-146 74.5q-84 0 -129.5 -70.5t-45.5 -182.5q0 -114 49 -188.5t146 -74.5zM334 -10q-131 0 -208.5 86t-77.5 211q0 143 84.5 231t207.5 88q131 0 208.5 -86t77.5 -211q0 -143 -84.5 -231t-207.5 -88zM339 648
q-67 0 -104 44t-37 124h39q4 -52 31.5 -77t70.5 -25t70.5 25t31.5 77h39q0 -80 -37 -124t-104 -44z" />
    <glyph glyph-name="Ocircumflex.sc" horiz-adv-x="674" 
d="M347 40q84 0 129.5 70.5t45.5 182.5q0 114 -49 188.5t-146 74.5q-84 0 -129.5 -70.5t-45.5 -182.5q0 -114 49 -188.5t146 -74.5zM334 -10q-131 0 -208.5 86t-77.5 211q0 143 84.5 231t207.5 88q131 0 208.5 -86t77.5 -211q0 -143 -84.5 -231t-207.5 -88zM373 820
l140 -173h-46l-128 103l-128 -103h-46l140 173h68z" />
    <glyph glyph-name="Odieresis.sc" horiz-adv-x="674" 
d="M347 40q84 0 129.5 70.5t45.5 182.5q0 114 -49 188.5t-146 74.5q-84 0 -129.5 -70.5t-45.5 -182.5q0 -114 49 -188.5t146 -74.5zM334 -10q-131 0 -208.5 86t-77.5 211q0 143 84.5 231t207.5 88q131 0 208.5 -86t77.5 -211q0 -143 -84.5 -231t-207.5 -88zM183 732
q0 25 18 42.5t43 17.5t43 -17.5t18 -42.5q0 -26 -17.5 -44t-43.5 -18t-43.5 18t-17.5 44zM373 732q0 25 18 42.5t43 17.5t43 -17.5t18 -42.5q0 -26 -17.5 -44t-43.5 -18t-43.5 18t-17.5 44z" />
    <glyph glyph-name="Ograve.sc" horiz-adv-x="674" 
d="M347 40q84 0 129.5 70.5t45.5 182.5q0 114 -49 188.5t-146 74.5q-84 0 -129.5 -70.5t-45.5 -182.5q0 -114 49 -188.5t146 -74.5zM334 -10q-131 0 -208.5 86t-77.5 211q0 143 84.5 231t207.5 88q131 0 208.5 -86t77.5 -211q0 -143 -84.5 -231t-207.5 -88zM174 816h116
l74 -169h-39z" />
    <glyph glyph-name="Ohungarumlaut.sc" horiz-adv-x="674" 
d="M347 40q84 0 129.5 70.5t45.5 182.5q0 114 -49 188.5t-146 74.5q-84 0 -129.5 -70.5t-45.5 -182.5q0 -114 49 -188.5t146 -74.5zM334 -10q-131 0 -208.5 86t-77.5 211q0 143 84.5 231t207.5 88q131 0 208.5 -86t77.5 -211q0 -143 -84.5 -231t-207.5 -88zM305 816h102
l-129 -169h-40zM455 816h102l-129 -169h-40z" />
    <glyph glyph-name="Omacron.sc" horiz-adv-x="674" 
d="M347 40q84 0 129.5 70.5t45.5 182.5q0 114 -49 188.5t-146 74.5q-84 0 -129.5 -70.5t-45.5 -182.5q0 -114 49 -188.5t146 -74.5zM334 -10q-131 0 -208.5 86t-77.5 211q0 143 84.5 231t207.5 88q131 0 208.5 -86t77.5 -211q0 -143 -84.5 -231t-207.5 -88zM208 678v58h262
v-58h-262z" />
    <glyph glyph-name="Oslash.sc" horiz-adv-x="674" 
d="M334 -10q-86 0 -153 40l-64 -90l-38 26l65 92q-96 84 -96 229q0 143 84.5 231t207.5 88q90 0 159 -45l57 81l38 -26l-59 -83q91 -86 91 -224q0 -143 -84.5 -231t-207.5 -88zM152 303q0 -107 40 -177l265 376q-49 54 -130 54q-84 0 -129.5 -70.5t-45.5 -182.5zM347 40
q84 0 129.5 70.5t45.5 182.5q0 101 -37 169l-264 -374q50 -48 126 -48z" />
    <glyph glyph-name="Oslashacute.sc" horiz-adv-x="674" 
d="M334 -10q-86 0 -153 40l-64 -90l-38 26l65 92q-96 84 -96 229q0 143 84.5 231t207.5 88q90 0 159 -45l57 81l38 -26l-59 -83q91 -86 91 -224q0 -143 -84.5 -231t-207.5 -88zM152 303q0 -107 40 -177l265 376q-49 54 -130 54q-84 0 -129.5 -70.5t-45.5 -182.5zM347 40
q84 0 129.5 70.5t45.5 182.5q0 101 -37 169l-264 -374q50 -48 126 -48zM384 816h116l-151 -169h-39z" />
    <glyph glyph-name="Otilde.sc" horiz-adv-x="674" 
d="M347 40q84 0 129.5 70.5t45.5 182.5q0 114 -49 188.5t-146 74.5q-84 0 -129.5 -70.5t-45.5 -182.5q0 -114 49 -188.5t146 -74.5zM334 -10q-131 0 -208.5 86t-77.5 211q0 143 84.5 231t207.5 88q131 0 208.5 -86t77.5 -211q0 -143 -84.5 -231t-207.5 -88zM486 796l37 -10
q-33 -72 -57.5 -96t-60.5 -24q-32 0 -80 36t-67 36q-21 0 -33.5 -13t-31.5 -49l-37 10q33 72 57.5 96t60.5 24q32 0 80 -36t67 -36q21 0 33.5 13t31.5 49z" />
    <glyph glyph-name="OE.sc" horiz-adv-x="903" 
d="M832 0h-458q-161 0 -243.5 79.5t-82.5 203.5q0 147 88.5 230t224.5 83h467v-146h-30q-24 58 -49 80.5t-75 22.5h-155v-226h136q28 0 42 17.5t21 57.5h33v-193h-33q-7 40 -21 57.5t-42 17.5h-136v-183q0 -33 19.5 -45.5t65.5 -12.5h78q53 0 77 21t69 94h30zM425 43v510
h-63q-98 0 -153.5 -65t-55.5 -188q0 -111 59 -184t180 -73h33z" />
    <glyph glyph-name="Racute.sc" horiz-adv-x="640" 
d="M274 553h-53v-254h55q150 0 150 128q0 58 -38 92t-114 34zM306 0h-265v38q47 2 66.5 14t19.5 47v398q0 35 -19.5 47t-66.5 14v38h263q113 0 168.5 -45t55.5 -124q0 -65 -47.5 -106t-113.5 -49l139 -173q46 -58 110 -61v-38h-132q-37 24 -78 78l-138 180h-47v-159
q0 -35 19.5 -47t65.5 -14v-38zM339 816h116l-151 -169h-39z" />
    <glyph glyph-name="Rcaron.sc" horiz-adv-x="640" 
d="M274 553h-53v-254h55q150 0 150 128q0 58 -38 92t-114 34zM306 0h-265v38q47 2 66.5 14t19.5 47v398q0 35 -19.5 47t-66.5 14v38h263q113 0 168.5 -45t55.5 -124q0 -65 -47.5 -106t-113.5 -49l139 -173q46 -58 110 -61v-38h-132q-37 24 -78 78l-138 180h-47v-159
q0 -35 19.5 -47t65.5 -14v-38zM470 824l-140 -173h-68l-140 173h46l128 -103l128 103h46z" />
    <glyph glyph-name="Rcommaaccent.sc" horiz-adv-x="640" 
d="M274 553h-53v-254h55q150 0 150 128q0 58 -38 92t-114 34zM306 0h-265v38q47 2 66.5 14t19.5 47v398q0 35 -19.5 47t-66.5 14v38h263q113 0 168.5 -45t55.5 -124q0 -65 -47.5 -106t-113.5 -49l139 -173q46 -58 110 -61v-38h-132q-37 24 -78 78l-138 180h-47v-159
q0 -35 19.5 -47t65.5 -14v-38zM345 -153h-48q-42 8 -42 48q0 24 17.5 38.5t45.5 14.5q35 0 55 -21.5t20 -54.5q0 -102 -126 -102v33q78 0 78 44z" />
    <glyph glyph-name="Sacute.sc" horiz-adv-x="512" 
d="M245 -10q-120 0 -192 59l-6 140h38q42 -153 164 -153q59 0 92.5 26.5t33.5 76.5q0 40 -31 65t-110 53q-95 32 -137.5 71.5t-42.5 110.5q0 74 52 120.5t142 46.5q102 0 182 -54v-130h-35q-16 63 -54 100.5t-98 37.5q-51 0 -79 -25t-28 -65q0 -42 28 -66.5t107 -51.5
q100 -34 145 -75.5t45 -112.5q0 -82 -62 -128t-154 -46zM300 816h116l-151 -169h-39z" />
    <glyph glyph-name="Scaron.sc" horiz-adv-x="512" 
d="M245 -10q-120 0 -192 59l-6 140h38q42 -153 164 -153q59 0 92.5 26.5t33.5 76.5q0 40 -31 65t-110 53q-95 32 -137.5 71.5t-42.5 110.5q0 74 52 120.5t142 46.5q102 0 182 -54v-130h-35q-16 63 -54 100.5t-98 37.5q-51 0 -79 -25t-28 -65q0 -42 28 -66.5t107 -51.5
q100 -34 145 -75.5t45 -112.5q0 -82 -62 -128t-154 -46zM426 824l-140 -173h-68l-140 173h46l128 -103l128 103h46z" />
    <glyph glyph-name="Scedilla.sc" horiz-adv-x="512" 
d="M151 -221l-6 33q117 0 117 46q0 42 -93 45l36 89q-97 10 -152 57l-6 140h38q42 -153 164 -153q59 0 92.5 26.5t33.5 76.5q0 40 -31 65t-110 53q-95 32 -137.5 71.5t-42.5 110.5q0 74 52 120.5t142 46.5q102 0 182 -54v-130h-35q-16 63 -54 100.5t-98 37.5q-51 0 -79 -25
t-28 -65q0 -42 28 -66.5t107 -51.5q100 -34 145 -75.5t45 -112.5q0 -82 -62 -128t-154 -46h-8l-15 -38q109 -2 109 -74q0 -49 -50.5 -74t-129.5 -25z" />
    <glyph glyph-name="Scircumflex.sc" horiz-adv-x="512" 
d="M245 -10q-120 0 -192 59l-6 140h38q42 -153 164 -153q59 0 92.5 26.5t33.5 76.5q0 40 -31 65t-110 53q-95 32 -137.5 71.5t-42.5 110.5q0 74 52 120.5t142 46.5q102 0 182 -54v-130h-35q-16 63 -54 100.5t-98 37.5q-51 0 -79 -25t-28 -65q0 -42 28 -66.5t107 -51.5
q100 -34 145 -75.5t45 -112.5q0 -82 -62 -128t-154 -46zM286 820l140 -173h-46l-128 103l-128 -103h-46l140 173h68z" />
    <glyph glyph-name="Scommaaccent.sc" horiz-adv-x="512" 
d="M245 -10q-120 0 -192 59l-6 140h38q42 -153 164 -153q59 0 92.5 26.5t33.5 76.5q0 40 -31 65t-110 53q-95 32 -137.5 71.5t-42.5 110.5q0 74 52 120.5t142 46.5q102 0 182 -54v-130h-35q-16 63 -54 100.5t-98 37.5q-51 0 -79 -25t-28 -65q0 -42 28 -66.5t107 -51.5
q100 -34 145 -75.5t45 -112.5q0 -82 -62 -128t-154 -46zM273 -153h-48q-42 8 -42 48q0 24 17.5 38.5t45.5 14.5q35 0 55 -21.5t20 -54.5q0 -102 -126 -102v33q78 0 78 44z" />
    <glyph glyph-name="Tbar.sc" horiz-adv-x="633" 
d="M48 596h537l13 -182h-32q-41 92 -62.5 116t-76.5 24h-63v-227h112v-42h-112v-186q0 -35 20.5 -47t68.5 -14v-38h-273v38q48 2 68.5 14t20.5 47v186h-112v42h112v227h-63q-55 0 -76.5 -24t-62.5 -116h-32z" />
    <glyph glyph-name="Tcaron.sc" horiz-adv-x="633" 
d="M48 596h537l13 -182h-32q-41 92 -62.5 116t-76.5 24h-63v-455q0 -35 20.5 -47t68.5 -14v-38h-273v38q48 2 68.5 14t20.5 47v455h-63q-55 0 -76.5 -24t-62.5 -116h-32zM490 824l-140 -173h-68l-140 173h46l128 -103l128 103h46z" />
    <glyph glyph-name="Thorn.sc" horiz-adv-x="565" 
d="M221 427v-252h58q78 0 115.5 29t37.5 96q0 61 -39 94t-115 33h-57zM221 470h78q119 0 177.5 -46.5t58.5 -120.5q0 -79 -56.5 -124.5t-166.5 -45.5h-91v-34q0 -35 26 -46.5t85 -14.5v-38h-291v38q47 2 66.5 14t19.5 47v398q0 35 -19.5 47t-66.5 14v38h266v-38
q-47 -2 -66.5 -14t-19.5 -47v-27z" />
    <glyph glyph-name="Uacute.sc" horiz-adv-x="688" 
d="M201 497v-286q0 -77 40 -119t113 -42q87 0 131 39.5t44 128.5v279q0 35 -20 47t-67 14v38h226v-38q-46 -2 -65.5 -14t-19.5 -47v-297q0 -102 -67 -156t-167 -54q-114 0 -178.5 53t-64.5 158v296q0 35 -19.5 47t-66.5 14v38h266v-38q-46 -2 -65.5 -14t-19.5 -47zM406 816
h116l-151 -169h-39z" />
    <glyph glyph-name="Ubreve.sc" horiz-adv-x="688" 
d="M201 497v-286q0 -77 40 -119t113 -42q87 0 131 39.5t44 128.5v279q0 35 -20 47t-67 14v38h226v-38q-46 -2 -65.5 -14t-19.5 -47v-297q0 -102 -67 -156t-167 -54q-114 0 -178.5 53t-64.5 158v296q0 35 -19.5 47t-66.5 14v38h266v-38q-46 -2 -65.5 -14t-19.5 -47zM363 648
q-67 0 -104 44t-37 124h39q4 -52 31.5 -77t70.5 -25t70.5 25t31.5 77h39q0 -80 -37 -124t-104 -44z" />
    <glyph glyph-name="Ucircumflex.sc" horiz-adv-x="688" 
d="M201 497v-286q0 -77 40 -119t113 -42q87 0 131 39.5t44 128.5v279q0 35 -20 47t-67 14v38h226v-38q-46 -2 -65.5 -14t-19.5 -47v-297q0 -102 -67 -156t-167 -54q-114 0 -178.5 53t-64.5 158v296q0 35 -19.5 47t-66.5 14v38h266v-38q-46 -2 -65.5 -14t-19.5 -47zM397 820
l140 -173h-46l-128 103l-128 -103h-46l140 173h68z" />
    <glyph glyph-name="Udieresis.sc" horiz-adv-x="688" 
d="M201 497v-286q0 -77 40 -119t113 -42q87 0 131 39.5t44 128.5v279q0 35 -20 47t-67 14v38h226v-38q-46 -2 -65.5 -14t-19.5 -47v-297q0 -102 -67 -156t-167 -54q-114 0 -178.5 53t-64.5 158v296q0 35 -19.5 47t-66.5 14v38h266v-38q-46 -2 -65.5 -14t-19.5 -47zM207 732
q0 25 18 42.5t43 17.5t43 -17.5t18 -42.5q0 -26 -17.5 -44t-43.5 -18t-43.5 18t-17.5 44zM397 732q0 25 18 42.5t43 17.5t43 -17.5t18 -42.5q0 -26 -17.5 -44t-43.5 -18t-43.5 18t-17.5 44z" />
    <glyph glyph-name="Ugrave.sc" horiz-adv-x="688" 
d="M201 497v-286q0 -77 40 -119t113 -42q87 0 131 39.5t44 128.5v279q0 35 -20 47t-67 14v38h226v-38q-46 -2 -65.5 -14t-19.5 -47v-297q0 -102 -67 -156t-167 -54q-114 0 -178.5 53t-64.5 158v296q0 35 -19.5 47t-66.5 14v38h266v-38q-46 -2 -65.5 -14t-19.5 -47zM198 816
h116l74 -169h-39z" />
    <glyph glyph-name="Uhungarumlaut.sc" horiz-adv-x="688" 
d="M201 497v-286q0 -77 40 -119t113 -42q87 0 131 39.5t44 128.5v279q0 35 -20 47t-67 14v38h226v-38q-46 -2 -65.5 -14t-19.5 -47v-297q0 -102 -67 -156t-167 -54q-114 0 -178.5 53t-64.5 158v296q0 35 -19.5 47t-66.5 14v38h266v-38q-46 -2 -65.5 -14t-19.5 -47zM329 816
h102l-129 -169h-40zM479 816h102l-129 -169h-40z" />
    <glyph glyph-name="Umacron.sc" horiz-adv-x="688" 
d="M201 497v-286q0 -77 40 -119t113 -42q87 0 131 39.5t44 128.5v279q0 35 -20 47t-67 14v38h226v-38q-46 -2 -65.5 -14t-19.5 -47v-297q0 -102 -67 -156t-167 -54q-114 0 -178.5 53t-64.5 158v296q0 35 -19.5 47t-66.5 14v38h266v-38q-46 -2 -65.5 -14t-19.5 -47zM232 678
v58h262v-58h-262z" />
    <glyph glyph-name="Uogonek.sc" horiz-adv-x="688" 
d="M201 497v-286q0 -77 40 -119t113 -42q87 0 131 39.5t44 128.5v279q0 35 -20 47t-67 14v38h226v-38q-46 -2 -65.5 -14t-19.5 -47v-297q0 -78 -40 -128t-106 -70q-113 -49 -113 -106q0 -19 13 -31t36 -12q45 0 92 37l12 -17q-60 -75 -130 -75q-39 0 -64.5 22t-25.5 60
q0 63 85 110q-111 2 -173.5 54.5t-62.5 156.5v296q0 35 -19.5 47t-66.5 14v38h266v-38q-46 -2 -65.5 -14t-19.5 -47z" />
    <glyph glyph-name="Uring.sc" horiz-adv-x="688" 
d="M201 497v-286q0 -77 40 -119t113 -42q87 0 131 39.5t44 128.5v279q0 35 -20 47t-67 14v38h226v-38q-46 -2 -65.5 -14t-19.5 -47v-297q0 -102 -67 -156t-167 -54q-114 0 -178.5 53t-64.5 158v296q0 35 -19.5 47t-66.5 14v38h266v-38q-46 -2 -65.5 -14t-19.5 -47zM270 734
q0 39 26 65t67 26t67 -26t26 -65t-26 -65t-67 -26t-67 26t-26 65zM414 734q0 24 -13 39t-38 15t-38 -15t-13 -39t13 -39t38 -15t38 15t13 39z" />
    <glyph glyph-name="Utilde.sc" horiz-adv-x="688" 
d="M201 497v-286q0 -77 40 -119t113 -42q87 0 131 39.5t44 128.5v279q0 35 -20 47t-67 14v38h226v-38q-46 -2 -65.5 -14t-19.5 -47v-297q0 -102 -67 -156t-167 -54q-114 0 -178.5 53t-64.5 158v296q0 35 -19.5 47t-66.5 14v38h266v-38q-46 -2 -65.5 -14t-19.5 -47zM510 796
l37 -10q-33 -72 -57.5 -96t-60.5 -24q-32 0 -80 36t-67 36q-21 0 -33.5 -13t-31.5 -49l-37 10q33 72 57.5 96t60.5 24q32 0 80 -36t67 -36q21 0 33.5 13t31.5 49z" />
    <glyph glyph-name="Wacute.sc" horiz-adv-x="857" 
d="M595 140l125 344q10 30 10 37q0 19 -17 27t-61 10v38h190v-38q-42 -5 -52 -31l-199 -534h-28l-131 359l-131 -359h-28l-206 534q-12 26 -52 31v38h236v-38q-43 -2 -60 -10t-17 -27q0 -10 9 -35l127 -348l99 281l-38 108q-10 26 -52 31v38h228v-38q-45 -1 -62 -9t-17 -28
q0 -8 9 -37zM477 816h116l-151 -169h-39z" />
    <glyph glyph-name="Wcircumflex.sc" horiz-adv-x="857" 
d="M595 140l125 344q10 30 10 37q0 19 -17 27t-61 10v38h190v-38q-42 -5 -52 -31l-199 -534h-28l-131 359l-131 -359h-28l-206 534q-12 26 -52 31v38h236v-38q-43 -2 -60 -10t-17 -27q0 -10 9 -35l127 -348l99 281l-38 108q-10 26 -52 31v38h228v-38q-45 -1 -62 -9t-17 -28
q0 -8 9 -37zM468 820l140 -173h-46l-128 103l-128 -103h-46l140 173h68z" />
    <glyph glyph-name="Wgrave.sc" horiz-adv-x="857" 
d="M595 140l125 344q10 30 10 37q0 19 -17 27t-61 10v38h190v-38q-42 -5 -52 -31l-199 -534h-28l-131 359l-131 -359h-28l-206 534q-12 26 -52 31v38h236v-38q-43 -2 -60 -10t-17 -27q0 -10 9 -35l127 -348l99 281l-38 108q-10 26 -52 31v38h228v-38q-45 -1 -62 -9t-17 -28
q0 -8 9 -37zM269 816h116l74 -169h-39z" />
    <glyph glyph-name="Wdieresis.sc" horiz-adv-x="857" 
d="M595 140l125 344q10 30 10 37q0 19 -17 27t-61 10v38h190v-38q-42 -5 -52 -31l-199 -534h-28l-131 359l-131 -359h-28l-206 534q-12 26 -52 31v38h236v-38q-43 -2 -60 -10t-17 -27q0 -10 9 -35l127 -348l99 281l-38 108q-10 26 -52 31v38h228v-38q-45 -1 -62 -9t-17 -28
q0 -8 9 -37zM278 732q0 25 18 42.5t43 17.5t43 -17.5t18 -42.5q0 -26 -17.5 -44t-43.5 -18t-43.5 18t-17.5 44zM468 732q0 25 18 42.5t43 17.5t43 -17.5t18 -42.5q0 -26 -17.5 -44t-43.5 -18t-43.5 18t-17.5 44z" />
    <glyph glyph-name="Yacute.sc" horiz-adv-x="598" 
d="M320 285l128 200q16 24 16 41t-16 23.5t-60 8.5v38h195v-38q-34 -4 -52 -31l-188 -291v-137q0 -35 19.5 -47t65.5 -14v-38h-261v38q47 2 66.5 14t19.5 47v137l-186 291q-17 27 -52 31v38h240v-38q-44 -2 -60 -8.5t-16 -23.5t16 -41zM362 816h116l-151 -169h-39z" />
    <glyph glyph-name="Ycircumflex.sc" horiz-adv-x="598" 
d="M320 285l128 200q16 24 16 41t-16 23.5t-60 8.5v38h195v-38q-34 -4 -52 -31l-188 -291v-137q0 -35 19.5 -47t65.5 -14v-38h-261v38q47 2 66.5 14t19.5 47v137l-186 291q-17 27 -52 31v38h240v-38q-44 -2 -60 -8.5t-16 -23.5t16 -41zM348 820l140 -173h-46l-128 103
l-128 -103h-46l140 173h68z" />
    <glyph glyph-name="Ydieresis.sc" horiz-adv-x="598" 
d="M320 285l128 200q16 24 16 41t-16 23.5t-60 8.5v38h195v-38q-34 -4 -52 -31l-188 -291v-137q0 -35 19.5 -47t65.5 -14v-38h-261v38q47 2 66.5 14t19.5 47v137l-186 291q-17 27 -52 31v38h240v-38q-44 -2 -60 -8.5t-16 -23.5t16 -41zM155 732q0 25 18 42.5t43 17.5
t43 -17.5t18 -42.5q0 -26 -17.5 -44t-43.5 -18t-43.5 18t-17.5 44zM345 732q0 25 18 42.5t43 17.5t43 -17.5t18 -42.5q0 -26 -17.5 -44t-43.5 -18t-43.5 18t-17.5 44z" />
    <glyph glyph-name="Ygrave.sc" horiz-adv-x="598" 
d="M320 285l128 200q16 24 16 41t-16 23.5t-60 8.5v38h195v-38q-34 -4 -52 -31l-188 -291v-137q0 -35 19.5 -47t65.5 -14v-38h-261v38q47 2 66.5 14t19.5 47v137l-186 291q-17 27 -52 31v38h240v-38q-44 -2 -60 -8.5t-16 -23.5t16 -41zM146 816h116l74 -169h-39z" />
    <glyph glyph-name="Zacute.sc" horiz-adv-x="564" 
d="M156 44h199q52 0 77 25.5t67 104.5h33l-29 -174h-470v25l365 526h-184q-26 0 -42 -4.5t-30.5 -22.5t-22.5 -33t-27 -56h-30v161h455v-26zM341 816h116l-151 -169h-39z" />
    <glyph glyph-name="Zcaron.sc" horiz-adv-x="564" 
d="M156 44h199q52 0 77 25.5t67 104.5h33l-29 -174h-470v25l365 526h-184q-26 0 -42 -4.5t-30.5 -22.5t-22.5 -33t-27 -56h-30v161h455v-26zM472 824l-140 -173h-68l-140 173h46l128 -103l128 103h46z" />
    <glyph glyph-name="Zdotaccent.sc" horiz-adv-x="564" 
d="M156 44h199q52 0 77 25.5t67 104.5h33l-29 -174h-470v25l365 526h-184q-26 0 -42 -4.5t-30.5 -22.5t-22.5 -33t-27 -56h-30v161h455v-26zM298 666q-27 0 -46 19.5t-19 47.5t19 47.5t46 19.5t46 -19.5t19 -47.5t-19 -47.5t-46 -19.5z" />
    <glyph glyph-name="ampersand.sc" horiz-adv-x="605" 
d="M23 156q0 114 139 170q-56 65 -56 133q0 64 44 105.5t115 41.5q74 0 114.5 -34.5t40.5 -90.5q0 -95 -147 -150l157 -177q21 42 21 92q0 30 -9.5 42.5t-33.5 12.5v37h175v-37q-49 0 -64 -11.5t-22 -50.5q-13 -66 -40 -115l36 -40q42 -47 89 -47v-37h-115q-31 17 -65 54
q-70 -64 -174 -64q-84 0 -144.5 43.5t-60.5 122.5zM252 41q70 0 123 42q-1 1 -1 2l-191 217q-65 -34 -65 -127q0 -59 38.5 -96.5t95.5 -37.5zM181 487q0 -54 66 -126l4 -5q48 19 70.5 49t22.5 77q0 38 -22 61t-60 23q-37 0 -59 -21t-22 -58z" />
    <glyph glyph-name="caron.Slovak" horiz-adv-x="500" 
d="M308 761l-82 -205h-35l20 205h97z" />
    <glyph glyph-name="cedilla.alt" horiz-adv-x="500" 
d="M201 -48h33q109 0 109 -74q0 -49 -50.5 -74t-129.5 -25l-6 33q117 0 117 46q0 42 -93 45z" />
    <glyph glyph-name="grave.cap" horiz-adv-x="500" 
d="M153 910h120l74 -149h-39z" />
    <glyph glyph-name="acute.cap" horiz-adv-x="500" 
d="M227 910h120l-155 -149h-39z" />
    <glyph glyph-name="circumflex.cap" horiz-adv-x="500" 
d="M284 920l150 -159h-46l-138 90l-138 -90h-46l150 159h68z" />
    <glyph glyph-name="tilde.cap" horiz-adv-x="500" 
d="M396 890l37 -10q-33 -72 -57.5 -96t-60.5 -24q-32 0 -80 36t-67 36q-21 0 -33.5 -13t-31.5 -49l-37 10q33 72 57.5 96t60.5 24q32 0 80 -36t67 -36q21 0 33.5 13t31.5 49z" />
    <glyph glyph-name="macron.cap" horiz-adv-x="500" 
d="M109 783v62h282v-62h-282z" />
    <glyph glyph-name="breve.cap" horiz-adv-x="500" 
d="M250 758q-69 0 -110.5 41.5t-41.5 115.5h37q3 -47 36.5 -70t78.5 -23t78.5 23t36.5 70h37q0 -74 -41.5 -115.5t-110.5 -41.5z" />
    <glyph glyph-name="dotaccent.cap" horiz-adv-x="500" 
d="M250 767q-27 0 -46 19.5t-19 47.5t19 47.5t46 19.5t46 -19.5t19 -47.5t-19 -47.5t-46 -19.5z" />
    <glyph glyph-name="dieresis.cap" horiz-adv-x="500" 
d="M89 832q0 25 18 42.5t43 17.5t43 -17.5t18 -42.5q0 -26 -17.5 -44t-43.5 -18t-43.5 18t-17.5 44zM289 832q0 25 18 42.5t43 17.5t43 -17.5t18 -42.5q0 -26 -17.5 -44t-43.5 -18t-43.5 18t-17.5 44z" />
    <glyph glyph-name="ring.cap" horiz-adv-x="500" 
d="M157 835q0 39 26 65t67 26t67 -26t26 -65t-26 -65t-67 -26t-67 26t-26 65zM301 835q0 24 -13 39t-38 15t-38 -15t-13 -39t13 -39t38 -15t38 15t13 39z" />
    <glyph glyph-name="hungarumlaut.cap" horiz-adv-x="500" 
d="M155 910h106l-133 -149h-40zM305 910h106l-133 -149h-40z" />
    <glyph glyph-name="caron.cap" horiz-adv-x="500" 
d="M434 920l-150 -159h-68l-150 159h46l138 -90l138 90h46z" />
    <glyph glyph-name="exclamdown.cap" horiz-adv-x="292" 
d="M73 639q0 31 21 52t52 21t52 -21t21 -52t-21 -52t-52 -21t-52 21t-21 52zM168 499l43 -499h-131l43 499h45z" />
    <glyph glyph-name="questiondown.cap" horiz-adv-x="438" 
d="M120 132q0 -44 27 -70t75 -26q88 0 88 94v37h80q21 -19 21 -48q0 -55 -55 -92.5t-132 -37.5q-91 0 -144 42.5t-53 124.5q0 58 30.5 101.5t90.5 88.5q42 30 59.5 58.5t17.5 71.5v32h29q29 -52 29 -90q0 -81 -79 -146q-31 -25 -44.5 -39t-26.5 -41t-13 -60zM313 638
q0 -31 -21 -52t-52 -21t-52 21t-21 52t21 52t52 21t52 -21t21 -52z" />
    <glyph glyph-name="exclam.sc" horiz-adv-x="253" 
d="M187 596l-39 -417h-43l-39 417h121zM60 57q0 28 19.5 47.5t47.5 19.5t47 -19.5t19 -47.5t-19 -47.5t-47 -19.5t-47.5 19.5t-19.5 47.5z" />
    <glyph glyph-name="exclamdown.sc" horiz-adv-x="253" 
d="M148 417l39 -417h-121l39 417h43zM60 539q0 28 19.5 47.5t47.5 19.5t47 -19.5t19 -47.5t-19 -47.5t-47 -19.5t-47.5 19.5t-19.5 47.5z" />
    <glyph glyph-name="question.sc" horiz-adv-x="379" 
d="M271 487q0 35 -21.5 55.5t-57.5 20.5q-79 0 -79 -78v-34h-73q-20 17 -20 44q0 48 48 79.5t118 31.5q80 0 126.5 -36t46.5 -106q0 -48 -26 -83.5t-78 -73.5q-37 -27 -52.5 -51t-15.5 -58v-27h-28q-28 42 -28 82q0 66 66 118q27 22 39 33t23.5 33.5t11.5 49.5zM106 57
q0 28 19.5 47.5t47.5 19.5t47 -19.5t19 -47.5t-19 -47.5t-47 -19.5t-47.5 19.5t-19.5 47.5z" />
    <glyph glyph-name="questiondown.sc" horiz-adv-x="379" 
d="M108 119q0 -35 21.5 -55.5t57.5 -20.5q79 0 79 78v34h73q20 -17 20 -44q0 -48 -48 -79.5t-118 -31.5q-80 0 -126.5 36t-46.5 106q0 48 26 83.5t78 73.5q37 27 52.5 51t15.5 58v27h28q28 -42 28 -82q0 -66 -66 -118q-27 -22 -39 -33t-23.5 -33.5t-11.5 -49.5zM273 549
q0 -28 -19.5 -47.5t-47.5 -19.5t-47 19.5t-19 47.5t19 47.5t47 19.5t47.5 -19.5t19.5 -47.5z" />
    <glyph glyph-name="guilsinglleft.cap" horiz-adv-x="298" 
d="M50 349v10l161 190h47l-115 -195l115 -195h-47z" />
    <glyph glyph-name="guilsinglright.cap" horiz-adv-x="298" 
d="M248 359v-10l-161 -190h-47l115 195l-115 195h47z" />
    <glyph glyph-name="guillemotleft.cap" horiz-adv-x="477" 
d="M50 349v10l161 190h47l-115 -195l115 -195h-47zM229 349v10l161 190h47l-115 -195l115 -195h-47z" />
    <glyph glyph-name="guillemotright.cap" horiz-adv-x="477" 
d="M248 359v-10l-161 -190h-47l115 195l-115 195h47zM427 359v-10l-161 -190h-47l115 195l-115 195h47z" />
    <glyph glyph-name="slash.cap" horiz-adv-x="398" 
d="M363 770l-266 -871h-62l266 871h62z" />
    <glyph glyph-name="backslash.cap" horiz-adv-x="398" 
d="M301 -101l-266 871h62l266 -871h-62z" />
    <glyph glyph-name="bar.cap" horiz-adv-x="257" 
d="M157 770v-871h-57v871h57z" />
    <glyph glyph-name="brokenbar.cap" horiz-adv-x="257" 
d="M157 770v-371h-57v371h57zM157 270v-371h-57v371h57z" />
    <glyph glyph-name="slash.sc" horiz-adv-x="379" 
d="M359 687l-277 -799h-62l277 799h62z" />
    <glyph glyph-name="backslash.sc" horiz-adv-x="379" 
d="M297 -112l-277 799h62l277 -799h-62z" />
    <glyph glyph-name="bar.sc" horiz-adv-x="257" 
d="M157 687v-799h-57v799h57z" />
    <glyph glyph-name="brokenbar.sc" horiz-adv-x="257" 
d="M157 225v-337h-57v337h57zM157 687v-337h-57v337h57z" />
    <glyph glyph-name="periodcentered.cap" horiz-adv-x="256" 
d="M55 356q0 31 21 52t52 21t52 -21t21 -52t-21 -52t-52 -21t-52 21t-21 52z" />
    <glyph glyph-name="bullet.cap" horiz-adv-x="354" 
d="M55 355q0 50 36 86t86 36t86 -36t36 -86t-36 -86t-86 -36t-86 36t-36 86z" />
    <glyph glyph-name="hyphen.cap" horiz-adv-x="360" 
d="M310 322h-260v76h260v-76z" />
    <glyph glyph-name="endash.cap" horiz-adv-x="580" 
d="M530 327h-480v66h480v-66z" />
    <glyph glyph-name="emdash.cap" horiz-adv-x="1000" 
d="M950 393v-66h-900v66h900z" />
    <glyph glyph-name="parenleft.cap" horiz-adv-x="338" 
d="M61 334q0 125 50 239.5t146 196.5h51q-90 -95 -127 -201.5t-37 -234.5t37 -234.5t127 -201.5h-51q-96 82 -146 196.5t-50 239.5z" />
    <glyph glyph-name="parenright.cap" horiz-adv-x="338" 
d="M277 334q0 -125 -50 -239.5t-146 -196.5h-51q90 95 127 201.5t37 234.5t-37 234.5t-127 201.5h51q96 -82 146 -196.5t50 -239.5z" />
    <glyph glyph-name="bracketleft.cap" horiz-adv-x="312" 
d="M154 678v-687q0 -36 22.5 -46t90.5 -14v-32h-182v871h182v-32q-68 -4 -90.5 -14t-22.5 -46z" />
    <glyph glyph-name="bracketright.cap" horiz-adv-x="312" 
d="M158 -9v687q0 36 -22.5 46t-90.5 14v32h182v-871h-182v32q68 4 90.5 14t22.5 46z" />
    <glyph glyph-name="braceleft.cap" horiz-adv-x="341" 
d="M50 327v16q83 17 83 100v199q0 58 45.5 93t117.5 35v-27q-91 -12 -91 -98v-198q0 -50 -20 -73.5t-71 -38.5q51 -15 71 -38.5t20 -73.5v-198q0 -86 91 -98v-27q-72 0 -117.5 35t-45.5 93v199q0 83 -83 100z" />
    <glyph glyph-name="braceright.cap" horiz-adv-x="341" 
d="M291 343v-16q-83 -17 -83 -100v-199q0 -58 -45.5 -93t-117.5 -35v27q91 12 91 98v198q0 50 20 73.5t71 38.5q-51 15 -71 38.5t-20 73.5v198q0 86 -91 98v27q72 0 117.5 -35t45.5 -93v-199q0 -83 83 -100z" />
    <glyph glyph-name="parenleft.sc" horiz-adv-x="332" 
d="M60 288q0 113 50.5 219.5t147.5 179.5h54q-168 -155 -168 -399t168 -399h-54q-97 73 -147.5 179.5t-50.5 219.5z" />
    <glyph glyph-name="parenright.sc" horiz-adv-x="332" 
d="M272 288q0 -113 -50.5 -219.5t-147.5 -179.5h-54q168 155 168 399t-168 399h54q97 -73 147.5 -179.5t50.5 -219.5z" />
    <glyph glyph-name="bracketleft.sc" horiz-adv-x="312" 
d="M154 595v-614q0 -36 22.5 -46t90.5 -14v-32h-182v798h182v-32q-68 -4 -90.5 -14t-22.5 -46z" />
    <glyph glyph-name="bracketright.sc" horiz-adv-x="312" 
d="M158 -19v614q0 36 -22.5 46t-90.5 14v32h182v-798h-182v32q68 4 90.5 14t22.5 46z" />
    <glyph glyph-name="braceleft.sc" horiz-adv-x="331" 
d="M104 288q51 -15 71 -38.5t20 -73.5v-162q0 -86 91 -98v-27q-72 0 -117.5 35t-45.5 93v163q0 83 -83 100v16q83 17 83 100v163q0 58 45.5 93t117.5 35v-27q-91 -12 -91 -98v-162q0 -50 -20 -73.5t-71 -38.5z" />
    <glyph glyph-name="braceright.sc" horiz-adv-x="331" 
d="M227 288q-51 15 -71 38.5t-20 73.5v162q0 86 -91 98v27q72 0 117.5 -35t45.5 -93v-163q0 -83 83 -100v-16q-83 -17 -83 -100v-163q0 -58 -45.5 -93t-117.5 -35v27q91 12 91 98v162q0 50 20 73.5t71 38.5z" />
    <glyph glyph-name="at.cap" horiz-adv-x="892" 
d="M606 144q-48 0 -72.5 28.5t-23.5 70.5t14 89h-6q-35 -83 -83.5 -135t-96.5 -52q-43 0 -68 33t-25 91q0 115 76 208.5t167 93.5q56 0 90 -32l47 38h37l-27 -89l-50 -208q-23 -96 33 -96q63 0 112 68.5t49 174.5q0 132 -78 213t-222 81q-153 0 -257 -118.5t-104 -286.5
q0 -150 97.5 -243.5t251.5 -93.5q139 0 262 73l14 -30q-48 -41 -125 -65.5t-161 -24.5q-181 0 -294 105.5t-113 279.5q0 184 123.5 314t305.5 130q166 0 264.5 -93t98.5 -241q0 -126 -71 -204.5t-165 -78.5zM371 203q44 0 97.5 82.5t87.5 211.5q-18 37 -60 37
q-69 0 -118 -87.5t-49 -175.5q0 -68 42 -68z" />
    <glyph glyph-name="florin.op" horiz-adv-x="493" 
d="M89 282l6 42h86l8 60q36 273 195 273q51 0 75 -20t24 -53q0 -43 -49 -58h-19q-2 92 -51 92q-47 0 -60 -93l-27 -201h113l-4 -42h-115l-23 -177q-36 -273 -195 -273q-51 0 -75 20t-24 53q0 43 49 58h19q2 -92 51 -92q47 0 60 93l42 318h-86z" />
    <glyph glyph-name="Euro.op" horiz-adv-x="633" 
d="M21 355v42h86q20 121 93 190.5t176 69.5q116 0 188 -56v-144h-34q-34 150 -157 150q-70 0 -113 -58.5t-54 -151.5h246l-13 -42h-236v-20q0 -30 1 -45h218l-12 -42h-202q13 -96 56.5 -152.5t121.5 -56.5q68 0 105.5 39t63.5 122h36l-17 -160q-92 -50 -191 -50
q-118 0 -190 70t-88 188h-84v42h80v25q0 27 1 40h-81z" />
    <glyph glyph-name="dollar.op" horiz-adv-x="511" 
d="M166 -113l16 107q-90 11 -135 53l-7 155h31q35 -123 120 -154l37 244l-39 17q-69 29 -105.5 66t-36.5 107q0 76 55.5 125.5t149.5 49.5q10 0 32 -2l16 99h45l-17 -105q75 -15 116 -47v-141h-31q-23 101 -93 133l-35 -224l32 -13q79 -32 116.5 -69.5t37.5 -111.5
q0 -86 -66 -136t-166 -50h-12l-16 -103h-45zM277 272l-6 2l-37 -235h13q66 0 104 30t38 80q0 48 -27.5 74t-84.5 49zM128 509q0 -41 23 -67t71 -46l21 -9l34 219q-20 2 -30 2q-57 0 -88 -27t-31 -72z" />
    <glyph glyph-name="sterling.op" horiz-adv-x="610" 
d="M97 315v40h105l12 75q36 228 216 228q62 0 97.5 -24t35.5 -68q0 -43 -33 -59h-55v31q0 36 -13 55.5t-47 19.5q-43 0 -64.5 -42.5t-37.5 -135.5l-14 -80h150v-40h-156l-19 -115q-4 -29 -15 -65q102 -58 178 -58q99 0 99 100h25q19 -27 19 -68q0 -119 -130 -119
q-58 0 -114 28t-99 67q-47 -95 -129 -95q-46 0 -69.5 24.5t-23.5 64.5q0 42 28.5 69t74.5 27q28 0 55 -8l23 148h-99zM102 35q48 0 63 85q-29 12 -50 12q-26 0 -40 -15t-14 -38q0 -20 11.5 -32t29.5 -12z" />
    <glyph glyph-name="yen.op" horiz-adv-x="643" 
d="M89 297v40h134l-145 240q-18 29 -60 34v37h264v-37q-50 -1 -68.5 -9t-18.5 -27q0 -16 15 -41l130 -226l133 226q15 24 15 41q0 19 -18.5 27t-69.5 9v37h225v-37q-42 -4 -60 -34l-149 -240h136v-40h-161l-26 -42v-24h187v-42h-187v-84q0 -40 23 -53.5t76 -14.5v-37h-291
v37q54 1 77.5 14.5t23.5 53.5v84h-185v42h185v23l-26 43h-159z" />
    <glyph glyph-name="florin.lt" 
d="M190 310l6 42h86l12 87q36 273 195 273q51 0 75 -20t24 -53q0 -43 -49 -58h-19q-2 92 -51 92q-47 0 -60 -93l-31 -228h113l-4 -42h-115l-27 -205q-36 -273 -195 -273q-51 0 -75 20t-24 53q0 43 49 58h19q2 -92 51 -92q47 0 60 93l46 346h-86z" />
    <glyph glyph-name="Euro.lt" 
d="M15 384v43h69q19 133 92.5 209t179.5 76q119 0 192 -60v-154h-37q-35 160 -159 160q-73 0 -113.5 -64t-50.5 -167h253l-14 -43h-242v-21q0 -33 1 -49h224l-13 -43h-208q25 -228 177 -228q70 0 107.5 41t62.5 131h40l-17 -171q-96 -54 -196 -54q-122 0 -193.5 75.5
t-87.5 205.5h-67v43h63v27q0 29 1 43h-64z" />
    <glyph glyph-name="dollar.lt" 
d="M195 -113l18 108q-89 14 -137 56l-7 168h33q35 -128 121 -164l44 263l-39 17q-75 31 -113.5 71.5t-38.5 116.5q0 82 59 135.5t158 53.5q14 0 40 -2l18 104h45l-19 -111q79 -17 120 -50v-153h-32q-25 108 -98 143l-41 -241l36 -15q84 -34 124 -75t40 -121
q0 -94 -70 -147.5t-177 -53.5q-15 0 -22 1l-17 -104h-45zM321 296l-12 5l-43 -257q7 -1 22 -1q69 0 110 32.5t41 86.5q0 51 -28.5 79.5t-89.5 54.5zM162 552q0 -45 24.5 -73.5t75.5 -49.5l22 -10l40 237q-16 3 -36 3q-60 0 -93 -29.5t-33 -77.5z" />
    <glyph glyph-name="cent.lt" 
d="M203 -108l24 112q-72 26 -113.5 91.5t-41.5 153.5q0 125 72 208t195 83h1l29 132h44l-29 -135q62 -9 98 -40.5t36 -79.5q0 -46 -43 -64h-48v34q0 73 -55 94l-86 -407q30 -8 62 -8q97 0 160 85l19 -10q-23 -75 -78 -113t-136 -38q-26 0 -45 4l-21 -102h-44zM158 286
q0 -140 87 -194l85 398h-11q-71 0 -116 -56t-45 -148z" />
    <glyph glyph-name="sterling.lt" 
d="M89 341v43h108l12 82q36 246 221 246q63 0 100.5 -26t37.5 -73q0 -48 -33 -64h-59v36q0 39 -13.5 59.5t-48.5 20.5q-44 0 -66 -47t-38 -147l-14 -87h153v-43h-160l-19 -124q-4 -32 -15 -70q103 -63 182 -63q51 0 77.5 23.5t26.5 84.5h23q20 -28 20 -73q0 -129 -134 -129
q-112 0 -217 103q-50 -103 -132 -103q-48 0 -72 26.5t-24 69.5q0 46 29.5 75t75.5 29q30 0 57 -9l23 160h-101zM94 39q48 0 65 91q-29 13 -52 13q-27 0 -41 -16t-14 -41q0 -22 11.5 -34.5t30.5 -12.5z" />
    <glyph glyph-name="yen.lt" 
d="M76 316v44h132l-142 266q-17 31 -56 37v39h256v-39q-48 -1 -65 -9.5t-17 -29.5q0 -18 13 -44l123 -245l129 245q14 28 14 44q0 21 -17 29.5t-65 9.5v39h209v-39q-39 -6 -56 -37l-147 -266h135v-44h-159l-18 -34v-37h177v-44h-177v-89q0 -43 24 -57t79 -16v-39h-302v39
q56 2 80 16t24 57v89h-174v44h174v36l-19 35h-155z" />
    <glyph glyph-name="florin.ot" 
d="M209 282l6 42h86l8 60q36 273 195 273q51 0 75 -20t24 -53q0 -43 -49 -58h-19q-2 92 -51 92q-47 0 -60 -93l-27 -201h113l-4 -42h-115l-23 -177q-36 -273 -195 -273q-51 0 -75 20t-24 53q0 43 49 58h19q2 -92 51 -92q47 0 60 93l42 318h-86z" />
    <glyph glyph-name="Euro.ot" 
d="M24 355v42h83q19 120 89 190t169 70q111 0 180 -56v-144h-35q-31 150 -148 150q-68 0 -107 -58t-49 -152h233l-15 -42h-221v-20q0 -30 1 -45h204l-11 -42h-189q25 -209 166 -209q65 0 100.5 38.5t60.5 122.5h36l-16 -160q-88 -50 -184 -50q-113 0 -182 70t-84 188h-81v42
h77v25q0 27 1 40h-78z" />
    <glyph glyph-name="dollar.ot" 
d="M210 -113l16 107q-90 11 -135 53l-7 155h31q35 -123 120 -154l37 244l-39 17q-69 29 -105.5 66t-36.5 107q0 76 55.5 125.5t149.5 49.5q10 0 32 -2l16 99h45l-17 -105q75 -15 116 -47v-141h-31q-23 101 -93 133l-35 -224l32 -13q79 -32 116.5 -69.5t37.5 -111.5
q0 -86 -66 -136t-166 -50h-12l-16 -103h-45zM321 272l-6 2l-37 -235h13q66 0 104 30t38 80q0 48 -27.5 74t-84.5 49zM172 509q0 -41 23 -67t71 -46l21 -9l34 219q-20 2 -30 2q-57 0 -88 -27t-31 -72z" />
    <glyph glyph-name="sterling.ot" 
d="M99 315v40h105l12 75q36 228 213 228q62 0 97.5 -24t35.5 -68q0 -43 -33 -59h-55v31q0 36 -13 55.5t-47 19.5q-43 0 -63 -41.5t-36 -136.5l-14 -80h150v-40h-156l-19 -115q-4 -29 -15 -65q102 -58 174 -58q99 0 99 100h25q19 -27 19 -68q0 -119 -130 -119q-106 0 -209 95
q-47 -95 -129 -95q-46 0 -69.5 24.5t-23.5 64.5q0 42 28.5 69t74.5 27q28 0 55 -8l23 148h-99zM104 35q48 0 63 85q-29 12 -50 12q-26 0 -40 -15t-14 -38q0 -20 11.5 -32t29.5 -12z" />
    <glyph glyph-name="yen.ot" 
d="M78 307v40h117l-119 230q-16 29 -60 34v37h259v-37q-50 -1 -68.5 -9t-18.5 -27q0 -12 15 -42l117 -236l123 236q15 30 15 42q0 19 -18.5 27t-69.5 9v37h214v-37q-24 -3 -37 -9t-23 -25l-122 -230h119v-40h-141l-35 -66h176v-42h-177v-94q0 -40 23 -53.5t76 -14.5v-37
h-291v37q54 1 77.5 14.5t23.5 53.5v94h-175v42h173l-35 66h-138z" />
    </font>
</defs>
</svg>
